<svg width="15" height="16" viewBox="0 0 15 16" fill="none" xmlns="http://www.w3.org/2000/svg">
<path fill-rule="evenodd" clip-rule="evenodd" d="M9.64984 11.1831C10.1412 10.5478 10.9092 10.1366 11.7706 10.1366C13.2477 10.1366 14.4511 11.3389 14.4511 12.8183C14.4511 14.2978 13.2508 15.5 11.7737 15.5C10.2966 15.5 9.09632 14.2946 9.09632 12.8183C9.09632 12.5069 9.1523 12.2047 9.25181 11.9244L5.1409 9.62271C4.64958 10.2643 3.87839 10.6786 3.01392 10.6786C1.53686 10.6786 0.333435 9.47633 0.333435 7.99688C0.333435 6.51744 1.53686 5.3152 3.01081 5.3152C3.87528 5.3152 4.64647 5.72633 5.13468 6.36794L9.24248 4.06935C9.14297 3.79215 9.09011 3.49315 9.09011 3.18169C9.09011 1.70224 10.2904 0.5 11.7675 0.5C13.2445 0.5 14.4449 1.70224 14.4449 3.18169C14.4449 4.66113 13.2414 5.86337 11.7675 5.86337C10.903 5.86337 10.1318 5.44913 9.64362 4.81063L5.53271 7.10922C5.63222 7.38953 5.68508 7.68542 5.68508 7.99688C5.68508 8.30523 5.63222 8.60423 5.53582 8.88144L9.64984 11.1831ZM13.6084 3.18481C13.6084 2.16945 12.7843 1.34407 11.7706 1.34407C10.76 1.34407 9.93283 2.16945 9.93283 3.18481C9.93283 4.20018 10.7569 5.02555 11.7706 5.02555C12.7843 5.02555 13.6084 4.20018 13.6084 3.18481ZM3.01385 9.83765C2.00012 9.83765 1.17607 9.01227 1.17607 7.99691C1.17607 6.98154 2.00012 6.15617 3.01385 6.15617C4.02758 6.15617 4.85163 6.98154 4.85163 7.99691C4.85163 9.01227 4.02448 9.83765 3.01385 9.83765ZM9.93283 12.8153C9.93283 13.8307 10.7569 14.656 11.7706 14.656C12.7843 14.656 13.6084 13.8307 13.6084 12.8153C13.6084 11.7999 12.7843 10.9745 11.7706 10.9745C10.7569 10.9745 9.93283 11.7999 9.93283 12.8153Z" fill="#A3ABCC"/>
<path d="M9.64984 11.1831L9.52777 11.4013L9.71581 11.5065L9.84761 11.3361L9.64984 11.1831ZM9.25181 11.9244L9.4874 12.0081L9.55795 11.8093L9.37394 11.7063L9.25181 11.9244ZM5.1409 9.62271L5.26303 9.40458L5.07407 9.29878L4.94241 9.47072L5.1409 9.62271ZM5.13468 6.36794L4.93572 6.51933L5.06723 6.69216L5.25676 6.58611L5.13468 6.36794ZM9.24248 4.06935L9.36456 4.28752L9.5493 4.18414L9.47778 3.98489L9.24248 4.06935ZM9.64362 4.81063L9.84221 4.65878L9.71065 4.48672L9.52161 4.59242L9.64362 4.81063ZM5.53271 7.10922L5.4107 6.89101L5.22652 6.99399L5.29711 7.19285L5.53271 7.10922ZM5.53582 8.88144L5.29969 8.79932L5.23085 8.99728L5.41375 9.09961L5.53582 8.88144ZM11.7706 9.88663C10.8278 9.88663 9.9882 10.3369 9.45207 11.0302L9.84761 11.3361C10.2941 10.7586 10.9907 10.3866 11.7706 10.3866V9.88663ZM14.7011 12.8183C14.7011 11.2008 13.3857 9.88663 11.7706 9.88663V10.3866C13.1096 10.3866 14.2011 11.4769 14.2011 12.8183H14.7011ZM11.7737 15.75C13.3892 15.75 14.7011 14.4354 14.7011 12.8183H14.2011C14.2011 14.1601 13.1123 15.25 11.7737 15.25V15.75ZM8.84632 12.8183C8.84632 14.4321 10.158 15.75 11.7737 15.75V15.25C10.4353 15.25 9.34632 14.1571 9.34632 12.8183H8.84632ZM9.01621 11.8408C8.90768 12.1465 8.84632 12.4769 8.84632 12.8183H9.34632C9.34632 12.5368 9.39692 12.2629 9.4874 12.0081L9.01621 11.8408ZM5.01876 9.84085L9.12967 12.1426L9.37394 11.7063L5.26303 9.40458L5.01876 9.84085ZM3.01392 10.9286C3.96017 10.9286 4.80323 10.4749 5.33939 9.77471L4.94241 9.47072C4.49593 10.0538 3.79662 10.4286 3.01392 10.4286V10.9286ZM0.0834351 7.99688C0.0834351 9.6144 1.39878 10.9286 3.01392 10.9286V10.4286C1.67493 10.4286 0.583435 9.33826 0.583435 7.99688H0.0834351ZM3.01081 5.0652C1.39859 5.0652 0.0834351 6.37956 0.0834351 7.99688H0.583435C0.583435 6.65532 1.67512 5.5652 3.01081 5.5652V5.0652ZM5.33363 6.21655C4.79995 5.51519 3.95631 5.0652 3.01081 5.0652V5.5652C3.79426 5.5652 4.49298 5.93747 4.93572 6.51933L5.33363 6.21655ZM9.1204 3.85118L5.0126 6.14977L5.25676 6.58611L9.36456 4.28752L9.1204 3.85118ZM8.84011 3.18169C8.84011 3.52158 8.89782 3.84918 9.00718 4.15382L9.47778 3.98489C9.38812 3.73512 9.34011 3.46472 9.34011 3.18169H8.84011ZM11.7675 0.25C10.152 0.25 8.84011 1.56455 8.84011 3.18169H9.34011C9.34011 1.83993 10.4289 0.75 11.7675 0.75V0.25ZM14.6949 3.18169C14.6949 1.56455 13.383 0.25 11.7675 0.25V0.75C13.1061 0.75 14.1949 1.83993 14.1949 3.18169H14.6949ZM11.7675 6.11337C13.3797 6.11337 14.6949 4.79901 14.6949 3.18169H14.1949C14.1949 4.52325 13.1032 5.61337 11.7675 5.61337V6.11337ZM9.44502 4.96248C9.97825 5.65985 10.8215 6.11337 11.7675 6.11337V5.61337C10.9846 5.61337 10.2854 5.2384 9.84221 4.65878L9.44502 4.96248ZM5.65472 7.32742L9.76562 5.02884L9.52161 4.59242L5.4107 6.89101L5.65472 7.32742ZM5.93508 7.99688C5.93508 7.65654 5.87721 7.33239 5.7683 7.02559L5.29711 7.19285C5.38722 7.44668 5.43508 7.7143 5.43508 7.99688H5.93508ZM5.77195 8.96355C5.87733 8.66053 5.93508 8.3338 5.93508 7.99688H5.43508C5.43508 8.27667 5.38711 8.54794 5.29969 8.79932L5.77195 8.96355ZM9.7719 10.965L5.65788 8.66326L5.41375 9.09961L9.52777 11.4013L9.7719 10.965ZM11.7706 1.59407C12.6459 1.59407 13.3584 2.30714 13.3584 3.18481H13.8584C13.8584 2.03175 12.9228 1.09407 11.7706 1.09407V1.59407ZM10.1828 3.18481C10.1828 2.30741 10.8982 1.59407 11.7706 1.59407V1.09407C10.6218 1.09407 9.68283 2.03148 9.68283 3.18481H10.1828ZM11.7706 4.77555C10.8953 4.77555 10.1828 4.06249 10.1828 3.18481H9.68283C9.68283 4.33787 10.6184 5.27555 11.7706 5.27555V4.77555ZM13.3584 3.18481C13.3584 4.06249 12.6459 4.77555 11.7706 4.77555V5.27555C12.9228 5.27555 13.8584 4.33787 13.8584 3.18481H13.3584ZM0.926069 7.99691C0.926069 9.14997 1.86167 10.0876 3.01385 10.0876V9.58765C2.13857 9.58765 1.42607 8.87458 1.42607 7.99691H0.926069ZM3.01385 5.90617C1.86167 5.90617 0.926069 6.84385 0.926069 7.99691H1.42607C1.42607 7.11924 2.13857 6.40617 3.01385 6.40617V5.90617ZM5.10163 7.99691C5.10163 6.84385 4.16603 5.90617 3.01385 5.90617V6.40617C3.88913 6.40617 4.60163 7.11924 4.60163 7.99691H5.10163ZM3.01385 10.0876C4.16265 10.0876 5.10163 9.15024 5.10163 7.99691H4.60163C4.60163 8.87431 3.8863 9.58765 3.01385 9.58765V10.0876ZM11.7706 14.406C10.8953 14.406 10.1828 13.693 10.1828 12.8153H9.68283C9.68283 13.9683 10.6184 14.906 11.7706 14.906V14.406ZM13.3584 12.8153C13.3584 13.693 12.6459 14.406 11.7706 14.406V14.906C12.9228 14.906 13.8584 13.9683 13.8584 12.8153H13.3584ZM11.7706 11.2245C12.6459 11.2245 13.3584 11.9376 13.3584 12.8153H13.8584C13.8584 11.6622 12.9228 10.7245 11.7706 10.7245V11.2245ZM10.1828 12.8153C10.1828 11.9376 10.8953 11.2245 11.7706 11.2245V10.7245C10.6184 10.7245 9.68283 11.6622 9.68283 12.8153H10.1828Z" fill="#A3ABCC"/>
</svg>
