<svg width="20" height="18" viewBox="0 0 20 18" fill="none" xmlns="http://www.w3.org/2000/svg">
<path fill-rule="evenodd" clip-rule="evenodd" d="M9.30415 16.8359C9.49669 17.0065 9.74374 17.1004 10 17.1004C10.2561 17.1004 10.5033 17.0065 10.6957 16.8362C11.4245 16.1914 12.1267 15.586 12.7463 15.052L12.7466 15.0518C14.5596 13.4887 16.1253 12.1389 17.2149 10.8089C18.4328 9.32227 19 7.91263 19 6.37268C19 4.87648 18.493 3.49615 17.5722 2.48577C16.6404 1.46344 15.3617 0.900391 13.9717 0.900391C12.9327 0.900391 11.9811 1.23269 11.1435 1.88799C10.7207 2.21876 10.3377 2.62358 10 3.09578C9.66245 2.62358 9.2793 2.21876 8.8566 1.88799C8.01903 1.23269 7.06747 0.900391 6.02844 0.900391C4.63826 0.900391 3.35973 1.46344 2.42795 2.48577C1.50716 3.49615 1 4.87648 1 6.37268C1 7.91263 1.56731 9.32227 2.78528 10.809C3.87485 12.1389 5.44081 13.489 7.25424 15.0523L7.2574 15.055C7.87593 15.5882 8.577 16.1927 9.30415 16.8359ZM3.20303 3.20874C3.93294 2.40799 4.93626 1.96705 6.02844 1.96705C6.82838 1.96705 7.56296 2.22434 8.21156 2.73168C8.78972 3.18401 9.19237 3.75582 9.4283 4.15591C9.5497 4.36166 9.76338 4.48446 10 4.48446C10.2366 4.48446 10.4503 4.36166 10.5717 4.15591C10.8078 3.75582 11.2104 3.18401 11.7884 2.73168C12.437 2.22434 13.1716 1.96705 13.9717 1.96705C15.0637 1.96705 16.0672 2.40799 16.797 3.20874C17.5377 4.02157 17.9457 5.14518 17.9457 6.37269C17.9457 7.66787 17.4699 8.8262 16.4031 10.1285C15.3728 11.3861 13.841 12.7068 12.0672 14.2361L12.0624 14.2403C11.4403 14.7764 10.7354 15.3842 9.99849 16.0333C9.26598 15.3854 8.56216 14.7786 7.9413 14.2433L7.938 14.2406L7.93695 14.2397C6.16146 12.709 4.62803 11.387 3.59703 10.1285C2.53012 8.8262 2.05428 7.66787 2.05428 6.37269C2.05428 5.14518 2.46228 4.02157 3.20303 3.20874Z" fill="#A3ABCC"/>
<path d="M9.30415 16.8359L9.46995 16.6488L9.46979 16.6486L9.30415 16.8359ZM10.6957 16.8362L10.5301 16.6489L10.53 16.649L10.6957 16.8362ZM12.7463 15.052L12.9095 15.2414L12.9099 15.241L12.7463 15.052ZM12.7466 15.0518L12.5833 14.8624L12.583 14.8627L12.7466 15.0518ZM17.2149 10.8089L17.0215 10.6504L17.0215 10.6505L17.2149 10.8089ZM17.5722 2.48577L17.757 2.31738L17.757 2.31737L17.5722 2.48577ZM11.1435 1.88799L11.2976 2.0849L11.2976 2.08489L11.1435 1.88799ZM10 3.09578L9.79662 3.24117L9.99996 3.52561L10.2034 3.2412L10 3.09578ZM8.8566 1.88799L9.01066 1.6911L9.01065 1.69109L8.8566 1.88799ZM2.42795 2.48577L2.24318 2.31737L2.24317 2.31738L2.42795 2.48577ZM2.78528 10.809L2.59189 10.9675L2.59189 10.9675L2.78528 10.809ZM7.25424 15.0523L7.41939 14.8646L7.41748 14.8629L7.25424 15.0523ZM7.2574 15.055L7.09225 15.2427L7.09417 15.2444L7.2574 15.055ZM3.20303 3.20874L3.01827 3.04033L3.01825 3.04035L3.20303 3.20874ZM8.21156 2.73168L8.36561 2.53478L8.36559 2.53477L8.21156 2.73168ZM9.4283 4.15591L9.21295 4.2829L9.21299 4.28296L9.4283 4.15591ZM10.5717 4.15591L10.787 4.28296L10.787 4.28295L10.5717 4.15591ZM11.7884 2.73168L11.6344 2.53477L11.6344 2.5348L11.7884 2.73168ZM16.797 3.20874L16.9817 3.04035L16.9817 3.04034L16.797 3.20874ZM16.4031 10.1285L16.5965 10.2869L16.5965 10.2869L16.4031 10.1285ZM12.0672 14.2361L12.2304 14.4255L12.2305 14.4255L12.0672 14.2361ZM12.0624 14.2403L12.2256 14.4297L12.2256 14.4296L12.0624 14.2403ZM9.99849 16.0333L9.83285 16.2206L9.99815 16.3668L10.1637 16.2209L9.99849 16.0333ZM7.9413 14.2433L8.10455 14.054L8.10245 14.0522L7.9413 14.2433ZM7.938 14.2406L7.77477 14.4299L7.77685 14.4317L7.938 14.2406ZM7.93695 14.2397L7.77371 14.429L7.77373 14.429L7.93695 14.2397ZM3.59703 10.1285L3.79042 9.97003L3.79042 9.97002L3.59703 10.1285ZM10 16.8504C9.80509 16.8504 9.61695 16.779 9.46995 16.6488L9.13836 17.023C9.37643 17.2339 9.68239 17.3504 10 17.3504V16.8504ZM10.53 16.649C10.3831 16.779 10.1948 16.8504 10 16.8504V17.3504C10.3174 17.3504 10.6235 17.234 10.8614 17.0234L10.53 16.649ZM12.5831 14.8626C11.9635 15.3966 11.2602 16.003 10.5301 16.6489L10.8614 17.0234C11.5888 16.3799 12.2898 15.7754 12.9095 15.2414L12.5831 14.8626ZM12.583 14.8627L12.5827 14.8629L12.9099 15.241L12.9101 15.2408L12.583 14.8627ZM17.0215 10.6505C15.9487 11.96 14.402 13.2945 12.5833 14.8624L12.9098 15.2411C14.7173 13.6829 16.302 12.3177 17.4083 10.9673L17.0215 10.6505ZM18.75 6.37268C18.75 7.8417 18.2122 9.19715 17.0215 10.6504L17.4082 10.9673C18.6535 9.4474 19.25 7.98356 19.25 6.37268H18.75ZM17.3874 2.65417C18.2621 3.61399 18.75 4.93239 18.75 6.37268H19.25C19.25 4.82058 18.7238 3.37832 17.757 2.31738L17.3874 2.65417ZM13.9717 1.15039C15.2918 1.15039 16.5033 1.68411 17.3874 2.65418L17.757 2.31737C16.7775 1.24277 15.4317 0.650391 13.9717 0.650391V1.15039ZM11.2976 2.08489C12.0923 1.46312 12.9899 1.15039 13.9717 1.15039V0.650391C12.8754 0.650391 11.8699 1.00226 10.9895 1.69109L11.2976 2.08489ZM10.2034 3.2412C10.5283 2.78679 10.8951 2.39976 11.2976 2.0849L10.9895 1.69108C10.5463 2.03777 10.1471 2.46038 9.79665 2.95035L10.2034 3.2412ZM8.70253 2.08487C9.10493 2.39976 9.47182 2.7868 9.79662 3.24117L10.2034 2.95039C9.85307 2.46036 9.45366 2.03776 9.01066 1.6911L8.70253 2.08487ZM6.02844 1.15039C7.01023 1.15039 7.90784 1.46312 8.70255 2.08489L9.01065 1.69109C8.13022 1.00226 7.12472 0.650391 6.02844 0.650391V1.15039ZM2.61272 2.65418C3.49686 1.68411 4.7082 1.15039 6.02844 1.15039V0.650391C4.56832 0.650391 3.22259 1.24278 2.24318 2.31737L2.61272 2.65418ZM1.25 6.37268C1.25 4.93241 1.738 3.614 2.61273 2.65417L2.24317 2.31738C1.27631 3.37831 0.75 4.82056 0.75 6.37268H1.25ZM2.97867 10.6506C1.78798 9.19714 1.25 7.84169 1.25 6.37268H0.75C0.75 7.98357 1.34664 9.44741 2.59189 10.9675L2.97867 10.6506ZM7.41748 14.8629C5.59845 13.2948 4.05151 11.9601 2.97866 10.6506L2.59189 10.9675C3.69819 12.3178 5.28317 13.6831 7.09101 15.2416L7.41748 14.8629ZM7.42254 14.8673L7.41938 14.8646L7.0891 15.24L7.09226 15.2427L7.42254 14.8673ZM9.46979 16.6486C8.74127 16.0042 8.03906 15.3988 7.42063 14.8657L7.09417 15.2444C7.7128 15.7777 8.41272 16.3811 9.13852 17.0231L9.46979 16.6486ZM6.02844 1.71705C4.86659 1.71705 3.79598 2.18714 3.01827 3.04033L3.38779 3.37715C4.0699 2.62885 5.00594 2.21705 6.02844 2.21705V1.71705ZM8.36559 2.53477C7.67441 1.99412 6.88596 1.71705 6.02844 1.71705V2.21705C6.77081 2.21705 7.45151 2.45456 8.05754 2.9286L8.36559 2.53477ZM9.64365 4.02892C9.39909 3.6142 8.97758 3.01357 8.36561 2.53478L8.05752 2.92858C8.60186 3.35446 8.98565 3.89743 9.21295 4.2829L9.64365 4.02892ZM10 4.23446C9.8529 4.23446 9.72059 4.15932 9.64361 4.02887L9.21299 4.28296C9.37881 4.56399 9.67386 4.73446 10 4.73446V4.23446ZM10.3564 4.02887C10.2794 4.15932 10.1471 4.23446 10 4.23446V4.73446C10.3261 4.73446 10.6212 4.56399 10.787 4.28296L10.3564 4.02887ZM11.6344 2.5348C11.0226 3.01358 10.6011 3.6142 10.3564 4.02887L10.787 4.28295C11.0145 3.89743 11.3983 3.35445 11.9425 2.92856L11.6344 2.5348ZM13.9717 1.71705C13.114 1.71705 12.3256 1.99411 11.6344 2.53477L11.9425 2.9286C12.5485 2.45456 13.2292 2.21705 13.9717 2.21705V1.71705ZM16.9817 3.04034C16.2042 2.18713 15.1334 1.71705 13.9717 1.71705V2.21705C14.9941 2.21705 15.9302 2.62886 16.6122 3.37714L16.9817 3.04034ZM18.1957 6.37269C18.1957 5.09068 17.7694 3.90468 16.9817 3.04035L16.6122 3.37713C17.306 4.13847 17.6957 5.19968 17.6957 6.37269H18.1957ZM16.5965 10.2869C17.6888 8.95352 18.1957 7.74103 18.1957 6.37269H17.6957C17.6957 7.5947 17.251 8.69888 16.2097 9.97003L16.5965 10.2869ZM12.2305 14.4255C13.9982 12.9013 15.5494 11.565 16.5965 10.2869L16.2097 9.97003C15.1962 11.2072 13.6837 12.5123 11.904 14.0468L12.2305 14.4255ZM12.2256 14.4296L12.2304 14.4255L11.904 14.0468L11.8992 14.0509L12.2256 14.4296ZM10.1637 16.2209C10.8995 15.5728 11.6035 14.9658 12.2256 14.4297L11.8992 14.0509C11.2772 14.587 10.5713 15.1956 9.83323 15.8458L10.1637 16.2209ZM7.77806 14.4327C8.39903 14.968 9.1017 15.5739 9.83285 16.2206L10.1641 15.8461C9.43025 15.197 8.72529 14.5892 8.10454 14.054L7.77806 14.4327ZM7.77685 14.4317L7.78015 14.4345L8.10245 14.0522L8.09916 14.0494L7.77685 14.4317ZM7.77373 14.429L7.77478 14.4299L8.10122 14.0512L8.10017 14.0503L7.77373 14.429ZM3.40364 10.2869C4.45145 11.5659 6.00421 12.9035 7.77371 14.429L8.10019 14.0503C6.31871 12.5145 4.80461 11.208 3.79042 9.97003L3.40364 10.2869ZM1.80428 6.37269C1.80428 7.74104 2.31125 8.95353 3.40365 10.2869L3.79042 9.97002C2.74899 8.69887 2.30428 7.5947 2.30428 6.37269H1.80428ZM3.01825 3.04035C2.23057 3.90468 1.80428 5.09068 1.80428 6.37269H2.30428C2.30428 5.19968 2.69399 4.13847 3.38781 3.37713L3.01825 3.04035Z" fill="#A3ABCC"/>
</svg>
