<svg width="26" height="28" viewBox="0 0 26 28" fill="none" xmlns="http://www.w3.org/2000/svg">
<path fill-rule="evenodd" clip-rule="evenodd" d="M25.3666 0.791732V6.15742V6.16328V19.185C25.3666 20.2101 24.8544 21.1532 23.9242 21.8503C23.0587 22.4947 21.9283 22.852 20.7273 22.852C19.5262 22.852 18.3959 22.4947 17.5304 21.8503C16.6002 21.1532 16.088 20.2101 16.088 19.185C16.088 18.1599 16.6002 17.2168 17.5304 16.5198C18.3959 15.8754 19.5321 15.5181 20.7273 15.5181C21.8577 15.5181 22.9351 15.8344 23.777 16.4143V7.2411L9.29971 11.8219V24.2871C9.29971 25.3122 8.7875 26.2553 7.85728 26.9524C6.99182 27.5968 5.86143 27.9541 4.66038 27.9541C3.45934 27.9541 2.32895 27.5968 1.46349 26.9524C0.533267 26.2553 0.0210571 25.3122 0.0210571 24.2871C0.0210571 23.262 0.533267 22.3189 1.46349 21.6219C2.32895 20.9775 3.46523 20.6202 4.66038 20.6202C5.79078 20.6202 6.86819 20.9365 7.71009 21.5164V11.2478V11.2419V5.87039C7.71009 5.52479 7.93382 5.22018 8.26352 5.11474L24.3304 0.0360831C24.5718 -0.0400675 24.8367 0.00679444 25.0428 0.153238C25.243 0.299681 25.3666 0.539849 25.3666 0.791732ZM1.61067 24.2871C1.61067 25.4177 3.006 26.3725 4.66038 26.3725C6.31476 26.3725 7.71009 25.4235 7.71009 24.2871C7.71009 23.1566 6.31476 22.2018 4.66038 22.2018C3.006 22.2018 1.61067 23.1566 1.61067 24.2871ZM9.29971 10.1582V6.4444L23.777 1.86951V5.58331L9.29971 10.1582ZM17.6835 19.1851C17.6835 20.3156 19.0788 21.2704 20.7332 21.2704C22.3817 21.2704 23.777 20.3156 23.7829 19.1851C23.7829 18.0545 22.3876 17.0997 20.7332 17.0997C19.0788 17.0997 17.6835 18.0545 17.6835 19.1851Z" fill="white"/>
</svg>
