<svg width="20" height="14" viewBox="0 0 20 14" fill="none" xmlns="http://www.w3.org/2000/svg">
<path d="M10 6.0869C11.6809 6.0869 13.0435 4.7243 13.0435 3.04345C13.0435 1.3626 11.6809 0 10 0C8.31916 0 6.95654 1.3626 6.95654 3.04345C6.95654 4.7243 8.31916 6.0869 10 6.0869Z" fill="#6F7DFF"/>
<path d="M16.087 7.82598C17.2876 7.82598 18.2609 6.8527 18.2609 5.6521C18.2609 4.4515 17.2876 3.47823 16.087 3.47823C14.8864 3.47823 13.9131 4.4515 13.9131 5.6521C13.9131 6.8527 14.8864 7.82598 16.087 7.82598Z" fill="#6F7DFF"/>
<path d="M3.97493 7.82598C5.17554 7.82598 6.14883 6.8527 6.14883 5.6521C6.14883 4.4515 5.17554 3.47823 3.97493 3.47823C2.77431 3.47823 1.80103 4.4515 1.80103 5.6521C1.80103 6.8527 2.77431 7.82598 3.97493 7.82598Z" fill="#6F7DFF"/>
<path d="M10.0001 6.95645C6.88355 6.95645 4.3479 9.49207 4.3479 12.6086C4.3479 12.8485 4.5427 13.0433 4.7827 13.0433H15.2175C15.4575 13.0433 15.6523 12.8485 15.6523 12.6086C15.6523 9.49207 13.1166 6.95645 10.0001 6.95645Z" fill="#6F7DFF"/>
<path d="M4.72434 8.78948C4.45826 8.73295 4.18781 8.69557 3.91304 8.69557C1.75565 8.69557 0 10.4512 0 12.6086C0 12.8486 0.194796 13.0433 0.434796 13.0433H3.55826C3.50955 12.9068 3.47825 12.7616 3.47825 12.6086C3.47825 11.1816 3.94435 9.86425 4.72434 8.78948Z" fill="#6F7DFF"/>
<path d="M16.0869 8.69557C15.8122 8.69557 15.5417 8.73295 15.2756 8.78948C16.0556 9.86425 16.5217 11.1816 16.5217 12.6086C16.5217 12.7616 16.4904 12.9068 16.4417 13.0433H19.5652C19.8052 13.0433 20 12.8486 20 12.6086C20 10.4512 18.2443 8.69557 16.0869 8.69557Z" fill="#6F7DFF"/>
</svg>
