<svg width="48" height="48" viewBox="0 0 48 48" fill="none" xmlns="http://www.w3.org/2000/svg">
<path d="M24.5803 34.3051V16.9671C24.5803 16.6464 24.3205 16.3865 23.9997 16.3865C23.679 16.3865 23.4191 16.6464 23.4191 16.9671V34.3051C23.4191 34.6258 23.679 34.8857 23.9997 34.8857C24.3205 34.8857 24.5803 34.6258 24.5803 34.3051Z" fill="white"/>
<path d="M41.4188 12.6055C40.1913 12.6055 38.6617 12.0758 37.0422 11.515C34.9912 10.8048 32.6664 9.99988 30.2554 9.99988C27.4657 9.99988 25.7637 11.2224 24.8272 12.248C24.477 12.6316 24.2056 13.0161 23.9998 13.3571C23.794 13.0161 23.5226 12.6316 23.1723 12.248C22.2358 11.2224 20.5339 9.99988 17.7442 9.99988C15.3331 9.99988 13.0084 10.8048 10.9574 11.515C9.33775 12.0758 7.80812 12.6055 6.58058 12.6055C6.25983 12.6055 5.99994 12.8654 5.99994 13.1861V36.5736C5.99994 36.8943 6.25983 37.1542 6.58058 37.1542C8.00353 37.1542 9.62289 36.5935 11.3372 35.9998C13.3017 35.3196 15.5284 34.5486 17.744 34.5486C19.6438 34.5486 21.1816 35.1777 22.3146 36.4184C22.5308 36.6552 22.8981 36.6718 23.1349 36.4556C23.3718 36.2394 23.3883 35.8721 23.1721 35.6353C22.2356 34.6098 20.5337 33.3873 17.744 33.3873C15.333 33.3873 13.0082 34.1922 10.9573 34.9024C9.58425 35.378 8.27573 35.831 7.16121 35.9579V13.7379C8.43792 13.6163 9.85189 13.1267 11.3372 12.6124C13.3017 11.9322 15.5284 11.1612 17.744 11.1612C22.225 11.1612 23.3975 14.7195 23.4446 14.869C23.5196 15.1127 23.7447 15.2792 23.9997 15.2792C24.2547 15.2792 24.4799 15.1128 24.5548 14.869C24.5661 14.8319 25.7457 11.1612 30.2554 11.1612C32.4711 11.1612 34.6977 11.9322 36.6622 12.6124C38.1476 13.1267 39.5615 13.6163 40.8382 13.7379V35.9579C39.7237 35.831 38.4152 35.378 37.0422 34.9025C34.9912 34.1923 32.6664 33.3873 30.2554 33.3873C27.4656 33.3873 25.7636 34.6099 24.8272 35.6354C24.611 35.8723 24.6277 36.2395 24.8644 36.4557C25.1013 36.672 25.4686 36.6553 25.6847 36.4186C26.8177 35.1778 28.3555 34.5487 30.2554 34.5487C32.4711 34.5487 34.6977 35.3197 36.6622 35.9999C38.3766 36.5936 39.996 37.1543 41.4188 37.1543C41.7396 37.1543 41.9995 36.8944 41.9995 36.5737V13.1861C41.9995 12.8654 41.7396 12.6055 41.4188 12.6055Z" fill="white"/>
<path d="M41.4188 38.3155C40.1913 38.3155 38.6617 37.7858 37.0422 37.225C34.9912 36.5148 32.6664 35.7099 30.2554 35.7099C27.6354 35.7099 25.9749 36.7881 25.0068 37.7689L22.9926 37.7688C22.0245 36.7881 20.3639 35.7099 17.744 35.7099C15.333 35.7099 13.0082 36.5148 10.9573 37.225C9.33775 37.7858 7.80812 38.3155 6.58058 38.3155C6.25983 38.3155 5.99994 38.5753 5.99994 38.8961C5.99994 39.2168 6.25983 39.4767 6.58058 39.4767C8.00353 39.4767 9.62289 38.916 11.3372 38.3223C13.3017 37.6421 15.5284 36.8711 17.744 36.8711C19.6438 36.8711 21.1816 37.5002 22.3146 38.7409C22.4246 38.8614 22.5802 38.93 22.7434 38.93L25.2559 38.9301C25.419 38.9301 25.5746 38.8614 25.6846 38.741C26.8177 37.5002 28.3554 36.8711 30.2553 36.8711C32.471 36.8711 34.6976 37.6421 36.6621 38.3223C38.3765 38.916 39.9959 39.4767 41.4188 39.4767C41.7395 39.4767 41.9994 39.2168 41.9994 38.8961C41.9994 38.5753 41.7396 38.3155 41.4188 38.3155Z" fill="white"/>
</svg>
