<svg width="149" height="136" viewBox="0 0 149 136" fill="none" xmlns="http://www.w3.org/2000/svg">
<ellipse cx="59.778" cy="76.4188" rx="59.7356" ry="58.8839" fill="#9B292B"/>
<ellipse cx="116.436" cy="26.324" rx="25.5635" ry="25.3921" fill="#007FA4"/>
<g clip-path="url(#clip0_6875_14857)">
<path d="M146.656 99.6103C147.945 99.6103 149 98.5536 149 97.2621V59.6912C149 45.4377 137.445 33.8612 123.219 33.8612H114.781V29.1648H126.5C127.789 29.1648 128.844 28.1081 128.844 26.8166V17.4239C128.844 16.1324 127.789 15.0757 126.5 15.0757H112.438C111.148 15.0757 110.094 16.1324 110.094 17.4239V33.8612C110.094 33.8612 73.9297 33.8612 73.5312 33.8612C61.9766 33.8612 51.8281 41.6571 48.7344 52.6466H36.0312C34.2969 52.6466 32.6328 53.2806 31.3438 54.4547C31.3203 54.4782 31.2969 54.5017 31.2734 54.5017L31.25 54.5252C31.2266 54.5487 31.2031 54.5721 31.1797 54.5956C31.1562 54.6191 31.1562 54.6191 31.1328 54.6426C29.7734 55.9576 29 57.7892 29 59.6912V92.5658C29 96.5107 32.2109 99.6103 36.0312 99.6103H85.25V130.606H36.0312C34.7422 130.606 33.6875 131.663 33.6875 132.955C33.6875 134.246 34.7422 135.303 36.0312 135.303H146.656C147.945 135.303 149 134.246 149 132.955C149 131.663 147.945 130.606 146.656 130.606H110.094V99.6103H146.656ZM114.781 19.7721H124.156V24.4684H114.781V19.7721ZM112.438 52.6466C113.727 52.6466 114.781 53.7033 114.781 54.9948C114.781 56.2863 113.727 57.343 112.438 57.343C111.148 57.343 110.094 56.2863 110.094 54.9948C110.094 53.7033 111.148 52.6466 112.438 52.6466ZM81.7109 57.343C78.0547 61.0531 66.4062 72.8175 61.1328 78.1479C60.6875 78.5941 60.1016 78.8524 59.4688 78.8524C58.8359 78.8524 58.25 78.5941 57.8047 78.1479C54.5234 74.837 42.3359 62.509 37.2266 57.343H81.7109ZM33.6875 90.7812V60.4426L47.3984 74.2969L33.6875 90.7812ZM36.3359 94.914L50.7031 77.6548L54.4766 81.4589C55.8125 82.7973 57.5703 83.5487 59.4688 83.5487C61.3672 83.5487 63.125 82.7973 64.4609 81.4589L68.2344 77.6548L82.6016 94.914H36.3359ZM85.25 90.7812L71.5391 74.2969L85.25 60.4426V90.7812ZM82.9062 52.6466H53.6328C56.5625 44.3341 64.5078 38.5575 73.5312 38.5575C85.2734 38.5575 94.625 48.1616 94.625 59.6912V94.914H89.5391C89.7969 94.1625 89.9375 93.3642 89.9375 92.5658V59.6912C89.9375 55.8167 86.7969 52.6466 82.9062 52.6466ZM105.406 130.606H89.9375V99.6103H105.406V130.606ZM99.3125 94.914V59.6912C99.3125 51.0029 94.9766 43.2539 88.3438 38.5575H110.094V48.3495C107.375 49.3122 105.406 51.9187 105.406 54.9948C105.406 58.8693 108.57 62.0394 112.438 62.0394C116.305 62.0394 119.469 58.8693 119.469 54.9948C119.469 51.9422 117.5 49.3122 114.781 48.3495V38.5575H123.219C134.844 38.5575 144.312 48.0442 144.312 59.6912V85.5212H121.812C120.523 85.5212 119.469 86.5779 119.469 87.8694C119.469 89.1609 120.523 90.2176 121.812 90.2176H144.312V94.914C142.508 94.914 100.086 94.914 99.3125 94.914Z" fill="white"/>
</g>
<defs>
<clipPath id="clip0_6875_14857">
<rect width="120" height="120.227" fill="white" transform="translate(29 15.0757)"/>
</clipPath>
</defs>
</svg>
