<svg width="52" height="48" viewBox="0 0 52 48" fill="none" xmlns="http://www.w3.org/2000/svg">
<mask id="path-1-inside-1_6875_1169" fill="white">
<path d="M34.485 20.1484C35.041 20.1484 35.4924 19.697 35.4924 19.141C35.4924 18.5849 35.041 18.1335 34.485 18.1335C33.9289 18.1335 33.4776 18.5849 33.4776 19.141C33.4776 19.697 33.9289 20.1484 34.485 20.1484Z"/>
<path d="M7.68748 6.04445C8.24353 6.04445 8.6949 5.59308 8.6949 5.03703C8.6949 4.48098 8.24353 4.02961 7.68748 4.02961C7.13143 4.02961 6.68006 4.48098 6.68006 5.03703C6.68006 5.59308 7.13143 6.04445 7.68748 6.04445Z"/>
<path d="M12.2358 32.8354L13.7626 33.4907C15.0235 34.0306 16.4697 34.0306 17.7317 33.4903L19.2574 32.8358C19.9394 32.5434 20.606 32.2105 21.2526 31.843C22.1474 38.3959 26.6108 44.2063 32.9886 46.9393L34.5155 47.5945C35.7759 48.134 37.2225 48.1344 38.4842 47.5941L40.0102 46.9397C47.1055 43.8993 51.9131 36.9517 51.9131 29.3469V17.126C51.9131 15.4594 50.5574 14.1037 48.8909 14.1037H31.1603V3.02214C31.1603 1.35557 29.8046 -0.00012207 28.138 -0.00012207H3.35552C1.68895 -0.00012207 0.333267 1.35557 0.333267 3.02214V15.243C0.333267 22.8577 5.15038 29.7994 12.2358 32.8354ZM49.8983 17.126V29.3469C49.8983 36.0242 45.6057 42.35 39.2165 45.0878L37.6908 45.7426C36.9341 46.0665 36.0656 46.0665 35.3092 45.7426L33.7823 45.0878C27.7465 42.5012 23.6224 36.8624 23.1486 30.6191C24.5794 29.5763 25.8442 28.3674 26.9224 27.0337C27.8275 27.7909 28.9692 28.2076 30.1529 28.2076C31.3811 28.2076 32.5648 27.7602 33.4852 26.9483C33.9024 26.58 33.9421 25.9437 33.5742 25.5261C33.2058 25.109 32.5691 25.0693 32.152 25.4376C31.5999 25.9244 30.8899 26.1928 30.1529 26.1928C29.4158 26.1928 28.7059 25.9248 28.1538 25.4376C28.1392 25.4242 28.1235 25.4132 28.1081 25.401C29.9144 22.6231 30.9769 19.4301 31.1371 16.1186H48.8909C49.4465 16.1186 49.8983 16.5703 49.8983 17.126ZM2.34811 3.02214C2.34811 2.46648 2.79987 2.01472 3.35552 2.01472H28.138C28.6937 2.01472 29.1455 2.46648 29.1455 3.02214V15.243C29.1455 22.1226 24.762 28.2855 18.4637 30.9839L16.938 31.6387C16.1808 31.9626 15.3123 31.9626 14.5564 31.6387L13.0295 30.9839C6.64066 28.2462 2.34811 21.9203 2.34811 15.243V3.02214Z"/>
<path d="M21.7915 18.1335H9.70249C9.14605 18.1335 8.69508 18.5845 8.69508 19.141C8.69508 23.0294 11.8586 26.1929 15.747 26.1929C19.6354 26.1929 22.7989 23.0294 22.7989 19.141C22.7989 18.5845 22.348 18.1335 21.7915 18.1335ZM15.747 24.178C13.3146 24.178 11.2793 22.4438 10.811 20.1472H20.683C20.2147 22.4434 18.1794 24.178 15.747 24.178Z"/>
<path d="M9.7019 12.0889C10.439 12.0889 11.1489 12.3573 11.701 12.8445C12.1189 13.2132 12.7556 13.1715 13.1232 12.7555C13.4911 12.3384 13.4514 11.7017 13.0343 11.3337C12.1138 10.5215 10.9301 10.0741 9.7019 10.0741C8.47372 10.0741 7.29039 10.5215 6.36994 11.3337C5.95281 11.7017 5.91306 12.3384 6.28101 12.7555C6.64895 13.1727 7.28567 13.2124 7.7028 12.8445C8.25492 12.3573 8.96483 12.0889 9.7019 12.0889Z"/>
<path d="M18.4591 11.3333C18.0416 11.7017 18.0019 12.338 18.3702 12.7555C18.7382 13.1727 19.3749 13.2124 19.792 12.8441C20.3441 12.3573 21.054 12.0889 21.7911 12.0889C22.5282 12.0889 23.2381 12.3569 23.7902 12.8441C24.2085 13.2132 24.8452 13.1715 25.2124 12.7555C25.5803 12.338 25.5406 11.7017 25.1235 11.3333C24.203 10.5211 23.0193 10.0741 21.7911 10.0741C20.5629 10.0741 19.3796 10.5211 18.4591 11.3333Z"/>
<path d="M11.7169 6.04445H23.806C24.3624 6.04445 24.8134 5.59347 24.8134 5.03703C24.8134 4.48059 24.3624 4.02961 23.806 4.02961H11.7169C11.1605 4.02961 10.7095 4.48059 10.7095 5.03703C10.7095 5.59347 11.1605 6.04445 11.7169 6.04445Z"/>
<path d="M29.4475 39.2891C29.4475 39.8455 29.8985 40.2965 30.455 40.2965H42.544C43.1004 40.2965 43.5514 39.8455 43.5514 39.2891C43.5514 35.4007 40.3879 32.2372 36.4995 32.2372C32.6111 32.2372 29.4475 35.4007 29.4475 39.2891ZM36.4995 34.252C38.9319 34.252 40.9675 35.9855 41.4354 38.2817H31.5635C32.0314 35.9855 34.0671 34.252 36.4995 34.252Z"/>
<path d="M44.5433 25.4374C43.9911 25.9246 43.2812 26.193 42.5442 26.193C41.8071 26.193 41.0972 25.9246 40.5451 25.4374C40.1279 25.0695 39.4912 25.1092 39.1233 25.5263C38.7549 25.9435 38.7947 26.5802 39.2122 26.9482C40.1327 27.7604 41.316 28.2078 42.5442 28.2078C43.7723 28.2078 44.9557 27.7604 45.8761 26.9482C46.2936 26.5802 46.3334 25.9435 45.9651 25.5263C45.5971 25.1092 44.9604 25.0695 44.5433 25.4374Z"/>
<path d="M38.5144 20.1484H44.5589C45.1154 20.1484 45.5664 19.6974 45.5664 19.141C45.5664 18.5845 45.1154 18.1335 44.5589 18.1335H38.5144C37.958 18.1335 37.507 18.5845 37.507 19.141C37.507 19.6974 37.958 20.1484 38.5144 20.1484Z"/>
</mask>
<path d="M34.485 20.1484C35.041 20.1484 35.4924 19.697 35.4924 19.141C35.4924 18.5849 35.041 18.1335 34.485 18.1335C33.9289 18.1335 33.4776 18.5849 33.4776 19.141C33.4776 19.697 33.9289 20.1484 34.485 20.1484Z" fill="white"/>
<path d="M7.68748 6.04445C8.24353 6.04445 8.6949 5.59308 8.6949 5.03703C8.6949 4.48098 8.24353 4.02961 7.68748 4.02961C7.13143 4.02961 6.68006 4.48098 6.68006 5.03703C6.68006 5.59308 7.13143 6.04445 7.68748 6.04445Z" fill="white"/>
<path d="M12.2358 32.8354L13.7626 33.4907C15.0235 34.0306 16.4697 34.0306 17.7317 33.4903L19.2574 32.8358C19.9394 32.5434 20.606 32.2105 21.2526 31.843C22.1474 38.3959 26.6108 44.2063 32.9886 46.9393L34.5155 47.5945C35.7759 48.134 37.2225 48.1344 38.4842 47.5941L40.0102 46.9397C47.1055 43.8993 51.9131 36.9517 51.9131 29.3469V17.126C51.9131 15.4594 50.5574 14.1037 48.8909 14.1037H31.1603V3.02214C31.1603 1.35557 29.8046 -0.00012207 28.138 -0.00012207H3.35552C1.68895 -0.00012207 0.333267 1.35557 0.333267 3.02214V15.243C0.333267 22.8577 5.15038 29.7994 12.2358 32.8354ZM49.8983 17.126V29.3469C49.8983 36.0242 45.6057 42.35 39.2165 45.0878L37.6908 45.7426C36.9341 46.0665 36.0656 46.0665 35.3092 45.7426L33.7823 45.0878C27.7465 42.5012 23.6224 36.8624 23.1486 30.6191C24.5794 29.5763 25.8442 28.3674 26.9224 27.0337C27.8275 27.7909 28.9692 28.2076 30.1529 28.2076C31.3811 28.2076 32.5648 27.7602 33.4852 26.9483C33.9024 26.58 33.9421 25.9437 33.5742 25.5261C33.2058 25.109 32.5691 25.0693 32.152 25.4376C31.5999 25.9244 30.8899 26.1928 30.1529 26.1928C29.4158 26.1928 28.7059 25.9248 28.1538 25.4376C28.1392 25.4242 28.1235 25.4132 28.1081 25.401C29.9144 22.6231 30.9769 19.4301 31.1371 16.1186H48.8909C49.4465 16.1186 49.8983 16.5703 49.8983 17.126ZM2.34811 3.02214C2.34811 2.46648 2.79987 2.01472 3.35552 2.01472H28.138C28.6937 2.01472 29.1455 2.46648 29.1455 3.02214V15.243C29.1455 22.1226 24.762 28.2855 18.4637 30.9839L16.938 31.6387C16.1808 31.9626 15.3123 31.9626 14.5564 31.6387L13.0295 30.9839C6.64066 28.2462 2.34811 21.9203 2.34811 15.243V3.02214Z" fill="white"/>
<path d="M21.7915 18.1335H9.70249C9.14605 18.1335 8.69508 18.5845 8.69508 19.141C8.69508 23.0294 11.8586 26.1929 15.747 26.1929C19.6354 26.1929 22.7989 23.0294 22.7989 19.141C22.7989 18.5845 22.348 18.1335 21.7915 18.1335ZM15.747 24.178C13.3146 24.178 11.2793 22.4438 10.811 20.1472H20.683C20.2147 22.4434 18.1794 24.178 15.747 24.178Z" fill="white"/>
<path d="M9.7019 12.0889C10.439 12.0889 11.1489 12.3573 11.701 12.8445C12.1189 13.2132 12.7556 13.1715 13.1232 12.7555C13.4911 12.3384 13.4514 11.7017 13.0343 11.3337C12.1138 10.5215 10.9301 10.0741 9.7019 10.0741C8.47372 10.0741 7.29039 10.5215 6.36994 11.3337C5.95281 11.7017 5.91306 12.3384 6.28101 12.7555C6.64895 13.1727 7.28567 13.2124 7.7028 12.8445C8.25492 12.3573 8.96483 12.0889 9.7019 12.0889Z" fill="white"/>
<path d="M18.4591 11.3333C18.0416 11.7017 18.0019 12.338 18.3702 12.7555C18.7382 13.1727 19.3749 13.2124 19.792 12.8441C20.3441 12.3573 21.054 12.0889 21.7911 12.0889C22.5282 12.0889 23.2381 12.3569 23.7902 12.8441C24.2085 13.2132 24.8452 13.1715 25.2124 12.7555C25.5803 12.338 25.5406 11.7017 25.1235 11.3333C24.203 10.5211 23.0193 10.0741 21.7911 10.0741C20.5629 10.0741 19.3796 10.5211 18.4591 11.3333Z" fill="white"/>
<path d="M11.7169 6.04445H23.806C24.3624 6.04445 24.8134 5.59347 24.8134 5.03703C24.8134 4.48059 24.3624 4.02961 23.806 4.02961H11.7169C11.1605 4.02961 10.7095 4.48059 10.7095 5.03703C10.7095 5.59347 11.1605 6.04445 11.7169 6.04445Z" fill="white"/>
<path d="M29.4475 39.2891C29.4475 39.8455 29.8985 40.2965 30.455 40.2965H42.544C43.1004 40.2965 43.5514 39.8455 43.5514 39.2891C43.5514 35.4007 40.3879 32.2372 36.4995 32.2372C32.6111 32.2372 29.4475 35.4007 29.4475 39.2891ZM36.4995 34.252C38.9319 34.252 40.9675 35.9855 41.4354 38.2817H31.5635C32.0314 35.9855 34.0671 34.252 36.4995 34.252Z" fill="white"/>
<path d="M44.5433 25.4374C43.9911 25.9246 43.2812 26.193 42.5442 26.193C41.8071 26.193 41.0972 25.9246 40.5451 25.4374C40.1279 25.0695 39.4912 25.1092 39.1233 25.5263C38.7549 25.9435 38.7947 26.5802 39.2122 26.9482C40.1327 27.7604 41.316 28.2078 42.5442 28.2078C43.7723 28.2078 44.9557 27.7604 45.8761 26.9482C46.2936 26.5802 46.3334 25.9435 45.9651 25.5263C45.5971 25.1092 44.9604 25.0695 44.5433 25.4374Z" fill="white"/>
<path d="M38.5144 20.1484H44.5589C45.1154 20.1484 45.5664 19.6974 45.5664 19.141C45.5664 18.5845 45.1154 18.1335 44.5589 18.1335H38.5144C37.958 18.1335 37.507 18.5845 37.507 19.141C37.507 19.6974 37.958 20.1484 38.5144 20.1484Z" fill="white"/>
<path d="M34.485 20.1484C35.041 20.1484 35.4924 19.697 35.4924 19.141C35.4924 18.5849 35.041 18.1335 34.485 18.1335C33.9289 18.1335 33.4776 18.5849 33.4776 19.141C33.4776 19.697 33.9289 20.1484 34.485 20.1484Z" stroke="white" stroke-width="2" mask="url(#path-1-inside-1_6875_1169)"/>
<path d="M7.68748 6.04445C8.24353 6.04445 8.6949 5.59308 8.6949 5.03703C8.6949 4.48098 8.24353 4.02961 7.68748 4.02961C7.13143 4.02961 6.68006 4.48098 6.68006 5.03703C6.68006 5.59308 7.13143 6.04445 7.68748 6.04445Z" stroke="white" stroke-width="2" mask="url(#path-1-inside-1_6875_1169)"/>
<path d="M12.2358 32.8354L13.7626 33.4907C15.0235 34.0306 16.4697 34.0306 17.7317 33.4903L19.2574 32.8358C19.9394 32.5434 20.606 32.2105 21.2526 31.843C22.1474 38.3959 26.6108 44.2063 32.9886 46.9393L34.5155 47.5945C35.7759 48.134 37.2225 48.1344 38.4842 47.5941L40.0102 46.9397C47.1055 43.8993 51.9131 36.9517 51.9131 29.3469V17.126C51.9131 15.4594 50.5574 14.1037 48.8909 14.1037H31.1603V3.02214C31.1603 1.35557 29.8046 -0.00012207 28.138 -0.00012207H3.35552C1.68895 -0.00012207 0.333267 1.35557 0.333267 3.02214V15.243C0.333267 22.8577 5.15038 29.7994 12.2358 32.8354ZM49.8983 17.126V29.3469C49.8983 36.0242 45.6057 42.35 39.2165 45.0878L37.6908 45.7426C36.9341 46.0665 36.0656 46.0665 35.3092 45.7426L33.7823 45.0878C27.7465 42.5012 23.6224 36.8624 23.1486 30.6191C24.5794 29.5763 25.8442 28.3674 26.9224 27.0337C27.8275 27.7909 28.9692 28.2076 30.1529 28.2076C31.3811 28.2076 32.5648 27.7602 33.4852 26.9483C33.9024 26.58 33.9421 25.9437 33.5742 25.5261C33.2058 25.109 32.5691 25.0693 32.152 25.4376C31.5999 25.9244 30.8899 26.1928 30.1529 26.1928C29.4158 26.1928 28.7059 25.9248 28.1538 25.4376C28.1392 25.4242 28.1235 25.4132 28.1081 25.401C29.9144 22.6231 30.9769 19.4301 31.1371 16.1186H48.8909C49.4465 16.1186 49.8983 16.5703 49.8983 17.126ZM2.34811 3.02214C2.34811 2.46648 2.79987 2.01472 3.35552 2.01472H28.138C28.6937 2.01472 29.1455 2.46648 29.1455 3.02214V15.243C29.1455 22.1226 24.762 28.2855 18.4637 30.9839L16.938 31.6387C16.1808 31.9626 15.3123 31.9626 14.5564 31.6387L13.0295 30.9839C6.64066 28.2462 2.34811 21.9203 2.34811 15.243V3.02214Z" stroke="white" stroke-width="2" mask="url(#path-1-inside-1_6875_1169)"/>
<path d="M21.7915 18.1335H9.70249C9.14605 18.1335 8.69508 18.5845 8.69508 19.141C8.69508 23.0294 11.8586 26.1929 15.747 26.1929C19.6354 26.1929 22.7989 23.0294 22.7989 19.141C22.7989 18.5845 22.348 18.1335 21.7915 18.1335ZM15.747 24.178C13.3146 24.178 11.2793 22.4438 10.811 20.1472H20.683C20.2147 22.4434 18.1794 24.178 15.747 24.178Z" stroke="white" stroke-width="2" mask="url(#path-1-inside-1_6875_1169)"/>
<path d="M9.7019 12.0889C10.439 12.0889 11.1489 12.3573 11.701 12.8445C12.1189 13.2132 12.7556 13.1715 13.1232 12.7555C13.4911 12.3384 13.4514 11.7017 13.0343 11.3337C12.1138 10.5215 10.9301 10.0741 9.7019 10.0741C8.47372 10.0741 7.29039 10.5215 6.36994 11.3337C5.95281 11.7017 5.91306 12.3384 6.28101 12.7555C6.64895 13.1727 7.28567 13.2124 7.7028 12.8445C8.25492 12.3573 8.96483 12.0889 9.7019 12.0889Z" stroke="white" stroke-width="2" mask="url(#path-1-inside-1_6875_1169)"/>
<path d="M18.4591 11.3333C18.0416 11.7017 18.0019 12.338 18.3702 12.7555C18.7382 13.1727 19.3749 13.2124 19.792 12.8441C20.3441 12.3573 21.054 12.0889 21.7911 12.0889C22.5282 12.0889 23.2381 12.3569 23.7902 12.8441C24.2085 13.2132 24.8452 13.1715 25.2124 12.7555C25.5803 12.338 25.5406 11.7017 25.1235 11.3333C24.203 10.5211 23.0193 10.0741 21.7911 10.0741C20.5629 10.0741 19.3796 10.5211 18.4591 11.3333Z" stroke="white" stroke-width="2" mask="url(#path-1-inside-1_6875_1169)"/>
<path d="M11.7169 6.04445H23.806C24.3624 6.04445 24.8134 5.59347 24.8134 5.03703C24.8134 4.48059 24.3624 4.02961 23.806 4.02961H11.7169C11.1605 4.02961 10.7095 4.48059 10.7095 5.03703C10.7095 5.59347 11.1605 6.04445 11.7169 6.04445Z" stroke="white" stroke-width="2" mask="url(#path-1-inside-1_6875_1169)"/>
<path d="M29.4475 39.2891C29.4475 39.8455 29.8985 40.2965 30.455 40.2965H42.544C43.1004 40.2965 43.5514 39.8455 43.5514 39.2891C43.5514 35.4007 40.3879 32.2372 36.4995 32.2372C32.6111 32.2372 29.4475 35.4007 29.4475 39.2891ZM36.4995 34.252C38.9319 34.252 40.9675 35.9855 41.4354 38.2817H31.5635C32.0314 35.9855 34.0671 34.252 36.4995 34.252Z" stroke="white" stroke-width="2" mask="url(#path-1-inside-1_6875_1169)"/>
<path d="M44.5433 25.4374C43.9911 25.9246 43.2812 26.193 42.5442 26.193C41.8071 26.193 41.0972 25.9246 40.5451 25.4374C40.1279 25.0695 39.4912 25.1092 39.1233 25.5263C38.7549 25.9435 38.7947 26.5802 39.2122 26.9482C40.1327 27.7604 41.316 28.2078 42.5442 28.2078C43.7723 28.2078 44.9557 27.7604 45.8761 26.9482C46.2936 26.5802 46.3334 25.9435 45.9651 25.5263C45.5971 25.1092 44.9604 25.0695 44.5433 25.4374Z" stroke="white" stroke-width="2" mask="url(#path-1-inside-1_6875_1169)"/>
<path d="M38.5144 20.1484H44.5589C45.1154 20.1484 45.5664 19.6974 45.5664 19.141C45.5664 18.5845 45.1154 18.1335 44.5589 18.1335H38.5144C37.958 18.1335 37.507 18.5845 37.507 19.141C37.507 19.6974 37.958 20.1484 38.5144 20.1484Z" stroke="white" stroke-width="2" mask="url(#path-1-inside-1_6875_1169)"/>
</svg>
