<svg width="16" height="16" viewBox="0 0 16 16" fill="none" xmlns="http://www.w3.org/2000/svg">
<path fill-rule="evenodd" clip-rule="evenodd" d="M5.8 8.09412V15.8118C5.8 15.9059 5.9 16 6 16H9.1C9.2 16 9.3 15.9059 9.3 15.8118V7.90588H11.5C11.6 7.90588 11.7 7.81176 11.7 7.71765L12 5.45882C12 5.36471 11.9 5.27059 11.8 5.27059H9.3V3.48235C9.3 3.10588 9.6 2.72941 10.1 2.72941H11.8C11.9 2.72941 12 2.63529 12 2.54118V0.188235C12 0.0941177 11.9 0 11.8 0H8.9C7.2 0 5.8 1.31765 5.8 2.91765V5.17647H4.2C4.1 5.17647 4 5.27059 4 5.36471V7.71765C4 7.81176 4.1 7.90588 4.2 7.90588H5.7V8.09412H5.8Z" fill="white"/>
</svg>
