<svg width="24" height="24" viewBox="0 0 24 24" fill="none" xmlns="http://www.w3.org/2000/svg">
<path fill-rule="evenodd" clip-rule="evenodd" d="M11.3042 19.8355C11.4967 20.0061 11.7437 20.1 12 20.1C12.2561 20.1 12.5033 20.0061 12.6957 19.8358C13.4245 19.1911 14.1267 18.5856 14.7463 18.0516L14.7466 18.0514C16.5596 16.4883 18.1253 15.1385 19.2149 13.8085C20.4328 12.3219 21 10.9123 21 9.37231C21 7.87612 20.493 6.49579 19.5722 5.48541C18.6404 4.46308 17.3617 3.90002 15.9717 3.90002C14.9327 3.90002 13.9811 4.23233 13.1435 4.88762C12.7207 5.2184 12.3377 5.62322 12 6.09541C11.6624 5.62322 11.2793 5.2184 10.8566 4.88762C10.019 4.23233 9.06747 3.90002 8.02844 3.90002C6.63826 3.90002 5.35973 4.46308 4.42795 5.48541C3.50716 6.49579 3 7.87612 3 9.37231C3 10.9123 3.56731 12.3219 4.78528 13.8087C5.87485 15.1386 7.44081 16.4886 9.25424 18.0519L9.2574 18.0547C9.87593 18.5879 10.577 19.1923 11.3042 19.8355ZM5.20303 6.20837C5.93294 5.40763 6.93626 4.96669 8.02844 4.96669C8.82838 4.96669 9.56296 5.22397 10.2116 5.73132C10.7897 6.18365 11.1924 6.75545 11.4283 7.15555C11.5497 7.36129 11.7634 7.4841 12 7.4841C12.2366 7.4841 12.4503 7.36129 12.5717 7.15555C12.8078 6.75545 13.2104 6.18365 13.7884 5.73132C14.437 5.22397 15.1716 4.96669 15.9717 4.96669C17.0637 4.96669 18.0672 5.40763 18.797 6.20837C19.5377 7.02121 19.9457 8.14481 19.9457 9.37233C19.9457 10.6675 19.4699 11.8258 18.4031 13.1281C17.3728 14.3857 15.841 15.7065 14.0672 17.2358L14.0624 17.2399C13.4403 17.776 12.7354 18.3838 11.9985 19.033C11.266 18.385 10.5622 17.7782 9.9413 17.243L9.938 17.2402L9.93695 17.2393C8.16146 15.7086 6.62803 14.3866 5.59703 13.1281C4.53012 11.8258 4.05428 10.6675 4.05428 9.37233C4.05428 8.14481 4.46228 7.02121 5.20303 6.20837Z" fill="#007FA4"/>
<path d="M11.3042 19.8355L11.4699 19.6484L11.4698 19.6483L11.3042 19.8355ZM12.6957 19.8358L12.5301 19.6486L12.53 19.6486L12.6957 19.8358ZM14.7463 18.0516L14.9095 18.241L14.9099 18.2407L14.7463 18.0516ZM14.7466 18.0514L14.5833 17.862L14.583 17.8623L14.7466 18.0514ZM19.2149 13.8085L19.0215 13.6501L19.0215 13.6501L19.2149 13.8085ZM19.5722 5.48541L19.757 5.31701L19.757 5.317L19.5722 5.48541ZM13.1435 4.88762L13.2976 5.08453L13.2976 5.08452L13.1435 4.88762ZM12 6.09541L11.7966 6.2408L12 6.52524L12.2034 6.24084L12 6.09541ZM10.8566 4.88762L11.0107 4.69074L11.0106 4.69072L10.8566 4.88762ZM4.42795 5.48541L4.24318 5.317L4.24317 5.31701L4.42795 5.48541ZM4.78528 13.8087L4.59189 13.9671L4.59189 13.9671L4.78528 13.8087ZM9.25424 18.0519L9.41939 17.8642L9.41748 17.8625L9.25424 18.0519ZM9.2574 18.0547L9.09225 18.2424L9.09417 18.244L9.2574 18.0547ZM5.20303 6.20837L5.01827 6.03996L5.01825 6.03998L5.20303 6.20837ZM10.2116 5.73132L10.3656 5.53442L10.3656 5.5344L10.2116 5.73132ZM11.4283 7.15555L11.213 7.28253L11.213 7.28259L11.4283 7.15555ZM12.5717 7.15555L12.787 7.28259L12.787 7.28259L12.5717 7.15555ZM13.7884 5.73132L13.6344 5.5344L13.6344 5.53443L13.7884 5.73132ZM18.797 6.20837L18.9817 6.03998L18.9817 6.03998L18.797 6.20837ZM18.4031 13.1281L18.5965 13.2865L18.5965 13.2865L18.4031 13.1281ZM14.0672 17.2358L14.2304 17.4251L14.2305 17.4251L14.0672 17.2358ZM14.0624 17.2399L14.2256 17.4293L14.2256 17.4293L14.0624 17.2399ZM11.9985 19.033L11.8329 19.2202L11.9982 19.3665L12.1637 19.2206L11.9985 19.033ZM9.9413 17.243L10.1046 17.0536L10.1025 17.0518L9.9413 17.243ZM9.938 17.2402L9.77477 17.4296L9.77685 17.4313L9.938 17.2402ZM9.93695 17.2393L9.77371 17.4286L9.77373 17.4286L9.93695 17.2393ZM5.59703 13.1281L5.79042 12.9697L5.79042 12.9697L5.59703 13.1281ZM12 19.85C11.8051 19.85 11.617 19.7787 11.4699 19.6484L11.1384 20.0226C11.3764 20.2336 11.6824 20.35 12 20.35V19.85ZM12.53 19.6486C12.3831 19.7786 12.1948 19.85 12 19.85V20.35C12.3174 20.35 12.6235 20.2336 12.8614 20.023L12.53 19.6486ZM14.5831 17.8622C13.9635 18.3962 13.2602 19.0026 12.5301 19.6486L12.8614 20.023C13.5888 19.3795 14.2898 18.7751 14.9095 18.241L14.5831 17.8622ZM14.583 17.8623L14.5827 17.8626L14.9099 18.2407L14.9101 18.2405L14.583 17.8623ZM19.0215 13.6501C17.9487 14.9596 16.402 16.2942 14.5833 17.862L14.9098 18.2407C16.7173 16.6825 18.302 15.3173 19.4083 13.9669L19.0215 13.6501ZM20.75 9.37231C20.75 10.8413 20.2122 12.1968 19.0215 13.6501L19.4082 13.967C20.6535 12.447 21.25 10.9832 21.25 9.37231H20.75ZM19.3874 5.6538C20.2621 6.61362 20.75 7.93202 20.75 9.37231H21.25C21.25 7.82021 20.7238 6.37795 19.757 5.31701L19.3874 5.6538ZM15.9717 4.15002C17.2918 4.15002 18.5033 4.68374 19.3874 5.65381L19.757 5.317C18.7775 4.24241 17.4317 3.65002 15.9717 3.65002V4.15002ZM13.2976 5.08452C14.0923 4.46275 14.9899 4.15002 15.9717 4.15002V3.65002C14.8754 3.65002 13.8699 4.0019 12.9895 4.69072L13.2976 5.08452ZM12.2034 6.24084C12.5283 5.78642 12.8951 5.39939 13.2976 5.08453L12.9895 4.69071C12.5463 5.0374 12.1471 5.46001 11.7966 5.94999L12.2034 6.24084ZM10.7025 5.08451C11.1049 5.39939 11.4718 5.78644 11.7966 6.2408L12.2034 5.95003C11.8531 5.46 11.4537 5.0374 11.0107 4.69074L10.7025 5.08451ZM8.02844 4.15002C9.01023 4.15002 9.90784 4.46275 10.7025 5.08452L11.0106 4.69072C10.1302 4.0019 9.12472 3.65002 8.02844 3.65002V4.15002ZM4.61272 5.65381C5.49686 4.68374 6.7082 4.15002 8.02844 4.15002V3.65002C6.56832 3.65002 5.22259 4.24241 4.24318 5.317L4.61272 5.65381ZM3.25 9.37231C3.25 7.93204 3.738 6.61363 4.61273 5.6538L4.24317 5.31701C3.27631 6.37794 2.75 7.8202 2.75 9.37231H3.25ZM4.97867 13.6502C3.78798 12.1968 3.25 10.8413 3.25 9.37231H2.75C2.75 10.9832 3.34664 12.447 4.59189 13.9671L4.97867 13.6502ZM9.41748 17.8625C7.59845 16.2944 6.05151 14.9597 4.97866 13.6502L4.59189 13.9671C5.69819 15.3174 7.28317 16.6828 9.09101 18.2412L9.41748 17.8625ZM9.42254 17.867L9.41938 17.8642L9.0891 18.2396L9.09226 18.2424L9.42254 17.867ZM11.4698 19.6483C10.7413 19.0038 10.0391 18.3984 9.42063 17.8653L9.09417 18.244C9.7128 18.7773 10.4127 19.3808 11.1385 20.0228L11.4698 19.6483ZM8.02844 4.71669C6.86659 4.71669 5.79598 5.18677 5.01827 6.03996L5.38779 6.37679C6.0699 5.62848 7.00594 5.21669 8.02844 5.21669V4.71669ZM10.3656 5.5344C9.67441 4.99375 8.88596 4.71669 8.02844 4.71669V5.21669C8.77081 5.21669 9.45151 5.45419 10.0575 5.92823L10.3656 5.5344ZM11.6436 7.02856C11.3991 6.61384 10.9776 6.0132 10.3656 5.53442L10.0575 5.92821C10.6019 6.35409 10.9856 6.89706 11.213 7.28253L11.6436 7.02856ZM12 7.2341C11.8529 7.2341 11.7206 7.15896 11.6436 7.0285L11.213 7.28259C11.3788 7.56362 11.6739 7.7341 12 7.7341V7.2341ZM12.3564 7.0285C12.2794 7.15896 12.1471 7.2341 12 7.2341V7.7341C12.3261 7.7341 12.6212 7.56362 12.787 7.28259L12.3564 7.0285ZM13.6344 5.53443C13.0226 6.01321 12.6011 6.61384 12.3564 7.0285L12.787 7.28259C13.0145 6.89706 13.3983 6.35408 13.9425 5.9282L13.6344 5.53443ZM15.9717 4.71669C15.114 4.71669 14.3256 4.99375 13.6344 5.5344L13.9425 5.92823C14.5485 5.45419 15.2292 5.21669 15.9717 5.21669V4.71669ZM18.9817 6.03998C18.2042 5.18676 17.1334 4.71669 15.9717 4.71669V5.21669C16.9941 5.21669 17.9302 5.62849 18.6122 6.37677L18.9817 6.03998ZM20.1957 9.37233C20.1957 8.09031 19.7694 6.90431 18.9817 6.03998L18.6122 6.37677C19.306 7.1381 19.6957 8.19931 19.6957 9.37233H20.1957ZM18.5965 13.2865C19.6888 11.9532 20.1957 10.7407 20.1957 9.37233H19.6957C19.6957 10.5943 19.251 11.6985 18.2097 12.9697L18.5965 13.2865ZM14.2305 17.4251C15.9982 15.901 17.5494 14.5647 18.5965 13.2865L18.2097 12.9697C17.1962 14.2068 15.6837 15.512 13.904 17.0464L14.2305 17.4251ZM14.2256 17.4293L14.2304 17.4251L13.904 17.0464L13.8992 17.0506L14.2256 17.4293ZM12.1637 19.2206C12.8995 18.5724 13.6035 17.9654 14.2256 17.4293L13.8992 17.0505C13.2772 17.5866 12.5713 18.1952 11.8332 18.8454L12.1637 19.2206ZM9.77806 17.4323C10.399 17.9677 11.1017 18.5735 11.8329 19.2202L12.1641 18.8457C11.4303 18.1966 10.7253 17.5888 10.1045 17.0536L9.77806 17.4323ZM9.77685 17.4313L9.78015 17.4341L10.1025 17.0518L10.0992 17.0491L9.77685 17.4313ZM9.77373 17.4286L9.77478 17.4296L10.1012 17.0508L10.1002 17.0499L9.77373 17.4286ZM5.40364 13.2865C6.45145 14.5656 8.00421 15.9031 9.77371 17.4286L10.1002 17.0499C8.31871 15.5141 6.80461 14.2077 5.79042 12.9697L5.40364 13.2865ZM3.80428 9.37233C3.80428 10.7407 4.31125 11.9532 5.40365 13.2865L5.79042 12.9697C4.74899 11.6985 4.30428 10.5943 4.30428 9.37233H3.80428ZM5.01825 6.03998C4.23057 6.90431 3.80428 8.09031 3.80428 9.37233H4.30428C4.30428 8.19931 4.69399 7.1381 5.38781 6.37677L5.01825 6.03998Z" fill="#007FA4"/>
</svg>
