<svg width="24" height="24" viewBox="0 0 24 24" fill="none" xmlns="http://www.w3.org/2000/svg">
<path fill-rule="evenodd" clip-rule="evenodd" d="M11.3042 19.8359C11.4967 20.0065 11.7437 20.1004 12 20.1004C12.2561 20.1004 12.5033 20.0065 12.6957 19.8362C13.4245 19.1914 14.1267 18.586 14.7463 18.052L14.7466 18.0518C16.5596 16.4887 18.1253 15.1389 19.2149 13.8089C20.4328 12.3223 21 10.9126 21 9.37268C21 7.87648 20.493 6.49615 19.5722 5.48577C18.6404 4.46344 17.3617 3.90039 15.9717 3.90039C14.9327 3.90039 13.9811 4.23269 13.1435 4.88799C12.7207 5.21876 12.3377 5.62358 12 6.09578C11.6624 5.62358 11.2793 5.21876 10.8566 4.88799C10.019 4.23269 9.06747 3.90039 8.02844 3.90039C6.63826 3.90039 5.35973 4.46344 4.42795 5.48577C3.50716 6.49615 3 7.87648 3 9.37268C3 10.9126 3.56731 12.3223 4.78528 13.809C5.87485 15.1389 7.44081 16.489 9.25424 18.0523L9.2574 18.055C9.87593 18.5882 10.577 19.1927 11.3042 19.8359ZM5.20303 6.20874C5.93294 5.40799 6.93626 4.96705 8.02844 4.96705C8.82838 4.96705 9.56296 5.22434 10.2116 5.73168C10.7897 6.18401 11.1924 6.75582 11.4283 7.15591C11.5497 7.36166 11.7634 7.48446 12 7.48446C12.2366 7.48446 12.4503 7.36166 12.5717 7.15591C12.8078 6.75582 13.2104 6.18401 13.7884 5.73168C14.437 5.22434 15.1716 4.96705 15.9717 4.96705C17.0637 4.96705 18.0672 5.40799 18.797 6.20874C19.5377 7.02157 19.9457 8.14518 19.9457 9.37269C19.9457 10.6679 19.4699 11.8262 18.4031 13.1285C17.3728 14.3861 15.841 15.7068 14.0672 17.2361L14.0624 17.2403C13.4403 17.7764 12.7354 18.3842 11.9985 19.0333C11.266 18.3854 10.5622 17.7786 9.9413 17.2433L9.938 17.2406L9.93695 17.2397C8.16146 15.709 6.62803 14.387 5.59703 13.1285C4.53012 11.8262 4.05428 10.6679 4.05428 9.37269C4.05428 8.14518 4.46228 7.02157 5.20303 6.20874Z" fill="white"/>
<path d="M11.3042 19.8359L11.4699 19.6488L11.4698 19.6486L11.3042 19.8359ZM12.6957 19.8362L12.5301 19.6489L12.53 19.649L12.6957 19.8362ZM14.7463 18.052L14.9095 18.2414L14.9099 18.241L14.7463 18.052ZM14.7466 18.0518L14.5833 17.8624L14.583 17.8627L14.7466 18.0518ZM19.2149 13.8089L19.0215 13.6504L19.0215 13.6505L19.2149 13.8089ZM19.5722 5.48577L19.757 5.31738L19.757 5.31737L19.5722 5.48577ZM13.1435 4.88799L13.2976 5.0849L13.2976 5.08489L13.1435 4.88799ZM12 6.09578L11.7966 6.24117L12 6.52561L12.2034 6.2412L12 6.09578ZM10.8566 4.88799L11.0107 4.6911L11.0106 4.69109L10.8566 4.88799ZM4.42795 5.48577L4.24318 5.31737L4.24317 5.31738L4.42795 5.48577ZM4.78528 13.809L4.59189 13.9675L4.59189 13.9675L4.78528 13.809ZM9.25424 18.0523L9.41939 17.8646L9.41748 17.8629L9.25424 18.0523ZM9.2574 18.055L9.09225 18.2427L9.09417 18.2444L9.2574 18.055ZM5.20303 6.20874L5.01827 6.04033L5.01825 6.04035L5.20303 6.20874ZM10.2116 5.73168L10.3656 5.53478L10.3656 5.53477L10.2116 5.73168ZM11.4283 7.15591L11.213 7.2829L11.213 7.28296L11.4283 7.15591ZM12.5717 7.15591L12.787 7.28296L12.787 7.28295L12.5717 7.15591ZM13.7884 5.73168L13.6344 5.53477L13.6344 5.5348L13.7884 5.73168ZM18.797 6.20874L18.9817 6.04035L18.9817 6.04034L18.797 6.20874ZM18.4031 13.1285L18.5965 13.2869L18.5965 13.2869L18.4031 13.1285ZM14.0672 17.2361L14.2304 17.4255L14.2305 17.4255L14.0672 17.2361ZM14.0624 17.2403L14.2256 17.4297L14.2256 17.4296L14.0624 17.2403ZM11.9985 19.0333L11.8329 19.2206L11.9982 19.3668L12.1637 19.2209L11.9985 19.0333ZM9.9413 17.2433L10.1046 17.054L10.1025 17.0522L9.9413 17.2433ZM9.938 17.2406L9.77477 17.4299L9.77685 17.4317L9.938 17.2406ZM9.93695 17.2397L9.77371 17.429L9.77373 17.429L9.93695 17.2397ZM5.59703 13.1285L5.79042 12.97L5.79042 12.97L5.59703 13.1285ZM12 19.8504C11.8051 19.8504 11.617 19.779 11.4699 19.6488L11.1384 20.023C11.3764 20.2339 11.6824 20.3504 12 20.3504V19.8504ZM12.53 19.649C12.3831 19.779 12.1948 19.8504 12 19.8504V20.3504C12.3174 20.3504 12.6235 20.234 12.8614 20.0234L12.53 19.649ZM14.5831 17.8626C13.9635 18.3966 13.2602 19.003 12.5301 19.6489L12.8614 20.0234C13.5888 19.3799 14.2898 18.7754 14.9095 18.2414L14.5831 17.8626ZM14.583 17.8627L14.5827 17.8629L14.9099 18.241L14.9101 18.2408L14.583 17.8627ZM19.0215 13.6505C17.9487 14.96 16.402 16.2945 14.5833 17.8624L14.9098 18.2411C16.7173 16.6829 18.302 15.3177 19.4083 13.9673L19.0215 13.6505ZM20.75 9.37268C20.75 10.8417 20.2122 12.1972 19.0215 13.6504L19.4082 13.9673C20.6535 12.4474 21.25 10.9836 21.25 9.37268H20.75ZM19.3874 5.65417C20.2621 6.61399 20.75 7.93239 20.75 9.37268H21.25C21.25 7.82058 20.7238 6.37832 19.757 5.31738L19.3874 5.65417ZM15.9717 4.15039C17.2918 4.15039 18.5033 4.68411 19.3874 5.65418L19.757 5.31737C18.7775 4.24277 17.4317 3.65039 15.9717 3.65039V4.15039ZM13.2976 5.08489C14.0923 4.46312 14.9899 4.15039 15.9717 4.15039V3.65039C14.8754 3.65039 13.8699 4.00226 12.9895 4.69109L13.2976 5.08489ZM12.2034 6.2412C12.5283 5.78679 12.8951 5.39976 13.2976 5.0849L12.9895 4.69108C12.5463 5.03777 12.1471 5.46038 11.7966 5.95035L12.2034 6.2412ZM10.7025 5.08487C11.1049 5.39976 11.4718 5.7868 11.7966 6.24117L12.2034 5.95039C11.8531 5.46036 11.4537 5.03776 11.0107 4.6911L10.7025 5.08487ZM8.02844 4.15039C9.01023 4.15039 9.90784 4.46312 10.7025 5.08489L11.0106 4.69109C10.1302 4.00226 9.12472 3.65039 8.02844 3.65039V4.15039ZM4.61272 5.65418C5.49686 4.68411 6.7082 4.15039 8.02844 4.15039V3.65039C6.56832 3.65039 5.22259 4.24278 4.24318 5.31737L4.61272 5.65418ZM3.25 9.37268C3.25 7.93241 3.738 6.614 4.61273 5.65417L4.24317 5.31738C3.27631 6.37831 2.75 7.82056 2.75 9.37268H3.25ZM4.97867 13.6506C3.78798 12.1971 3.25 10.8417 3.25 9.37268H2.75C2.75 10.9836 3.34664 12.4474 4.59189 13.9675L4.97867 13.6506ZM9.41748 17.8629C7.59845 16.2948 6.05151 14.9601 4.97866 13.6506L4.59189 13.9675C5.69819 15.3178 7.28317 16.6831 9.09101 18.2416L9.41748 17.8629ZM9.42254 17.8673L9.41938 17.8646L9.0891 18.24L9.09226 18.2427L9.42254 17.8673ZM11.4698 19.6486C10.7413 19.0042 10.0391 18.3988 9.42063 17.8657L9.09417 18.2444C9.7128 18.7777 10.4127 19.3811 11.1385 20.0231L11.4698 19.6486ZM8.02844 4.71705C6.86659 4.71705 5.79598 5.18714 5.01827 6.04033L5.38779 6.37715C6.0699 5.62885 7.00594 5.21705 8.02844 5.21705V4.71705ZM10.3656 5.53477C9.67441 4.99412 8.88596 4.71705 8.02844 4.71705V5.21705C8.77081 5.21705 9.45151 5.45456 10.0575 5.9286L10.3656 5.53477ZM11.6436 7.02892C11.3991 6.6142 10.9776 6.01357 10.3656 5.53478L10.0575 5.92858C10.6019 6.35446 10.9856 6.89743 11.213 7.2829L11.6436 7.02892ZM12 7.23446C11.8529 7.23446 11.7206 7.15932 11.6436 7.02887L11.213 7.28296C11.3788 7.56399 11.6739 7.73446 12 7.73446V7.23446ZM12.3564 7.02887C12.2794 7.15932 12.1471 7.23446 12 7.23446V7.73446C12.3261 7.73446 12.6212 7.56399 12.787 7.28296L12.3564 7.02887ZM13.6344 5.5348C13.0226 6.01358 12.6011 6.6142 12.3564 7.02887L12.787 7.28295C13.0145 6.89743 13.3983 6.35445 13.9425 5.92856L13.6344 5.5348ZM15.9717 4.71705C15.114 4.71705 14.3256 4.99411 13.6344 5.53477L13.9425 5.9286C14.5485 5.45456 15.2292 5.21705 15.9717 5.21705V4.71705ZM18.9817 6.04034C18.2042 5.18713 17.1334 4.71705 15.9717 4.71705V5.21705C16.9941 5.21705 17.9302 5.62886 18.6122 6.37714L18.9817 6.04034ZM20.1957 9.37269C20.1957 8.09068 19.7694 6.90468 18.9817 6.04035L18.6122 6.37713C19.306 7.13847 19.6957 8.19968 19.6957 9.37269H20.1957ZM18.5965 13.2869C19.6888 11.9535 20.1957 10.741 20.1957 9.37269H19.6957C19.6957 10.5947 19.251 11.6989 18.2097 12.97L18.5965 13.2869ZM14.2305 17.4255C15.9982 15.9013 17.5494 14.565 18.5965 13.2869L18.2097 12.97C17.1962 14.2072 15.6837 15.5123 13.904 17.0468L14.2305 17.4255ZM14.2256 17.4296L14.2304 17.4255L13.904 17.0468L13.8992 17.0509L14.2256 17.4296ZM12.1637 19.2209C12.8995 18.5728 13.6035 17.9658 14.2256 17.4297L13.8992 17.0509C13.2772 17.587 12.5713 18.1956 11.8332 18.8458L12.1637 19.2209ZM9.77806 17.4327C10.399 17.968 11.1017 18.5739 11.8329 19.2206L12.1641 18.8461C11.4303 18.197 10.7253 17.5892 10.1045 17.054L9.77806 17.4327ZM9.77685 17.4317L9.78015 17.4345L10.1025 17.0522L10.0992 17.0494L9.77685 17.4317ZM9.77373 17.429L9.77478 17.4299L10.1012 17.0512L10.1002 17.0503L9.77373 17.429ZM5.40364 13.2869C6.45145 14.5659 8.00421 15.9035 9.77371 17.429L10.1002 17.0503C8.31871 15.5145 6.80461 14.208 5.79042 12.97L5.40364 13.2869ZM3.80428 9.37269C3.80428 10.741 4.31125 11.9535 5.40365 13.2869L5.79042 12.97C4.74899 11.6989 4.30428 10.5947 4.30428 9.37269H3.80428ZM5.01825 6.04035C4.23057 6.90468 3.80428 8.09068 3.80428 9.37269H4.30428C4.30428 8.19968 4.69399 7.13847 5.38781 6.37713L5.01825 6.04035Z" fill="white"/>
</svg>
