<svg width="18" height="18" viewBox="0 0 18 18" fill="none" xmlns="http://www.w3.org/2000/svg">
<path fill-rule="evenodd" clip-rule="evenodd" d="M8.30415 16.8354C8.49669 17.006 8.74374 17.0999 9 17.0999C9.25612 17.0999 9.50331 17.006 9.69571 16.8357C10.4245 16.1909 11.1267 15.5855 11.7463 15.0515L11.7466 15.0513C13.5596 13.4882 15.1253 12.1384 16.2149 10.8084C17.4328 9.32179 18 7.91214 18 6.37219C18 4.876 17.493 3.49566 16.5722 2.48528C15.6404 1.46295 14.3617 0.899902 12.9717 0.899902C11.9327 0.899902 10.9811 1.2322 10.1435 1.8875C9.7207 2.21827 9.33769 2.62309 9 3.09529C8.66245 2.62309 8.2793 2.21827 7.8566 1.8875C7.01903 1.2322 6.06747 0.899902 5.02844 0.899902C3.63826 0.899902 2.35973 1.46295 1.42795 2.48528C0.507156 3.49566 0 4.876 0 6.37219C0 7.91214 0.567307 9.32179 1.78528 10.8085C2.87485 12.1384 4.44081 13.4885 6.25424 15.0518L6.2574 15.0546C6.87593 15.5877 7.577 16.1922 8.30415 16.8354ZM2.20303 3.20825C2.93294 2.4075 3.93626 1.96656 5.02844 1.96656C5.82838 1.96656 6.56296 2.22385 7.21156 2.73119C7.78972 3.18352 8.19237 3.75533 8.4283 4.15542C8.5497 4.36117 8.76338 4.48397 9 4.48397C9.23662 4.48397 9.4503 4.36117 9.5717 4.15542C9.80777 3.75533 10.2104 3.18352 10.7884 2.73119C11.437 2.22385 12.1716 1.96656 12.9717 1.96656C14.0637 1.96656 15.0672 2.4075 15.797 3.20825C16.5377 4.02109 16.9457 5.14469 16.9457 6.37221C16.9457 7.66738 16.4699 8.82571 15.4031 10.128C14.3728 11.3856 12.841 12.7063 11.0672 14.2356L11.0624 14.2398C10.4403 14.7759 9.7354 15.3837 8.99849 16.0329C8.26598 15.3849 7.56216 14.7781 6.9413 14.2428L6.938 14.2401L6.93695 14.2392C5.16146 12.7085 3.62803 11.3865 2.59703 10.128C1.53012 8.82571 1.05428 7.66738 1.05428 6.37221C1.05428 5.14469 1.46228 4.02109 2.20303 3.20825Z" fill="#007FA4"/>
</svg>
