<svg width="16" height="16" viewBox="0 0 16 16" fill="none" xmlns="http://www.w3.org/2000/svg">
<path d="M8 5.6C6.6 5.6 5.5 6.7 5.5 8.1C5.5 9.5 6.6 10.6 8 10.6C9.4 10.6 10.5 9.5 10.5 8.1C10.5 6.7 9.4 5.6 8 5.6ZM11.6 0H4.4C2 0 0 2 0 4.4V11.6C0 14 2 16 4.4 16H11.6C14 16 16 14 16 11.6V4.4C16 2 14 0 11.6 0ZM8 12.1C5.8 12.1 4 10.3 4 8.1C4 5.9 5.8 4.1 8 4.1C10.2 4.1 12 5.9 12 8.1C12 10.3 10.2 12.1 8 12.1ZM13.7 4.4C13.5 4.6 13.3 4.7 13 4.7C12.7 4.7 12.5 4.6 12.3 4.4C12.1 4.2 12 4 12 3.7C12 3.4 12.1 3.2 12.3 3C12.5 2.8 12.7 2.7 13 2.7C13.3 2.7 13.5 2.8 13.7 3C13.9 3.2 14 3.5 14 3.7C14 4 13.9 4.2 13.7 4.4Z" fill="white"/>
</svg>
