<svg width="64" height="64" viewBox="0 0 64 64" fill="none" xmlns="http://www.w3.org/2000/svg">
<path d="M32.2618 19.6784C32.2263 19.7937 32.12 19.8722 31.9996 19.8722C31.8793 19.8722 31.7728 19.7937 31.7374 19.6784L31.7363 19.675C31.658 19.4264 29.9817 14.3815 23.6586 14.3815C20.6204 14.3815 17.5856 15.4323 14.99 16.331L14.9527 16.344C12.9553 17.0355 11.1313 17.6642 9.50084 17.8195L9.04826 17.8626V18.3172V47.9439V48.5041L9.60486 48.4407C11.1474 48.2649 12.9366 47.6452 14.7378 47.0213L14.7733 47.009C14.7733 47.009 14.7733 47.009 14.7733 47.009C17.521 46.0575 20.5417 45.0163 23.6586 45.0163C27.2115 45.0163 29.3536 46.5661 30.5269 47.8508C30.6291 47.9628 30.6211 48.1362 30.5094 48.2382C30.3975 48.3404 30.224 48.3324 30.1221 48.2207L30.122 48.2207C28.5037 46.4486 26.3119 45.5648 23.6586 45.5648C20.6204 45.5648 17.5856 46.6156 14.99 47.5143L14.9527 47.5273L15.1163 47.9997L14.9527 47.5273C12.6407 48.3279 10.5693 49.0389 8.77408 49.0389C8.62256 49.0389 8.49989 48.9162 8.49989 48.7647V17.5814C8.49989 17.4299 8.62256 17.3073 8.77408 17.3073C10.4949 17.3073 12.5978 16.5791 14.7025 15.8504L14.7735 15.8258L14.7735 15.8258C17.5212 14.8743 20.5419 13.8331 23.6588 13.8331C27.2118 13.8331 29.3539 15.3829 30.5271 16.6677L32.2618 19.6784ZM32.2618 19.6784C32.2865 19.5983 32.7152 18.2916 33.9252 16.9939C35.1547 15.6754 37.179 14.3815 40.3405 14.3815C43.3788 14.3815 46.4136 15.4323 49.0092 16.331L49.0465 16.344L48.8829 16.8164L49.0465 16.344C51.044 17.0356 52.8679 17.6642 54.4983 17.8195L54.9509 17.8626V18.3172V47.9439V48.5041L54.3943 48.4407C52.8522 48.265 51.0636 47.6456 49.263 47.0219L49.2259 47.0091C46.4782 46.0576 43.4574 45.0164 40.3405 45.0164C36.7875 45.0164 34.6453 46.5662 33.4723 47.8509C33.37 47.9629 33.378 48.1363 33.4896 48.2383M32.2618 19.6784L33.4896 48.2383M49.3895 15.3533L49.2259 15.8258C46.4782 14.8743 43.4574 13.8331 40.3405 13.8331C36.7876 13.8331 34.6454 15.3829 33.4722 16.6677L49.3895 15.3533ZM49.3895 15.3533L49.2259 15.8258L49.2962 15.8501C51.4009 16.579 53.5041 17.3073 55.2251 17.3073C55.3766 17.3073 55.4993 17.43 55.4993 17.5814V48.7648C55.4993 48.9164 55.3766 49.039 55.2251 49.039C53.43 49.039 51.3586 48.328 49.0465 47.5274L48.8829 47.9998M49.3895 15.3533L48.8829 47.9998M48.8829 47.9998L49.0465 47.5274L49.0092 47.5144C46.4136 46.6157 43.3788 45.5649 40.3405 45.5649C37.6871 45.5649 35.4954 46.4487 33.877 48.2209L33.877 48.2209C33.7751 48.3325 33.6017 48.3406 33.4896 48.2383M48.8829 47.9998L33.4896 48.2383M31.9997 18.7773L31.5716 18.0678C31.3117 17.637 30.9689 17.1516 30.5272 16.6677L31.9997 18.7773ZM31.9997 18.7773L32.4278 18.0678M31.9997 18.7773L32.4278 18.0678M32.4278 18.0678C32.6877 17.637 33.0305 17.1516 33.4722 16.6677L32.4278 18.0678ZM49.3895 49.6333L49.2259 50.1058C46.4782 49.1543 43.4574 48.1131 40.3405 48.1131C37.0019 48.1131 34.911 49.4811 33.6982 50.7097L33.5513 50.8585L33.3423 50.8585L30.6567 50.8584L30.4477 50.8584L30.3009 50.7096C29.0881 49.481 26.997 48.1131 23.6586 48.1131C20.5417 48.1131 17.521 49.1543 14.7733 50.1058L14.6097 49.6333L14.7733 50.1058L14.703 50.1301C12.5983 50.8589 10.495 51.5872 8.77408 51.5872C8.62256 51.5872 8.49989 51.7099 8.49989 51.8614C8.49989 52.0129 8.62256 52.1356 8.77408 52.1356C10.5693 52.1356 12.6407 51.4245 14.9527 50.6239L15.1163 51.0964L14.9527 50.6239L14.9901 50.611C17.5856 49.7123 20.6204 48.6615 23.6586 48.6615C26.3119 48.6615 28.5037 49.5453 30.122 51.3174C30.1739 51.3742 30.2474 51.4066 30.3245 51.4066L33.6745 51.4067C33.7514 51.4067 33.8249 51.3744 33.8769 51.3175C33.877 51.3175 33.877 51.3174 33.8771 51.3174L49.3895 49.6333ZM49.3895 49.6333L49.2259 50.1058L49.2962 50.1301C51.4009 50.8589 53.5041 51.5872 55.2251 51.5872C55.3765 51.5872 55.4992 51.7098 55.4992 51.8614C55.4992 52.0129 55.3765 52.1356 55.225 52.1356C53.4298 52.1356 51.3585 51.4245 49.0464 50.6239L48.8828 51.0964L49.3895 49.6333ZM32.2738 22.6228V45.74C32.2738 45.8916 32.1511 46.0142 31.9996 46.0142C31.8481 46.0142 31.7254 45.8916 31.7254 45.74V22.6228C31.7254 22.4713 31.8481 22.3486 31.9996 22.3486C32.1511 22.3486 32.2738 22.4713 32.2738 22.6228Z" fill="white" stroke="white"/>
</svg>
