<svg width="38" height="38" viewBox="0 0 38 38" fill="none" xmlns="http://www.w3.org/2000/svg">
<path d="M18.8879 0.546875C8.61768 0.546875 0.331482 8.78689 0.331482 18.9999C0.331482 29.2128 8.61768 37.4529 18.8879 37.4529C29.1581 37.4529 37.4443 29.2128 37.4443 18.9999C37.4443 8.78689 29.1581 0.546875 18.8879 0.546875ZM11.4187 11.2241C12.7024 11.2241 13.8695 12.2686 13.8695 13.5452C13.8695 14.8218 12.8191 15.9824 11.5354 15.9824C10.2516 15.9824 9.08451 14.9379 9.08451 13.6613C8.9678 12.2686 10.1349 11.2241 11.4187 11.2241ZM30.4419 17.9554C30.0918 18.0714 29.7417 18.1875 29.3915 18.1875H26.4739V21.5531C26.4739 26.3114 22.8559 30.4895 18.071 30.7216C12.9358 30.9537 9.31793 27.1238 9.20122 21.5531V19.9283C9.20122 18.6517 10.1349 17.4911 11.5354 17.4911C12.9358 17.4911 13.9862 18.5356 13.9862 19.8123V21.4371C14.1029 23.8742 15.7368 25.9633 17.6041 25.8472C19.5881 25.8472 21.222 23.9903 21.222 20.5086L20.9886 8.90295C20.9886 7.51027 22.039 6.46576 23.4395 6.23365C23.5562 6.23365 24.84 6.00153 25.6569 6.81393C26.3572 7.51027 31.1421 13.6613 31.1421 13.6613C31.1421 13.6613 31.8424 14.4737 31.8424 15.6342C31.8424 16.7948 31.3756 17.6072 30.4419 17.9554Z" fill="#861F21"/>
</svg>
