<svg width="49" height="48" viewBox="0 0 49 48" fill="none" xmlns="http://www.w3.org/2000/svg">
<mask id="path-1-inside-1_6875_15948" fill="white">
<path d="M27.521 20.9574C27.1446 20.5809 26.5343 20.5805 26.1574 20.957L21.4349 25.6772C21.0585 26.0537 21.0581 26.6644 21.4346 27.0413C21.6228 27.2295 21.8697 27.3236 22.1166 27.3236C22.3631 27.3236 22.61 27.2295 22.7982 27.0413L27.5207 22.321C27.8975 21.9445 27.8975 21.3339 27.521 20.9574Z"/>
<path d="M45.2633 28.5589C43.7293 27.4892 41.8357 26.8505 40.1972 26.8505C39.6646 26.8505 39.2328 27.2823 39.2328 27.8149V38.1439C38.283 37.4368 37.0553 37.0088 35.7156 37.0088C32.7112 37.0088 30.267 39.1531 30.267 41.7888C30.267 44.4246 32.7112 46.5688 35.7156 46.5688C38.7181 46.5688 41.1612 44.4246 41.1612 41.7888V28.8711C43.5037 29.2991 46.104 31.152 46.104 33.0416V36.7324C46.104 37.265 46.5358 37.6968 47.068 37.6968C47.6006 37.6968 48.0323 37.265 48.0323 36.7324V33.0416C48.0323 31.3963 47.0489 29.8041 45.2633 28.5589ZM35.7156 44.6404C33.7749 44.6404 32.1958 43.3612 32.1958 41.7888C32.1958 40.2164 33.7749 38.9372 35.7156 38.9372C37.6552 38.9372 39.2328 40.2164 39.2328 41.7888C39.2328 43.3612 37.6552 44.6404 35.7156 44.6404Z"/>
<path d="M4.29701 21.5918C6.60221 21.5918 8.47752 19.9312 8.47752 17.8897C8.47752 17.8329 8.47528 17.7765 8.47229 17.7201C8.47565 17.6888 8.47752 17.6566 8.47752 17.6242V9.50627C8.56977 9.49582 8.66277 9.47901 8.7554 9.45398L19.1964 6.67594V9.98733C18.5462 9.61757 17.7734 9.40207 16.9446 9.40207C14.6394 9.40207 12.7645 11.0619 12.7645 13.1015C12.7645 15.143 14.6394 16.804 16.9446 16.804C19.2498 16.804 21.1248 15.143 21.1248 13.1015V1.79812C21.1248 1.20949 20.8764 0.680623 20.4428 0.347467C20.0181 0.0217804 19.4612 -0.0809303 18.9159 0.0643587L8.25978 2.89693C8.2594 2.89731 8.26015 2.89693 8.25978 2.89693C7.28496 3.15763 6.5488 4.13133 6.5488 5.16142V14.7729C5.89818 14.4031 5.12579 14.1873 4.29701 14.1873C1.99181 14.1873 0.116496 15.8482 0.116496 17.8897C0.116496 19.9312 1.99181 21.5918 4.29701 21.5918ZM16.9446 14.8752C15.7031 14.8752 14.6928 14.0797 14.6928 13.1019C14.6928 12.1252 15.7031 11.3308 16.9446 11.3308C18.1865 11.3308 19.1964 12.1252 19.1964 13.1019C19.1964 14.0797 18.1865 14.8752 16.9446 14.8752ZM8.47715 5.16142C8.47715 5.00007 8.63887 4.79241 8.75577 4.76067L19.1964 1.98561V4.35729C19.1964 4.51304 19.031 4.72444 18.9155 4.75506L8.47715 7.53236V5.16142ZM4.29701 16.116C5.51759 16.116 6.5488 16.9283 6.5488 17.8897C6.5488 18.8511 5.51759 19.6634 4.29701 19.6634C3.07643 19.6634 2.04522 18.8511 2.04522 17.8897C2.04522 16.9283 3.07643 16.116 4.29701 16.116Z"/>
<path d="M36.5791 22.3702C36.9605 22.4094 37.3426 22.4289 37.7239 22.4289C39.6851 22.4289 41.6243 21.9142 43.3207 20.9401C43.6606 21.0544 44.015 21.1123 44.3698 21.1123C45.2072 21.1123 46.0442 20.7941 46.6814 20.1573C47.2973 19.5436 47.6368 18.7238 47.6375 17.8491C47.6379 17.486 47.5789 17.1327 47.4669 16.7992C48.6303 14.773 49.1371 12.4006 48.8962 10.0595C48.6333 7.50705 47.4874 5.10026 45.6689 3.28284C43.8499 1.46617 41.4428 0.321409 38.8903 0.0592168C36.5489 -0.181687 34.1742 0.325517 32.1465 1.48895C31.0062 1.10575 29.6953 1.36682 28.7888 2.27291C28.1726 2.88843 27.8334 3.70937 27.8334 4.58409C27.8334 4.94526 27.8924 5.29746 28.0037 5.62987C26.8399 7.6557 26.3327 10.0281 26.574 12.3696C26.6091 12.7098 26.661 13.0475 26.7268 13.3817L5.46713 35.7555C4.03366 37.2655 4.04076 39.5812 5.48506 41.0281L6.32654 41.8685C5.32894 45.8622 1.12265 46.0643 0.932919 46.0714C0.402184 46.0886 -0.0150078 46.5319 0.000305424 47.063C0.0156186 47.5859 0.444016 47.9993 0.963545 47.9993C0.973256 47.9993 0.982593 47.9993 0.992304 47.999C1.05655 47.9971 2.58675 47.9441 4.23908 47.162C5.49701 46.5662 7.02236 45.4495 7.85562 43.3953L7.90866 43.4483C8.63398 44.1751 9.57929 44.5389 10.5321 44.5389C11.477 44.5389 12.429 44.1815 13.182 43.4655L21.4026 35.639C21.7881 35.2718 21.8034 34.6615 21.4358 34.2757C21.0687 33.8899 20.4584 33.8749 20.0726 34.2421L11.8527 42.0683C11.1054 42.7787 9.97258 42.7861 9.27228 42.0847L6.84868 39.6648C6.14913 38.9638 6.1566 37.8299 6.86512 37.0836L27.3707 15.5039C27.9316 16.8563 28.7545 18.0993 29.8021 19.1462C30.8479 20.1916 32.0901 21.0133 33.4422 21.5736L27.544 27.173C27.5384 27.1782 27.5331 27.1834 27.5275 27.1887L26.3708 28.3398C25.9932 28.7151 25.9917 29.3258 26.3671 29.7034C26.5557 29.8928 26.8033 29.9876 27.0509 29.9876C27.2967 29.9876 27.5428 29.8942 27.7311 29.7068L28.8796 28.5639L35.5655 22.2171C35.9001 22.2832 36.2381 22.3351 36.5791 22.3702ZM44.3056 4.64684C47.0515 7.39127 47.7608 11.5875 46.1973 15.0498L33.8971 2.75808C37.3609 1.19538 41.5589 1.9039 44.3056 4.64684ZM30.1521 3.63691C30.4135 3.37547 30.7568 3.24512 31.1 3.24512C31.4436 3.24512 31.7868 3.37547 32.0483 3.63691L45.3193 16.8985C45.571 17.1503 45.7096 17.4872 45.7092 17.8476C45.7088 18.2065 45.5706 18.5415 45.3189 18.7922C44.7956 19.3154 43.9437 19.3154 43.42 18.7922L30.1521 5.5309C29.9003 5.27916 29.7618 4.94302 29.7618 4.58372C29.7618 4.22442 29.9003 3.88827 30.1521 3.63691ZM29.2732 7.37894L41.5713 19.6714C38.1082 21.2352 33.9113 20.5267 31.1654 17.7822C28.4179 15.0363 27.7087 10.8405 29.2732 7.37894Z"/>
<path d="M24.5117 31.2258C24.1027 30.8851 23.4946 30.94 23.1536 31.3494L23.1402 31.3655C22.7992 31.7748 22.8545 32.3829 23.2635 32.7235C23.4439 32.874 23.6627 32.9472 23.8805 32.9472C24.1565 32.9472 24.431 32.8288 24.6215 32.6002L24.6353 32.5838C24.9759 32.1748 24.9207 31.5668 24.5117 31.2258Z"/>
</mask>
<path d="M27.521 20.9574C27.1446 20.5809 26.5343 20.5805 26.1574 20.957L21.4349 25.6772C21.0585 26.0537 21.0581 26.6644 21.4346 27.0413C21.6228 27.2295 21.8697 27.3236 22.1166 27.3236C22.3631 27.3236 22.61 27.2295 22.7982 27.0413L27.5207 22.321C27.8975 21.9445 27.8975 21.3339 27.521 20.9574Z" fill="white"/>
<path d="M45.2633 28.5589C43.7293 27.4892 41.8357 26.8505 40.1972 26.8505C39.6646 26.8505 39.2328 27.2823 39.2328 27.8149V38.1439C38.283 37.4368 37.0553 37.0088 35.7156 37.0088C32.7112 37.0088 30.267 39.1531 30.267 41.7888C30.267 44.4246 32.7112 46.5688 35.7156 46.5688C38.7181 46.5688 41.1612 44.4246 41.1612 41.7888V28.8711C43.5037 29.2991 46.104 31.152 46.104 33.0416V36.7324C46.104 37.265 46.5358 37.6968 47.068 37.6968C47.6006 37.6968 48.0323 37.265 48.0323 36.7324V33.0416C48.0323 31.3963 47.0489 29.8041 45.2633 28.5589ZM35.7156 44.6404C33.7749 44.6404 32.1958 43.3612 32.1958 41.7888C32.1958 40.2164 33.7749 38.9372 35.7156 38.9372C37.6552 38.9372 39.2328 40.2164 39.2328 41.7888C39.2328 43.3612 37.6552 44.6404 35.7156 44.6404Z" fill="white"/>
<path d="M4.29701 21.5918C6.60221 21.5918 8.47752 19.9312 8.47752 17.8897C8.47752 17.8329 8.47528 17.7765 8.47229 17.7201C8.47565 17.6888 8.47752 17.6566 8.47752 17.6242V9.50627C8.56977 9.49582 8.66277 9.47901 8.7554 9.45398L19.1964 6.67594V9.98733C18.5462 9.61757 17.7734 9.40207 16.9446 9.40207C14.6394 9.40207 12.7645 11.0619 12.7645 13.1015C12.7645 15.143 14.6394 16.804 16.9446 16.804C19.2498 16.804 21.1248 15.143 21.1248 13.1015V1.79812C21.1248 1.20949 20.8764 0.680623 20.4428 0.347467C20.0181 0.0217804 19.4612 -0.0809303 18.9159 0.0643587L8.25978 2.89693C8.2594 2.89731 8.26015 2.89693 8.25978 2.89693C7.28496 3.15763 6.5488 4.13133 6.5488 5.16142V14.7729C5.89818 14.4031 5.12579 14.1873 4.29701 14.1873C1.99181 14.1873 0.116496 15.8482 0.116496 17.8897C0.116496 19.9312 1.99181 21.5918 4.29701 21.5918ZM16.9446 14.8752C15.7031 14.8752 14.6928 14.0797 14.6928 13.1019C14.6928 12.1252 15.7031 11.3308 16.9446 11.3308C18.1865 11.3308 19.1964 12.1252 19.1964 13.1019C19.1964 14.0797 18.1865 14.8752 16.9446 14.8752ZM8.47715 5.16142C8.47715 5.00007 8.63887 4.79241 8.75577 4.76067L19.1964 1.98561V4.35729C19.1964 4.51304 19.031 4.72444 18.9155 4.75506L8.47715 7.53236V5.16142ZM4.29701 16.116C5.51759 16.116 6.5488 16.9283 6.5488 17.8897C6.5488 18.8511 5.51759 19.6634 4.29701 19.6634C3.07643 19.6634 2.04522 18.8511 2.04522 17.8897C2.04522 16.9283 3.07643 16.116 4.29701 16.116Z" fill="white"/>
<path d="M36.5791 22.3702C36.9605 22.4094 37.3426 22.4289 37.7239 22.4289C39.6851 22.4289 41.6243 21.9142 43.3207 20.9401C43.6606 21.0544 44.015 21.1123 44.3698 21.1123C45.2072 21.1123 46.0442 20.7941 46.6814 20.1573C47.2973 19.5436 47.6368 18.7238 47.6375 17.8491C47.6379 17.486 47.5789 17.1327 47.4669 16.7992C48.6303 14.773 49.1371 12.4006 48.8962 10.0595C48.6333 7.50705 47.4874 5.10026 45.6689 3.28284C43.8499 1.46617 41.4428 0.321409 38.8903 0.0592168C36.5489 -0.181687 34.1742 0.325517 32.1465 1.48895C31.0062 1.10575 29.6953 1.36682 28.7888 2.27291C28.1726 2.88843 27.8334 3.70937 27.8334 4.58409C27.8334 4.94526 27.8924 5.29746 28.0037 5.62987C26.8399 7.6557 26.3327 10.0281 26.574 12.3696C26.6091 12.7098 26.661 13.0475 26.7268 13.3817L5.46713 35.7555C4.03366 37.2655 4.04076 39.5812 5.48506 41.0281L6.32654 41.8685C5.32894 45.8622 1.12265 46.0643 0.932919 46.0714C0.402184 46.0886 -0.0150078 46.5319 0.000305424 47.063C0.0156186 47.5859 0.444016 47.9993 0.963545 47.9993C0.973256 47.9993 0.982593 47.9993 0.992304 47.999C1.05655 47.9971 2.58675 47.9441 4.23908 47.162C5.49701 46.5662 7.02236 45.4495 7.85562 43.3953L7.90866 43.4483C8.63398 44.1751 9.57929 44.5389 10.5321 44.5389C11.477 44.5389 12.429 44.1815 13.182 43.4655L21.4026 35.639C21.7881 35.2718 21.8034 34.6615 21.4358 34.2757C21.0687 33.8899 20.4584 33.8749 20.0726 34.2421L11.8527 42.0683C11.1054 42.7787 9.97258 42.7861 9.27228 42.0847L6.84868 39.6648C6.14913 38.9638 6.1566 37.8299 6.86512 37.0836L27.3707 15.5039C27.9316 16.8563 28.7545 18.0993 29.8021 19.1462C30.8479 20.1916 32.0901 21.0133 33.4422 21.5736L27.544 27.173C27.5384 27.1782 27.5331 27.1834 27.5275 27.1887L26.3708 28.3398C25.9932 28.7151 25.9917 29.3258 26.3671 29.7034C26.5557 29.8928 26.8033 29.9876 27.0509 29.9876C27.2967 29.9876 27.5428 29.8942 27.7311 29.7068L28.8796 28.5639L35.5655 22.2171C35.9001 22.2832 36.2381 22.3351 36.5791 22.3702ZM44.3056 4.64684C47.0515 7.39127 47.7608 11.5875 46.1973 15.0498L33.8971 2.75808C37.3609 1.19538 41.5589 1.9039 44.3056 4.64684ZM30.1521 3.63691C30.4135 3.37547 30.7568 3.24512 31.1 3.24512C31.4436 3.24512 31.7868 3.37547 32.0483 3.63691L45.3193 16.8985C45.571 17.1503 45.7096 17.4872 45.7092 17.8476C45.7088 18.2065 45.5706 18.5415 45.3189 18.7922C44.7956 19.3154 43.9437 19.3154 43.42 18.7922L30.1521 5.5309C29.9003 5.27916 29.7618 4.94302 29.7618 4.58372C29.7618 4.22442 29.9003 3.88827 30.1521 3.63691ZM29.2732 7.37894L41.5713 19.6714C38.1082 21.2352 33.9113 20.5267 31.1654 17.7822C28.4179 15.0363 27.7087 10.8405 29.2732 7.37894Z" fill="white"/>
<path d="M24.5117 31.2258C24.1027 30.8851 23.4946 30.94 23.1536 31.3494L23.1402 31.3655C22.7992 31.7748 22.8545 32.3829 23.2635 32.7235C23.4439 32.874 23.6627 32.9472 23.8805 32.9472C24.1565 32.9472 24.431 32.8288 24.6215 32.6002L24.6353 32.5838C24.9759 32.1748 24.9207 31.5668 24.5117 31.2258Z" fill="white"/>
<path d="M26.1574 20.957L25.4507 20.2496L25.4505 20.2497L26.1574 20.957ZM21.4349 25.6772L20.728 24.97L20.7278 24.9701L21.4349 25.6772ZM21.4346 27.0413L20.7271 27.748L20.7275 27.7484L21.4346 27.0413ZM22.7982 27.0413L22.0913 26.334L22.0911 26.3342L22.7982 27.0413ZM27.5207 22.321L26.8139 21.6136L26.8137 21.6138L27.5207 22.321ZM45.2633 28.5589L44.6913 29.3791L45.2633 28.5589ZM39.2328 38.1439L38.6357 38.946L40.2328 40.1349V38.1439H39.2328ZM41.1612 28.8711L41.3409 27.8874L40.1612 27.6718V28.8711H41.1612ZM8.47229 17.7201L7.47799 17.6136L7.46947 17.6932L7.4737 17.773L8.47229 17.7201ZM8.47752 9.50627L8.36488 8.51264L7.47753 8.61323V9.50627H8.47752ZM8.7554 9.45398L8.49828 8.4876L8.49459 8.4886L8.7554 9.45398ZM19.1964 6.67594H20.1964V5.37508L18.9393 5.70957L19.1964 6.67594ZM19.1964 9.98733L18.7021 10.8566L20.1964 11.7063V9.98733H19.1964ZM20.4428 0.347467L21.052 -0.445509L21.0513 -0.446035L20.4428 0.347467ZM18.9159 0.0643587L19.1728 1.03079L19.1734 1.03064L18.9159 0.0643587ZM8.25978 2.89693L8.00288 1.9305L8.00142 1.93089L8.25978 2.89693ZM6.5488 14.7729L6.05471 15.6423L7.5488 16.4914V14.7729H6.5488ZM8.75577 4.76067L8.4989 3.79421L8.4937 3.79562L8.75577 4.76067ZM19.1964 1.98561H20.1964V0.685101L18.9395 1.01917L19.1964 1.98561ZM18.9155 4.75506L18.6591 3.78852L18.6584 3.78869L18.9155 4.75506ZM8.47715 7.53236H7.47715V8.83321L8.73427 8.49874L8.47715 7.53236ZM36.5791 22.3702L36.4767 23.365L36.4768 23.365L36.5791 22.3702ZM43.3207 20.9401L43.6394 19.9923L43.2129 19.8489L42.8228 20.0729L43.3207 20.9401ZM46.6814 20.1573L45.9756 19.4489L45.9745 19.45L46.6814 20.1573ZM47.6375 17.8491L46.6375 17.8481V17.8482L47.6375 17.8491ZM47.4669 16.7992L46.5996 16.3013L46.3757 16.6913L46.5189 17.1176L47.4669 16.7992ZM48.8962 10.0595L49.891 9.95714L49.8909 9.95703L48.8962 10.0595ZM45.6689 3.28284L46.3757 2.57552L46.3755 2.5753L45.6689 3.28284ZM38.8903 0.0592168L38.788 1.05396L38.7881 1.05398L38.8903 0.0592168ZM32.1465 1.48895L31.828 2.43685L32.2542 2.58009L32.6442 2.35631L32.1465 1.48895ZM28.7888 2.27291L29.4955 2.98044L29.4958 2.98016L28.7888 2.27291ZM28.0037 5.62987L28.8708 6.128L29.0946 5.73842L28.952 5.31237L28.0037 5.62987ZM26.574 12.3696L25.5793 12.4721L25.5793 12.4722L26.574 12.3696ZM26.7268 13.3817L27.4517 14.0706L27.8077 13.6959L27.708 13.1888L26.7268 13.3817ZM5.46713 35.7555L4.74221 35.0667L4.74188 35.067L5.46713 35.7555ZM5.48506 41.0281L4.77732 41.7346L4.77843 41.7357L5.48506 41.0281ZM6.32654 41.8685L7.29672 42.1108L7.43401 41.5612L7.03317 41.1609L6.32654 41.8685ZM0.932919 46.0714L0.965274 47.0709L0.970294 47.0707L0.932919 46.0714ZM0.000305424 47.063L-0.999275 47.0918L-0.999261 47.0923L0.000305424 47.063ZM0.992304 47.999L0.963246 46.9994L0.953874 46.9997L0.992304 47.999ZM4.23908 47.162L4.6669 48.0658L4.66709 48.0657L4.23908 47.162ZM7.85562 43.3953L8.56275 42.6882L7.49603 41.6214L6.92896 43.0194L7.85562 43.3953ZM7.90866 43.4483L8.61649 42.742L8.61578 42.7412L7.90866 43.4483ZM13.182 43.4655L13.8711 44.1902L13.8715 44.1898L13.182 43.4655ZM21.4026 35.639L22.0921 36.3632L22.0923 36.363L21.4026 35.639ZM21.4358 34.2757L20.7114 34.9651L20.7118 34.9654L21.4358 34.2757ZM20.0726 34.2421L19.3832 33.5177L19.383 33.5179L20.0726 34.2421ZM11.8527 42.0683L12.5417 42.7931L12.5423 42.7925L11.8527 42.0683ZM9.27228 42.0847L9.97995 41.3782L9.97884 41.3771L9.27228 42.0847ZM6.84868 39.6648L6.14082 40.3712L6.14213 40.3725L6.84868 39.6648ZM6.86512 37.0836L6.1402 36.3948L6.13992 36.3951L6.86512 37.0836ZM27.3707 15.5039L28.2943 15.1208L27.7051 13.7002L26.6457 14.8151L27.3707 15.5039ZM29.8021 19.1462L30.5091 18.439L30.509 18.4389L29.8021 19.1462ZM33.4422 21.5736L34.1307 22.2988L35.247 21.239L33.825 20.6497L33.4422 21.5736ZM27.544 27.173L28.2263 27.9041L28.2325 27.8982L27.544 27.173ZM27.5275 27.1887L26.8452 26.4576L26.8335 26.4685L26.8221 26.4798L27.5275 27.1887ZM26.3708 28.3398L27.0758 29.049L27.0762 29.0486L26.3708 28.3398ZM26.3671 29.7034L25.6579 30.4084L25.6586 30.4091L26.3671 29.7034ZM27.7311 29.7068L27.0257 28.9979L27.0254 28.9982L27.7311 29.7068ZM28.8796 28.5639L28.1911 27.8386L28.1826 27.8467L28.1742 27.855L28.8796 28.5639ZM35.5655 22.2171L35.7593 21.2361L35.252 21.1358L34.877 21.4918L35.5655 22.2171ZM44.3056 4.64684L45.0125 3.93954L45.0122 3.93925L44.3056 4.64684ZM46.1973 15.0498L45.4905 15.7571L46.5135 16.7794L47.1087 15.4613L46.1973 15.0498ZM33.8971 2.75808L33.4858 1.84656L32.1661 2.44198L33.1902 3.46543L33.8971 2.75808ZM30.1521 3.63691L30.8586 4.34454L30.8592 4.34401L30.1521 3.63691ZM32.0483 3.63691L31.3412 4.34401L31.3414 4.34426L32.0483 3.63691ZM45.3193 16.8985L46.0264 16.1914L46.0261 16.1912L45.3193 16.8985ZM45.7092 17.8476L46.7092 17.8486V17.8486L45.7092 17.8476ZM45.3189 18.7922L44.6134 18.0835L44.6118 18.0851L45.3189 18.7922ZM43.42 18.7922L42.7131 19.4994L42.7132 19.4995L43.42 18.7922ZM30.1521 5.5309L29.445 6.238L29.4451 6.23818L30.1521 5.5309ZM29.2732 7.37894L29.9802 6.67168L28.9575 5.64949L28.362 6.96708L29.2732 7.37894ZM41.5713 19.6714L41.9828 20.5827L43.3017 19.9872L42.2782 18.9641L41.5713 19.6714ZM31.1654 17.7822L30.4584 18.4895L31.1654 17.7822ZM24.5117 31.2258L25.1521 30.4577L25.1517 30.4574L24.5117 31.2258ZM23.1536 31.3494L23.9204 31.9913L23.922 31.9894L23.1536 31.3494ZM23.1402 31.3655L22.3734 30.7235L22.3719 30.7254L23.1402 31.3655ZM23.2635 32.7235L23.9041 31.9557L23.9034 31.9551L23.2635 32.7235ZM24.6215 32.6002L23.8561 31.9567L23.8533 31.9601L24.6215 32.6002ZM24.6353 32.5838L25.4007 33.2274L25.4037 33.2238L24.6353 32.5838ZM28.2281 20.2503C27.4615 19.4836 26.2183 19.4827 25.4507 20.2496L26.8642 21.6645C26.8503 21.6784 26.8277 21.6782 26.8139 21.6645L28.2281 20.2503ZM25.4505 20.2497L20.728 24.97L22.1419 26.3845L26.8644 21.6643L25.4505 20.2497ZM20.7278 24.9701C19.9611 25.7368 19.9603 26.9804 20.7271 27.748L22.142 26.3345C22.1442 26.3367 22.1474 26.3411 22.1497 26.3467C22.1518 26.3517 22.1524 26.356 22.1524 26.3595C22.1524 26.3629 22.1518 26.3672 22.1497 26.3722C22.1475 26.3778 22.1442 26.3822 22.142 26.3844L20.7278 24.9701ZM20.7275 27.7484C21.111 28.1318 21.6156 28.3236 22.1166 28.3236V26.3236C22.12 26.3236 22.1242 26.3242 22.1292 26.3263C22.1349 26.3286 22.1394 26.3318 22.1417 26.3342L20.7275 27.7484ZM22.1166 28.3236C22.6174 28.3236 23.122 28.1317 23.5053 27.7484L22.0911 26.3342C22.0934 26.3319 22.0978 26.3286 22.1035 26.3263C22.1084 26.3243 22.1128 26.3236 22.1166 26.3236V28.3236ZM23.5051 27.7485L28.2276 23.0283L26.8137 21.6138L22.0913 26.334L23.5051 27.7485ZM28.2274 23.0285C28.9952 22.2614 28.9952 21.0174 28.2281 20.2503L26.8139 21.6645C26.7998 21.6504 26.7998 21.6276 26.8139 21.6136L28.2274 23.0285ZM45.8353 27.7386C44.1581 26.5691 42.0683 25.8505 40.1972 25.8505V27.8505C41.603 27.8505 43.3005 28.4093 44.6913 29.3791L45.8353 27.7386ZM40.1972 25.8505C39.1123 25.8505 38.2328 26.73 38.2328 27.8149H40.2328C40.2328 27.8345 40.2168 27.8505 40.1972 27.8505V25.8505ZM38.2328 27.8149V38.1439H40.2328V27.8149H38.2328ZM39.8299 37.3417C38.7056 36.5048 37.268 36.0088 35.7156 36.0088V38.0088C36.8426 38.0088 37.8604 38.3689 38.6357 38.946L39.8299 37.3417ZM35.7156 36.0088C32.2859 36.0088 29.2671 38.4818 29.2671 41.7888H31.267C31.267 39.8243 33.1365 38.0088 35.7156 38.0088V36.0088ZM29.2671 41.7888C29.2671 45.0958 32.2859 47.5688 35.7156 47.5688V45.5688C33.1365 45.5688 31.267 43.7533 31.267 41.7888H29.2671ZM35.7156 47.5688C39.1439 47.5688 42.1612 45.0954 42.1612 41.7888H40.1612C40.1612 43.7538 38.2923 45.5688 35.7156 45.5688V47.5688ZM42.1612 41.7888V28.8711H40.1612V41.7888H42.1612ZM40.9814 29.8548C41.9855 30.0383 43.0695 30.5368 43.887 31.1897C44.7375 31.8688 45.104 32.5477 45.104 33.0416H47.104C47.104 31.6459 46.1704 30.4536 45.135 29.6268C44.0668 28.7739 42.6794 28.132 41.3409 27.8874L40.9814 29.8548ZM45.104 33.0416V36.7324H47.104V33.0416H45.104ZM45.104 36.7324C45.104 37.8171 45.9832 38.6968 47.068 38.6968V36.6968C47.0713 36.6968 47.0768 36.6977 47.0825 36.7001C47.0876 36.7022 47.0911 36.7048 47.0936 36.7073C47.0961 36.7098 47.0987 36.7133 47.1008 36.7183C47.1032 36.7239 47.104 36.7294 47.104 36.7324H45.104ZM47.068 38.6968C48.1529 38.6968 49.0323 37.8173 49.0323 36.7324H47.0324C47.0324 36.7128 47.0483 36.6968 47.068 36.6968V38.6968ZM49.0323 36.7324V33.0416H47.0324V36.7324H49.0323ZM49.0323 33.0416C49.0323 30.9681 47.7937 29.1043 45.8353 27.7386L44.6913 29.3791C46.3042 30.5039 47.0324 31.8245 47.0324 33.0416H49.0323ZM35.7156 43.6405C34.1202 43.6405 33.1958 42.6225 33.1958 41.7888H31.1958C31.1958 44.0999 33.4296 45.6404 35.7156 45.6404V43.6405ZM33.1958 41.7888C33.1958 40.9551 34.1202 39.9372 35.7156 39.9372V37.9372C33.4296 37.9372 31.1958 39.4777 31.1958 41.7888H33.1958ZM35.7156 39.9372C37.309 39.9372 38.2328 40.9544 38.2328 41.7888H40.2328C40.2328 39.4784 38.0013 37.9372 35.7156 37.9372V39.9372ZM38.2328 41.7888C38.2328 42.6232 37.309 43.6405 35.7156 43.6405V45.6404C38.0013 45.6404 40.2328 44.0993 40.2328 41.7888H38.2328ZM4.29701 22.5918C7.03676 22.5918 9.47752 20.5943 9.47752 17.8897H7.47753C7.47753 19.2681 6.16766 20.5918 4.29701 20.5918V22.5918ZM9.47752 17.8897C9.47752 17.8076 9.47429 17.7314 9.47089 17.6672L7.4737 17.773C7.47627 17.8217 7.47753 17.8583 7.47753 17.8897H9.47752ZM9.4666 17.8267C9.47346 17.7626 9.47752 17.6948 9.47752 17.6242H7.47753C7.47753 17.6185 7.47784 17.615 7.47799 17.6136L9.4666 17.8267ZM9.47752 17.6242V9.50627H7.47753V17.6242H9.47752ZM8.59016 10.4999C8.72674 10.4844 8.86973 10.4589 9.01621 10.4194L8.49459 8.4886C8.45582 8.49907 8.41281 8.50721 8.36488 8.51264L8.59016 10.4999ZM9.01252 10.4204L19.4535 7.64231L18.9393 5.70957L8.49828 8.48761L9.01252 10.4204ZM18.1964 6.67594V9.98733H20.1964V6.67594H18.1964ZM19.6907 9.11805C18.8902 8.66283 17.9471 8.40207 16.9446 8.40207V10.4021C17.5997 10.4021 18.2022 10.5723 18.7021 10.8566L19.6907 9.11805ZM16.9446 8.40207C14.2054 8.40207 11.7645 10.3984 11.7645 13.1015H13.7645C13.7645 11.7254 15.0735 10.4021 16.9446 10.4021V8.40207ZM11.7645 13.1015C11.7645 15.8059 14.2046 17.804 16.9446 17.804V15.804C15.0742 15.804 13.7645 14.4802 13.7645 13.1015H11.7645ZM16.9446 17.804C19.6846 17.804 22.1248 15.8059 22.1248 13.1015H20.1248C20.1248 14.4802 18.815 15.804 16.9446 15.804V17.804ZM22.1248 13.1015V1.79812H20.1248V13.1015H22.1248ZM22.1248 1.79812C22.1248 0.926802 21.7534 0.0933461 21.052 -0.445509L19.8335 1.14044C19.9994 1.2679 20.1248 1.49218 20.1248 1.79812H22.1248ZM21.0513 -0.446035C20.3643 -0.972905 19.4834 -1.12173 18.6585 -0.901927L19.1734 1.03064C19.439 0.959874 19.6719 1.01647 19.8342 1.14097L21.0513 -0.446035ZM18.659 -0.902076L8.00288 1.9305L8.51667 3.86337L19.1728 1.03079L18.659 -0.902076ZM7.55267 2.18983C7.53434 2.20816 7.47249 2.27033 7.41309 2.36481C7.38517 2.40921 7.3236 2.5136 7.28772 2.66191C7.25243 2.80775 7.2134 3.13025 7.42746 3.45154C7.64281 3.77478 7.95837 3.86329 8.11261 3.88622C8.26806 3.90933 8.39187 3.89 8.44859 3.87909C8.57005 3.85573 8.66034 3.81482 8.70703 3.79147C8.76082 3.76458 8.82364 3.7271 8.88819 3.67495C8.92097 3.64848 8.96636 3.60843 9.01407 3.55364C9.05747 3.50379 9.13239 3.40821 9.1883 3.2685C9.2462 3.12382 9.30319 2.87756 9.21271 2.59349C9.11983 2.30185 8.92155 2.12645 8.76875 2.03612C8.62726 1.95248 8.49836 1.92347 8.43197 1.91187C8.35835 1.899 8.29754 1.89694 8.25978 1.89694V3.89693C8.22206 3.89693 8.16128 3.89487 8.08769 3.882C8.02133 3.87041 7.89246 3.84141 7.75099 3.75778C7.5982 3.66746 7.39993 3.49206 7.30705 3.20045C7.21657 2.91639 7.27357 2.67014 7.33146 2.52547C7.38736 2.38577 7.46228 2.29021 7.50566 2.24038C7.55335 2.1856 7.59873 2.14557 7.63149 2.11911C7.696 2.067 7.75878 2.02955 7.81252 2.00267C7.85916 1.97935 7.94941 1.93846 8.07082 1.9151C8.12753 1.9042 8.25132 1.88487 8.40676 1.90798C8.56098 1.93091 8.87653 2.01941 9.09188 2.34264C9.30593 2.66392 9.2669 2.98641 9.23162 3.13224C9.19574 3.28052 9.13418 3.38489 9.10628 3.42927C9.04691 3.5237 8.98512 3.5858 8.96688 3.60404L7.55267 2.18983ZM8.00142 1.93089C6.57692 2.31185 5.54881 3.69137 5.54881 5.16142H7.5488C7.5488 4.57128 7.99299 4.00342 8.51813 3.86298L8.00142 1.93089ZM5.54881 5.16142V14.7729H7.5488V5.16142H5.54881ZM7.04289 13.9035C6.24248 13.4486 5.29996 13.1873 4.29701 13.1873V15.1873C4.95162 15.1873 5.55387 15.3577 6.05471 15.6423L7.04289 13.9035ZM4.29701 13.1873C1.55712 13.1873 -0.883499 15.1852 -0.883499 17.8897H1.11649C1.11649 16.5112 2.4265 15.1873 4.29701 15.1873V13.1873ZM-0.883499 17.8897C-0.883499 20.5943 1.55725 22.5918 4.29701 22.5918V20.5918C2.42636 20.5918 1.11649 19.2681 1.11649 17.8897H-0.883499ZM16.9446 13.8752C16.0196 13.8752 15.6928 13.318 15.6928 13.1019H13.6928C13.6928 14.8414 15.3866 15.8752 16.9446 15.8752V13.8752ZM15.6928 13.1019C15.6928 12.888 16.0183 12.3308 16.9446 12.3308V10.3308C15.388 10.3308 13.6928 11.3625 13.6928 13.1019H15.6928ZM16.9446 12.3308C17.8712 12.3308 18.1964 12.8879 18.1964 13.1019H20.1964C20.1964 11.3626 18.5018 10.3308 16.9446 10.3308V12.3308ZM18.1964 13.1019C18.1964 13.3181 17.8699 13.8752 16.9446 13.8752V15.8752C18.5031 15.8752 20.1964 14.8413 20.1964 13.1019H18.1964ZM9.47714 5.16142C9.47714 5.28142 9.44887 5.36602 9.43327 5.40521C9.4161 5.44832 9.39756 5.47822 9.38271 5.49875C9.36825 5.51872 9.34439 5.54764 9.30481 5.58078C9.27559 5.60524 9.17961 5.68178 9.01785 5.72571L8.4937 3.79562C8.27348 3.85543 8.11346 3.96983 8.02103 4.0472C7.91825 4.13324 7.83204 4.23011 7.76254 4.32614C7.64354 4.49056 7.47715 4.78744 7.47715 5.16142H9.47714ZM9.01265 5.72711L19.4533 2.95205L18.9395 1.01917L8.4989 3.79423L9.01265 5.72711ZM18.1964 1.98561V4.35729H20.1964V1.98561H18.1964ZM18.1964 4.35729C18.1964 4.22793 18.2284 4.13836 18.2436 4.10124C18.261 4.05879 18.2791 4.03045 18.2926 4.01208C18.3057 3.99419 18.3282 3.96695 18.3664 3.93496C18.3927 3.91293 18.4912 3.83308 18.6591 3.78852L19.172 5.7216C19.3976 5.66174 19.56 5.54397 19.6498 5.46883C19.7516 5.38372 19.837 5.28815 19.9059 5.19411C20.0199 5.03855 20.1964 4.73883 20.1964 4.35729H18.1964ZM18.6584 3.78869L8.22003 6.56599L8.73427 8.49874L19.1727 5.72144L18.6584 3.78869ZM9.47714 7.53236V5.16142H7.47715V7.53236H9.47714ZM4.29701 17.116C4.69139 17.116 5.03443 17.2488 5.26183 17.4279C5.49171 17.609 5.54881 17.7847 5.54881 17.8897H7.5488C7.5488 17.0333 7.09028 16.3222 6.49941 15.8568C5.90606 15.3894 5.1232 15.116 4.29701 15.116V17.116ZM5.54881 17.8897C5.54881 17.9947 5.49171 18.1705 5.26183 18.3515C5.03443 18.5307 4.69139 18.6634 4.29701 18.6634V20.6634C5.1232 20.6634 5.90606 20.39 6.49941 19.9226C7.09028 19.4572 7.5488 18.7461 7.5488 17.8897H5.54881ZM4.29701 18.6634C3.90262 18.6634 3.55959 18.5307 3.33219 18.3515C3.1023 18.1705 3.04521 17.9947 3.04521 17.8897H1.04522C1.04522 18.7461 1.50374 19.4572 2.09461 19.9226C2.68796 20.39 3.47082 20.6634 4.29701 20.6634V18.6634ZM3.04521 17.8897C3.04521 17.7847 3.1023 17.609 3.33219 17.4279C3.55959 17.2488 3.90262 17.116 4.29701 17.116V15.116C3.47082 15.116 2.68795 15.3894 2.09461 15.8568C1.50374 16.3222 1.04522 17.0333 1.04522 17.8897H3.04521ZM36.4768 23.365C36.8924 23.4077 37.3086 23.4289 37.7239 23.4289V21.4289C37.3765 21.4289 37.0286 21.4112 36.6814 21.3755L36.4768 23.365ZM37.7239 23.4289C39.8588 23.4289 41.9698 22.8689 43.8186 21.8073L42.8228 20.0729C41.2788 20.9594 39.5115 21.4289 37.7239 21.4289V23.4289ZM43.002 21.888C43.4442 22.0367 43.9063 22.1123 44.3698 22.1123V20.1123C44.1238 20.1123 43.8769 20.0721 43.6394 19.9923L43.002 21.888ZM44.3698 22.1123C45.4603 22.1123 46.5552 21.6971 47.3883 20.8646L45.9745 19.45C45.5332 19.891 44.9542 20.1123 44.3698 20.1123V22.1123ZM47.3872 20.8657C48.1926 20.0632 48.6366 18.9883 48.6375 17.8499L46.6375 17.8482C46.637 18.4593 46.402 19.024 45.9756 19.4489L47.3872 20.8657ZM48.6375 17.8501C48.638 17.3775 48.5611 16.9163 48.4148 16.4807L46.5189 17.1176C46.5967 17.3491 46.6378 17.5946 46.6375 17.8481L48.6375 17.8501ZM48.3341 17.2971C49.6018 15.0892 50.1533 12.5068 49.891 9.95714L47.9015 10.1619C48.1209 12.2944 47.6587 14.4568 46.5996 16.3013L48.3341 17.2971ZM49.8909 9.95703C49.6044 7.17551 48.3567 4.55521 46.3757 2.57552L44.962 3.99016C46.6181 5.6453 47.6621 7.83859 47.9015 10.162L49.8909 9.95703ZM46.3755 2.5753C44.3944 0.596637 41.7739 -0.649831 38.9925 -0.935544L38.7881 1.05398C41.1116 1.29265 43.3055 2.3357 44.9622 3.99038L46.3755 2.5753ZM38.9927 -0.935527C36.4427 -1.19789 33.8581 -0.646031 31.6489 0.621587L32.6442 2.35631C34.4903 1.29707 36.6551 0.834517 38.788 1.05396L38.9927 -0.935527ZM32.4651 0.54105C30.9804 0.0421089 29.2681 0.379911 28.0819 1.56566L29.4958 2.98016C30.1225 2.35372 31.0321 2.16938 31.828 2.43685L32.4651 0.54105ZM28.0821 1.56538C27.277 2.36956 26.8334 3.4455 26.8334 4.58409H28.8334C28.8334 3.97324 29.0681 3.40729 29.4955 2.98044L28.0821 1.56538ZM26.8334 4.58409C26.8334 5.0546 26.9104 5.51396 27.0555 5.94738L28.952 5.31237C28.8745 5.08097 28.8334 4.83592 28.8334 4.58409H26.8334ZM27.1366 5.13174C25.8684 7.33936 25.3165 9.9219 25.5793 12.4721L27.5687 12.2671C27.349 10.1344 27.8115 7.97204 28.8708 6.128L27.1366 5.13174ZM25.5793 12.4722C25.6178 12.8453 25.6745 13.2132 25.7456 13.5747L27.708 13.1888C27.6476 12.8817 27.6004 12.5743 27.5687 12.2669L25.5793 12.4722ZM26.0018 12.6929L4.74221 35.0667L6.19205 36.4443L27.4517 14.0706L26.0018 12.6929ZM4.74188 35.067C2.9473 36.9574 2.93815 39.8921 4.77732 41.7346L6.1928 40.3216C5.14337 39.2703 5.12002 37.5736 6.19238 36.444L4.74188 35.067ZM4.77843 41.7357L5.61991 42.576L7.03317 41.1609L6.19169 40.3205L4.77843 41.7357ZM5.35635 41.6261C4.94948 43.255 3.91063 44.0968 2.90973 44.556C1.88069 45.0282 0.931149 45.0707 0.895543 45.0721L0.970294 47.0707C1.12442 47.0649 2.3729 47.0029 3.74382 46.3738C5.1429 45.7318 6.706 44.4757 7.29672 42.1108L5.35635 41.6261ZM0.900564 45.0719C-0.180741 45.1069 -1.03047 46.01 -0.999274 47.0918L0.999885 47.0342C1.00045 47.0538 0.98511 47.0702 0.965273 47.0708L0.900564 45.0719ZM-0.999261 47.0923C-0.968081 48.157 -0.0957101 48.9993 0.963545 48.9993V46.9993C0.967281 46.9993 0.972803 47.0003 0.978243 47.0025C0.98309 47.0045 0.986565 47.007 0.989075 47.0094C0.991601 47.0119 0.994253 47.0154 0.996429 47.0202C0.998884 47.0257 0.999789 47.0309 0.999872 47.0337L-0.999261 47.0923ZM0.963545 48.9993C0.970208 48.9993 0.998667 48.9995 1.03073 48.9982L0.953874 46.9997C0.961306 46.9994 0.966578 46.9994 0.968236 46.9993C0.969058 46.9993 0.969262 46.9993 0.968417 46.9993C0.967417 46.9993 0.966233 46.9993 0.963545 46.9993V48.9993ZM1.02136 48.9985C1.14522 48.9949 2.83422 48.9333 4.6669 48.0658L3.81126 46.2581C3.08218 46.6032 2.3734 46.79 1.83699 46.89C1.30194 46.9897 0.956453 46.9996 0.963247 46.9994L1.02136 48.9985ZM4.66709 48.0657C6.07651 47.3983 7.82769 46.1245 8.78228 43.7712L6.92896 43.0194C6.21703 44.7745 4.91751 45.7342 3.81108 46.2582L4.66709 48.0657ZM7.1485 44.1024L7.20153 44.1554L8.61578 42.7412L8.56275 42.6882L7.1485 44.1024ZM7.20083 44.1547C8.12005 45.0758 9.32278 45.5389 10.5321 45.5389V43.5389C9.83581 43.5389 9.14791 43.2745 8.61649 42.742L7.20083 44.1547ZM10.5321 45.5389C11.7307 45.5389 12.9302 45.0849 13.8711 44.1902L12.4929 42.7408C11.9279 43.2781 11.2234 43.5389 10.5321 43.5389V45.5389ZM13.8715 44.1898L22.0921 36.3632L20.7131 34.9147L12.4925 42.7413L13.8715 44.1898ZM22.0923 36.363C22.8773 35.6154 22.9087 34.3721 22.1599 33.586L20.7118 34.9654C20.698 34.9509 20.6988 34.9283 20.7129 34.9149L22.0923 36.363ZM22.1603 33.5863C21.4121 32.8002 20.1689 32.7701 19.3832 33.5177L20.7619 34.9665C20.748 34.9798 20.7253 34.9796 20.7114 34.9651L22.1603 33.5863ZM19.383 33.5179L11.1632 41.344L12.5423 42.7925L20.7621 34.9663L19.383 33.5179ZM11.1638 41.3435C10.7832 41.7052 10.2714 41.6701 9.97995 41.3782L8.56461 42.7912C9.67379 43.9022 11.4276 43.8521 12.5417 42.7931L11.1638 41.3435ZM9.97884 41.3771L7.55524 38.9572L6.14213 40.3725L8.56572 42.7924L9.97884 41.3771ZM7.55654 38.9585C7.26422 38.6655 7.23043 38.1512 7.59031 37.7722L6.13992 36.3951C5.08277 37.5085 5.03404 39.262 6.14083 40.3712L7.55654 38.9585ZM7.59003 37.7725L28.0956 16.1927L26.6457 14.8151L6.1402 36.3948L7.59003 37.7725ZM26.447 15.8871C27.0573 17.3584 27.953 18.7121 29.0953 19.8536L30.509 18.4389C29.5559 17.4865 28.806 16.3543 28.2943 15.1208L26.447 15.8871ZM29.0951 19.8535C30.2355 20.9934 31.5884 21.8879 33.0594 22.4974L33.825 20.6497C32.5918 20.1388 31.4603 19.3899 30.5091 18.439L29.0951 19.8535ZM32.7537 20.8483L26.8555 26.4477L28.2325 27.8982L34.1307 22.2988L32.7537 20.8483ZM26.8616 26.4419C26.8563 26.4469 26.8517 26.4513 26.8483 26.4545C26.8452 26.4575 26.8423 26.4603 26.8412 26.4614C26.8396 26.4629 26.8398 26.4628 26.8402 26.4624C26.8408 26.4618 26.8426 26.46 26.8452 26.4576L28.2098 27.9197C28.2152 27.9147 28.2198 27.9103 28.2232 27.9071C28.2263 27.9041 28.2292 27.9013 28.2303 27.9002C28.2319 27.8987 28.2317 27.8989 28.2313 27.8993C28.2307 27.8999 28.2289 27.9016 28.2263 27.904L26.8616 26.4419ZM26.8221 26.4798L25.6654 27.631L27.0762 29.0486L28.2329 27.8975L26.8221 26.4798ZM25.6658 27.6306C24.8961 28.3957 24.8936 29.6395 25.6579 30.4084L27.0763 28.9984C27.0785 29.0006 27.0817 29.005 27.084 29.0106C27.086 29.0156 27.0866 29.0199 27.0866 29.0234C27.0866 29.0269 27.0859 29.0313 27.0838 29.0364C27.0815 29.0421 27.0781 29.0467 27.0758 29.049L25.6658 27.6306ZM25.6586 30.4091C26.0421 30.7941 26.5479 30.9876 27.0509 30.9876V28.9876C27.0546 28.9876 27.0589 28.9883 27.0638 28.9903C27.0694 28.9925 27.0736 28.9957 27.0756 28.9977L25.6586 30.4091ZM27.0509 30.9876C27.55 30.9876 28.0533 30.7972 28.4368 30.4153L27.0254 28.9982C27.0277 28.996 27.0322 28.9927 27.038 28.9903C27.0431 28.9883 27.0474 28.9876 27.0509 28.9876V30.9876ZM28.4365 30.4156L29.5849 29.2727L28.1742 27.855L27.0257 28.9979L28.4365 30.4156ZM29.568 29.2891L36.254 22.9423L34.877 21.4918L28.1911 27.8386L29.568 29.2891ZM35.3717 23.1981C35.7342 23.2697 36.1028 23.3265 36.4767 23.365L36.6816 21.3755C36.3735 21.3438 36.066 21.2966 35.7593 21.2361L35.3717 23.1981ZM43.5987 5.35413C46.0453 7.79938 46.6812 11.5485 45.286 14.6382L47.1087 15.4613C48.8404 11.6264 48.0578 6.98315 45.0125 3.93954L43.5987 5.35413ZM46.9042 14.3424L34.6039 2.05073L33.1902 3.46543L45.4905 15.7571L46.9042 14.3424ZM34.3083 3.6696C37.3999 2.27481 41.1515 2.91024 43.599 5.35442L45.0122 3.93925C41.9664 0.89756 37.3218 0.115957 33.4858 1.84656L34.3083 3.6696ZM30.8592 4.34401C30.9246 4.2786 31.0097 4.24511 31.1 4.24511V2.24512C30.5038 2.24512 29.9024 2.47233 29.445 2.92981L30.8592 4.34401ZM31.1 4.24511C31.1908 4.24511 31.2759 4.2787 31.3412 4.34401L32.7554 2.92981C32.2978 2.47223 31.6964 2.24512 31.1 2.24512V4.24511ZM31.3414 4.34426L44.6124 17.6059L46.0261 16.1912L32.7551 2.92956L31.3414 4.34426ZM44.6122 17.6056C44.6738 17.6673 44.7093 17.7485 44.7092 17.8466L46.7092 17.8486C46.7098 17.2259 46.4682 16.6332 46.0264 16.1914L44.6122 17.6056ZM44.7092 17.8465C44.7091 17.9437 44.6741 18.023 44.6134 18.0835L46.0244 19.5008C46.4671 19.0601 46.7085 18.4693 46.7092 17.8486L44.7092 17.8465ZM44.6118 18.0851C44.4792 18.2177 44.2602 18.218 44.1269 18.0848L42.7132 19.4995C43.6272 20.4128 45.1121 20.4132 46.026 19.4993L44.6118 18.0851ZM44.127 18.0849L30.859 4.82361L29.4451 6.23818L42.7131 19.4994L44.127 18.0849ZM30.8592 4.82379C30.7968 4.76143 30.7618 4.68041 30.7618 4.58372H28.7618C28.7618 5.20563 29.0039 5.7969 29.445 6.238L30.8592 4.82379ZM30.7618 4.58372C30.7618 4.48689 30.7969 4.40622 30.8586 4.34454L29.4455 2.92928C29.0038 3.37033 28.7618 3.96194 28.7618 4.58372H30.7618ZM28.5663 8.08621L40.8643 20.3786L42.2782 18.9641L29.9802 6.67168L28.5663 8.08621ZM41.1597 18.76C38.0691 20.1556 34.319 19.5203 31.8723 17.0749L30.4584 18.4895C33.5036 21.533 38.1474 22.3147 41.9828 20.5827L41.1597 18.76ZM31.8723 17.0749C29.4241 14.6281 28.7885 10.8794 30.1845 7.79081L28.362 6.96708C26.6289 10.8015 27.4118 15.4446 30.4584 18.4895L31.8723 17.0749ZM25.1517 30.4574C24.3188 29.7637 23.0802 29.8752 22.3853 30.7094L23.922 31.9894C23.9091 32.0049 23.8866 32.0066 23.8717 31.9942L25.1517 30.4574ZM22.3869 30.7075L22.3735 30.7235L23.907 32.0074L23.9204 31.9913L22.3869 30.7075ZM22.3719 30.7254C21.6778 31.5587 21.7896 32.7974 22.6235 33.4919L23.9034 31.9551C23.9193 31.9683 23.9206 31.991 23.9085 32.0055L22.3719 30.7254ZM22.6228 33.4913C22.9898 33.7976 23.4377 33.9472 23.8805 33.9472V31.9472C23.8836 31.9472 23.8878 31.9477 23.8927 31.9495C23.8981 31.9514 23.9021 31.954 23.9041 31.9557L22.6228 33.4913ZM23.8805 33.9472C24.4409 33.9472 25.0014 33.7063 25.3897 33.2404L23.8533 31.9601C23.8558 31.957 23.8607 31.953 23.8665 31.9504C23.8714 31.9481 23.8759 31.9472 23.8805 31.9472V33.9472ZM25.3869 33.2438L25.4007 33.2273L23.8699 31.9403L23.8561 31.9567L25.3869 33.2438ZM25.4037 33.2238C26.0977 32.3905 25.9849 31.1522 25.1521 30.4577L23.8713 31.9938C23.8689 31.9918 23.8653 31.9877 23.8625 31.9823C23.86 31.9776 23.859 31.9734 23.8587 31.9699C23.8584 31.9665 23.8586 31.9621 23.8602 31.9569C23.862 31.9511 23.8649 31.9463 23.8669 31.9438L25.4037 33.2238Z" fill="white" mask="url(#path-1-inside-1_6875_15948)"/>
</svg>
