<svg width="45" height="50" viewBox="0 0 45 50" fill="none" xmlns="http://www.w3.org/2000/svg">
<path d="M8.635 13.9163C8.635 12.4376 7.43193 11.2346 5.95333 11.2346C5.3046 11.2346 4.69514 11.4623 4.21524 11.8729C3.93775 11.7783 3.64488 11.7293 3.34817 11.7293C1.86948 11.7293 0.666504 12.9323 0.666504 14.411C0.666504 15.5525 1.40214 16.5596 2.44472 16.9355C2.75905 18.0744 3.80894 18.9064 5.03001 18.9064C6.5087 18.9064 7.71167 17.7034 7.71167 16.2247C7.71167 16.1334 7.70708 16.0425 7.69789 15.9523C8.2855 15.4479 8.635 14.7058 8.635 13.9163ZM6.57676 15.0288L6.08252 15.3067L6.2493 15.8485C6.28661 15.9698 6.30564 16.0964 6.30564 16.2245C6.30564 16.9278 5.7334 17.5 5.0302 17.5C4.36468 17.5 3.80613 16.9806 3.75869 16.3176L3.71828 15.7547L3.15992 15.6723C2.54025 15.5809 2.07291 15.0385 2.07291 14.4108C2.07291 13.7075 2.64515 13.1354 3.34836 13.1354C3.5831 13.1354 3.81222 13.1995 4.01106 13.3208L4.55302 13.6514L4.9371 13.1459C5.18113 12.8248 5.55153 12.6406 5.95352 12.6406C6.65682 12.6406 7.22896 13.2129 7.22896 13.9161C7.22887 14.3763 6.97903 14.8027 6.57676 15.0288Z" fill="white"/>
<path d="M16.1344 4.92092C16.1344 3.55989 15.0271 2.45273 13.6661 2.45273C13.0835 2.45273 12.5355 2.65213 12.0991 3.01268C11.8558 2.9344 11.6006 2.894 11.3421 2.894C9.98103 2.894 8.87377 4.00126 8.87377 5.3622C8.87377 5.4462 8.87808 5.5301 8.8867 5.61363C8.53834 6.04853 8.34428 6.59236 8.34428 7.15682C8.34428 8.51785 9.45154 9.62501 10.8126 9.62501C11.2382 9.62501 11.6548 9.51439 12.0219 9.30805C12.2844 9.40058 12.562 9.44849 12.8424 9.44849C14.2034 9.44849 15.3107 8.34123 15.3107 6.98029C15.3107 6.90951 15.3077 6.83901 15.3017 6.76889C15.8245 6.3054 16.1344 5.63435 16.1344 4.92092ZM14.1853 5.84734L13.6909 6.12521L13.8578 6.66717C13.8889 6.76804 13.9047 6.87342 13.9047 6.98029C13.9047 7.56584 13.4282 8.04227 12.8426 8.04227C12.6543 8.04227 12.4694 7.99221 12.3076 7.89752L11.8779 7.6459L11.498 7.96755C11.3038 8.13189 11.0668 8.21879 10.8126 8.21879C10.2269 8.21879 9.7505 7.74237 9.7505 7.15682C9.75059 6.85363 9.88109 6.56395 10.1085 6.36221L10.437 6.07084L10.3194 5.64775C10.2934 5.55438 10.2802 5.45829 10.2802 5.36229C10.2802 4.77674 10.7566 4.30031 11.3422 4.30031C11.5377 4.30031 11.7285 4.35366 11.8941 4.45462L12.436 4.78518L12.82 4.27959C13.0231 4.01223 13.3316 3.85895 13.6663 3.85895C14.2519 3.85895 14.7283 4.33537 14.7283 4.92092C14.7283 5.30407 14.5202 5.659 14.1853 5.84734Z" fill="white"/>
<path d="M44.6338 10.1247C44.6338 8.76367 43.5266 7.6565 42.1655 7.6565C41.5831 7.6565 41.035 7.8559 40.5985 8.21655C40.3553 8.13818 40.1 8.09777 39.8414 8.09777C38.4804 8.09777 37.3731 9.20503 37.3731 10.566C37.3731 10.65 37.3774 10.7339 37.3861 10.8175C37.0377 11.2524 36.8436 11.7961 36.8436 12.3606C36.8436 13.7216 37.9509 14.8288 39.3119 14.8288C39.7375 14.8288 40.1542 14.7182 40.5213 14.5118C40.7838 14.6044 41.0614 14.6523 41.3418 14.6523C42.7028 14.6523 43.81 13.545 43.81 12.1841C43.81 12.1134 43.807 12.0428 43.801 11.9728C44.324 11.5094 44.6338 10.8382 44.6338 10.1247ZM42.6845 11.0512L42.1901 11.3292L42.357 11.8711C42.3881 11.9719 42.4038 12.0772 42.4038 12.1841C42.4038 12.7696 41.9274 13.246 41.3418 13.246C41.1535 13.246 40.9685 13.196 40.8067 13.1013L40.3771 12.8497L39.9971 13.1713C39.803 13.3357 39.566 13.4226 39.3117 13.4226C38.7261 13.4226 38.2497 12.9461 38.2497 12.3606C38.2497 12.0575 38.3802 11.7678 38.6076 11.566L38.936 11.2747L38.8184 10.8517C38.7924 10.7582 38.7792 10.6621 38.7792 10.566C38.7792 9.98042 39.2557 9.50399 39.8413 9.50399C40.0368 9.50399 40.2276 9.55734 40.3929 9.65831L40.935 9.98905L41.3191 9.48337C41.5222 9.21591 41.8307 9.06263 42.1653 9.06263C42.751 9.06263 43.2274 9.53906 43.2274 10.1246C43.2276 10.5079 43.0195 10.8629 42.6845 11.0512Z" fill="white"/>
<path d="M37.1498 4.05205C36.7852 3.51534 36.2543 3.13932 35.645 2.97319C35.5674 2.69026 35.4434 2.42064 35.2766 2.17521C34.874 1.58272 34.2649 1.18242 33.5612 1.04817C32.8574 0.913924 32.1437 1.06176 31.5513 1.46423C30.6072 2.10574 30.1875 3.28022 30.4625 4.35382C29.6972 5.2538 29.599 6.58981 30.2853 7.59985C30.6878 8.19234 31.297 8.59264 32.0007 8.72689C32.1702 8.75923 32.3401 8.77526 32.509 8.77526C33.041 8.77517 33.5608 8.61645 34.0106 8.31074C34.086 8.25955 34.1585 8.20471 34.228 8.1464C34.9757 8.34899 35.7856 8.22102 36.4389 7.77722C37.6619 6.94624 37.9808 5.27518 37.1498 4.05205ZM36.1846 5.7982C36.1208 6.13278 35.9304 6.42256 35.6486 6.61409C35.268 6.87274 34.7747 6.90564 34.3617 6.69996L33.8541 6.4475L33.4997 6.88989C33.4203 6.98899 33.3263 7.0757 33.2203 7.1478C32.9385 7.33923 32.599 7.40963 32.2644 7.3456C31.9297 7.28167 31.64 7.09136 31.4485 6.80955C31.0744 6.25906 31.1901 5.50524 31.7118 5.09331L32.1548 4.74353L31.9091 4.23542C31.6364 3.67143 31.8223 2.98004 32.3416 2.62726C32.5555 2.48195 32.8027 2.40649 33.0558 2.40649C33.136 2.40649 33.2169 2.41408 33.2976 2.42946C33.6322 2.49339 33.9219 2.6837 34.1135 2.96551C34.2454 3.15966 34.3211 3.38531 34.3325 3.6179L34.3637 4.25211L34.9977 4.28557C35.4003 4.30695 35.7609 4.50991 35.9867 4.84225C36.1782 5.12406 36.2485 5.46361 36.1846 5.7982Z" fill="white"/>
<path d="M37.3213 20.7552C37.3213 20.3775 37.2334 20.0044 37.0687 19.6681C37.235 19.3317 37.3213 18.9621 37.3213 18.5774C37.3213 17.3831 36.4688 16.3846 35.3404 16.1578C35.4701 15.8554 35.5401 15.526 35.5401 15.187C35.5401 13.8259 34.4328 12.7186 33.0717 12.7186C32.7007 12.7186 32.3389 12.8018 32.01 12.9588C31.4147 12.3888 30.6178 12.0624 29.7746 12.0624C29.5581 12.0624 29.3442 12.0837 29.1349 12.126C28.944 11.9358 28.7241 11.7789 28.4838 11.6608C28.9732 11.1655 29.2591 10.4903 29.2591 9.77598C29.2591 8.2971 28.0559 7.09385 26.577 7.09385C25.9288 7.09385 25.3194 7.32165 24.8393 7.73236C24.5619 7.63777 24.2691 7.58893 23.9726 7.58893C23.4457 7.58893 22.9423 7.7408 22.5136 8.01961C21.6188 7.17484 20.2244 7.03235 19.1655 7.75177C18.26 8.36713 17.837 9.47327 18.0467 10.5104C16.9979 10.7051 16.1798 11.5654 16.0486 12.635C15.7466 12.5477 15.4031 12.5012 15.0218 12.534C14.4396 12.5835 13.9242 12.7782 13.5227 13.0941C13.2771 13.0141 13.0189 12.973 12.7574 12.973C11.3963 12.973 10.289 14.0803 10.289 15.4414C10.289 15.5254 10.2932 15.609 10.3017 15.6921C9.95347 16.127 9.75932 16.671 9.75932 17.2357C9.75932 17.6432 9.85775 18.0314 10.0356 18.3746C8.629 18.4556 7.50936 19.6252 7.50936 21.0512C7.50936 21.7217 7.76023 22.3564 8.19466 22.8415C7.5103 23.6835 7.17131 24.767 7.2599 25.854L11.0847 48.9992H33.0894L36.9072 25.9116L36.9143 25.8541C36.9817 25.0269 36.8015 24.2018 36.41 23.4836C36.4673 23.2603 36.4969 23.0336 36.4969 22.8139C36.4969 22.7433 36.4939 22.673 36.488 22.6031C37.0114 22.1395 37.3213 21.4683 37.3213 20.7552ZM12.278 47.5925L8.65965 25.7118C8.60303 24.9267 8.86534 24.1765 9.39979 23.5967C9.94044 23.0101 10.6775 22.6872 11.4753 22.6872H11.5046C13.0277 22.6872 14.2667 23.8794 14.3253 25.4013L14.3259 25.4155L14.3325 25.5004C14.3324 25.5577 14.3335 25.6151 14.3357 25.6727L16.0765 47.5925H12.278ZM17.4873 47.5925L15.7392 25.4517C15.7527 24.7397 16.0292 24.0705 16.5275 23.5526C17.0645 22.9946 17.787 22.6872 18.5615 22.6872C20.118 22.6872 21.3843 23.9535 21.3843 25.5099V47.5925H17.4873ZM22.7906 47.5925V25.51C22.7906 23.9535 24.0569 22.6872 25.6134 22.6872C26.388 22.6872 27.1104 22.9946 27.6475 23.5527C28.1458 24.0706 28.4223 24.7397 28.4357 25.4518L26.6875 47.5925H22.7906ZM35.5152 25.7118L31.8969 47.5925H28.0984L29.8375 25.7012L29.8392 25.6726C29.8415 25.6149 29.8425 25.5573 29.8424 25.5L29.8479 25.4296L29.8496 25.4013C29.9082 23.8793 31.1472 22.6871 32.6703 22.6871H32.6997C33.4974 22.6871 34.2345 23.01 34.7751 23.5966C35.3095 24.1765 35.5718 24.9267 35.5152 25.7118ZM35.3716 21.6812L34.9398 21.9242C34.2734 21.5086 33.4967 21.2811 32.6996 21.2811H32.6702C31.1942 21.2811 29.8962 22.0286 29.1399 23.1736C28.9998 22.9635 28.8398 22.7641 28.6605 22.5778C27.8559 21.7416 26.7737 21.2811 25.6131 21.2811C24.1427 21.2811 22.8452 22.0354 22.0873 23.1775C21.3292 22.0355 20.0318 21.2811 18.5613 21.2811C17.4009 21.2811 16.3187 21.7416 15.514 22.5778C15.3348 22.7641 15.1748 22.9634 15.0347 23.1736C14.2783 22.0286 12.9804 21.2811 11.5043 21.2811H11.475C10.6846 21.2811 9.91438 21.5048 9.25186 21.9135C9.03896 21.6811 8.91568 21.3748 8.91568 21.051C8.91568 20.3479 9.48801 19.776 10.1916 19.776C10.4262 19.776 10.6555 19.84 10.8543 19.9611L11.3957 20.291L11.7796 19.7864C11.8641 19.6753 11.9668 19.5785 12.0848 19.4987L13.285 18.6862L11.904 18.2465C11.4624 18.1059 11.1657 17.6996 11.1657 17.2355C11.1657 16.9321 11.2961 16.6424 11.5236 16.4406L11.8524 16.149L11.7341 15.7254C11.7084 15.6335 11.6954 15.5378 11.6954 15.4413C11.6954 14.8556 12.1719 14.3791 12.7576 14.3791C12.9534 14.3791 13.1441 14.4323 13.309 14.533L13.8511 14.8641L14.2353 14.3581C14.4674 14.0525 14.8561 13.9594 15.1413 13.935C15.765 13.8825 16.2205 14.252 16.4924 14.4733C16.5766 14.5417 16.6492 14.6008 16.7285 14.6488L17.2752 14.9796L17.6529 14.4717L17.9973 14.0187L17.6625 13.5918C17.5146 13.4032 17.4364 13.1769 17.4364 12.9373C17.4364 12.3555 17.9066 11.8814 18.487 11.8752L18.8832 11.8978L19.1095 11.6032C19.175 11.518 19.248 11.4433 19.3264 11.3813L19.7689 11.0316L19.5235 10.5238C19.2507 9.95935 19.4366 9.26777 19.9558 8.9149C20.5375 8.51938 21.3325 8.67144 21.7273 9.25268C21.7507 9.28718 21.774 9.32674 21.7967 9.37014L22.2983 10.3315L22.9713 9.48124C23.2157 9.17243 23.5807 8.99525 23.9725 8.99525C24.2071 8.99525 24.4363 9.05927 24.6352 9.1804L25.1764 9.51011L25.5603 9.00584C25.8049 8.68456 26.1754 8.50026 26.5768 8.50026C27.2803 8.50026 27.8527 9.07259 27.8527 9.77617C27.8527 10.2363 27.603 10.6623 27.2011 10.8879L26.7079 11.1647L26.8726 11.7057C26.9087 11.8247 26.9278 11.9471 26.9292 12.0699C26.9281 12.0886 26.9274 12.1077 26.9274 12.1273V12.7427L27.5375 12.8241C27.8466 12.8654 28.1211 13.0411 28.2906 13.3064L28.598 13.7876L29.1319 13.5855C29.3365 13.5081 29.5528 13.4688 29.7745 13.4688C30.3853 13.4688 30.953 13.7718 31.2933 14.2794L31.7491 14.9592L32.3525 14.4061C32.5502 14.2248 32.8057 14.125 33.0717 14.125C33.6575 14.125 34.1339 14.6016 34.1339 15.1872C34.1339 15.5701 33.9256 15.9251 33.5904 16.1138L33.0934 16.3935L33.2644 16.9375C33.2808 16.9896 33.2929 17.049 33.3005 17.1141L33.4216 18.1582L34.3403 17.6477C34.4955 17.5616 34.6727 17.516 34.8529 17.516C35.4386 17.516 35.915 17.9921 35.915 18.5772C35.915 18.8175 35.8368 19.0441 35.689 19.2327L35.3481 19.6673L35.6898 20.101C35.8372 20.2884 35.9151 20.5144 35.9151 20.7546C35.9151 21.1375 35.7068 21.4925 35.3716 21.6812Z" fill="white"/>
<path d="M24.478 14.3592C24.2696 14.3592 24.066 14.3899 23.8717 14.4499C23.3821 13.9201 22.6899 13.6092 21.9468 13.6092C20.6913 13.6092 19.6389 14.4952 19.3818 15.6747C17.9934 15.7414 16.8844 16.8919 16.8844 18.2966H18.2906C18.2906 17.6246 18.8373 17.0779 19.5093 17.0779C19.6197 17.0779 19.7325 17.0941 19.8445 17.1262L20.8537 17.4146L20.7366 16.3717C20.7308 16.3206 20.728 16.2757 20.728 16.2342C20.728 15.5622 21.2748 15.0154 21.9468 15.0154C22.4013 15.0154 22.8152 15.2668 23.0267 15.6712L23.415 16.4138L24.0789 15.9024C24.16 15.8399 24.295 15.7654 24.478 15.7654C24.8398 15.7654 25.1342 16.0599 25.1342 16.4217H26.5404C26.5404 15.2844 25.6152 14.3592 24.478 14.3592Z" fill="white"/>
<path d="M29.1653 16.9372C28.4774 16.9372 27.8285 17.233 27.3733 17.7263C27.123 17.6386 26.8584 17.5935 26.5872 17.5935C25.269 17.5935 24.1966 18.6658 24.1966 19.984H25.6028C25.6028 19.4412 26.0444 18.9997 26.5872 18.9997C26.8 18.9997 27.0036 19.068 27.1759 19.1975L27.8654 19.7152L28.2339 18.9357C28.4039 18.5759 28.7696 18.3434 29.1653 18.3434C29.7338 18.3434 30.1965 18.8061 30.1965 19.3747H31.6027C31.6026 18.0306 30.5093 16.9372 29.1653 16.9372Z" fill="white"/>
<path d="M11.4562 25.3792L10.0689 25.6087L10.9718 31.0676L12.3592 30.8381L11.4562 25.3792Z" fill="white"/>
<path d="M13.6769 38.8078L12.2895 39.0372L12.8527 42.4436L14.24 42.2143L13.6769 38.8078Z" fill="white"/>
<path d="M24.3457 41.5804L24.2007 43.4047L25.6026 43.516L25.7475 41.6917L24.3457 41.5804Z" fill="white"/>
<path d="M25.209 30.706L24.7845 36.05L26.1863 36.1614L26.6109 30.8173L25.209 30.706Z" fill="white"/>
<path d="M25.6269 25.4423L25.3799 28.5508L26.7818 28.6621L27.0287 25.5537L25.6269 25.4423Z" fill="white"/>
<path d="M8.635 13.9163C8.635 12.4376 7.43193 11.2346 5.95333 11.2346C5.3046 11.2346 4.69514 11.4623 4.21524 11.8729C3.93775 11.7783 3.64488 11.7293 3.34817 11.7293C1.86948 11.7293 0.666504 12.9323 0.666504 14.411C0.666504 15.5525 1.40214 16.5596 2.44472 16.9355C2.75905 18.0744 3.80894 18.9064 5.03001 18.9064C6.5087 18.9064 7.71167 17.7034 7.71167 16.2247C7.71167 16.1334 7.70708 16.0425 7.69789 15.9523C8.2855 15.4479 8.635 14.7058 8.635 13.9163ZM6.57676 15.0288L6.08252 15.3067L6.2493 15.8485C6.28661 15.9698 6.30564 16.0964 6.30564 16.2245C6.30564 16.9278 5.7334 17.5 5.0302 17.5C4.36468 17.5 3.80613 16.9806 3.75869 16.3176L3.71828 15.7547L3.15992 15.6723C2.54025 15.5809 2.07291 15.0385 2.07291 14.4108C2.07291 13.7075 2.64515 13.1354 3.34836 13.1354C3.5831 13.1354 3.81222 13.1995 4.01106 13.3208L4.55302 13.6514L4.9371 13.1459C5.18113 12.8248 5.55153 12.6406 5.95352 12.6406C6.65682 12.6406 7.22896 13.2129 7.22896 13.9161C7.22887 14.3763 6.97903 14.8027 6.57676 15.0288Z" stroke="white" stroke-width="0.5"/>
<path d="M16.1344 4.92092C16.1344 3.55989 15.0271 2.45273 13.6661 2.45273C13.0835 2.45273 12.5355 2.65213 12.0991 3.01268C11.8558 2.9344 11.6006 2.894 11.3421 2.894C9.98103 2.894 8.87377 4.00126 8.87377 5.3622C8.87377 5.4462 8.87808 5.5301 8.8867 5.61363C8.53834 6.04853 8.34428 6.59236 8.34428 7.15682C8.34428 8.51785 9.45154 9.62501 10.8126 9.62501C11.2382 9.62501 11.6548 9.51439 12.0219 9.30805C12.2844 9.40058 12.562 9.44849 12.8424 9.44849C14.2034 9.44849 15.3107 8.34123 15.3107 6.98029C15.3107 6.90951 15.3077 6.83901 15.3017 6.76889C15.8245 6.3054 16.1344 5.63435 16.1344 4.92092ZM14.1853 5.84734L13.6909 6.12521L13.8578 6.66717C13.8889 6.76804 13.9047 6.87342 13.9047 6.98029C13.9047 7.56584 13.4282 8.04227 12.8426 8.04227C12.6543 8.04227 12.4694 7.99221 12.3076 7.89752L11.8779 7.6459L11.498 7.96755C11.3038 8.13189 11.0668 8.21879 10.8126 8.21879C10.2269 8.21879 9.7505 7.74237 9.7505 7.15682C9.75059 6.85363 9.88109 6.56395 10.1085 6.36221L10.437 6.07084L10.3194 5.64775C10.2934 5.55438 10.2802 5.45829 10.2802 5.36229C10.2802 4.77674 10.7566 4.30031 11.3422 4.30031C11.5377 4.30031 11.7285 4.35366 11.8941 4.45462L12.436 4.78518L12.82 4.27959C13.0231 4.01223 13.3316 3.85895 13.6663 3.85895C14.2519 3.85895 14.7283 4.33537 14.7283 4.92092C14.7283 5.30407 14.5202 5.659 14.1853 5.84734Z" stroke="white" stroke-width="0.5"/>
<path d="M44.6338 10.1247C44.6338 8.76367 43.5266 7.6565 42.1655 7.6565C41.5831 7.6565 41.035 7.8559 40.5985 8.21655C40.3553 8.13818 40.1 8.09777 39.8414 8.09777C38.4804 8.09777 37.3731 9.20503 37.3731 10.566C37.3731 10.65 37.3774 10.7339 37.3861 10.8175C37.0377 11.2524 36.8436 11.7961 36.8436 12.3606C36.8436 13.7216 37.9509 14.8288 39.3119 14.8288C39.7375 14.8288 40.1542 14.7182 40.5213 14.5118C40.7838 14.6044 41.0614 14.6523 41.3418 14.6523C42.7028 14.6523 43.81 13.545 43.81 12.1841C43.81 12.1134 43.807 12.0428 43.801 11.9728C44.324 11.5094 44.6338 10.8382 44.6338 10.1247ZM42.6845 11.0512L42.1901 11.3292L42.357 11.8711C42.3881 11.9719 42.4038 12.0772 42.4038 12.1841C42.4038 12.7696 41.9274 13.246 41.3418 13.246C41.1535 13.246 40.9685 13.196 40.8067 13.1013L40.3771 12.8497L39.9971 13.1713C39.803 13.3357 39.566 13.4226 39.3117 13.4226C38.7261 13.4226 38.2497 12.9461 38.2497 12.3606C38.2497 12.0575 38.3802 11.7678 38.6076 11.566L38.936 11.2747L38.8184 10.8517C38.7924 10.7582 38.7792 10.6621 38.7792 10.566C38.7792 9.98042 39.2557 9.50399 39.8413 9.50399C40.0368 9.50399 40.2276 9.55734 40.3929 9.65831L40.935 9.98905L41.3191 9.48337C41.5222 9.21591 41.8307 9.06263 42.1653 9.06263C42.751 9.06263 43.2274 9.53906 43.2274 10.1246C43.2276 10.5079 43.0195 10.8629 42.6845 11.0512Z" stroke="white" stroke-width="0.5"/>
<path d="M37.1498 4.05205C36.7852 3.51534 36.2543 3.13932 35.645 2.97319C35.5674 2.69026 35.4434 2.42064 35.2766 2.17521C34.874 1.58272 34.2649 1.18242 33.5612 1.04817C32.8574 0.913924 32.1437 1.06176 31.5513 1.46423C30.6072 2.10574 30.1875 3.28022 30.4625 4.35382C29.6972 5.2538 29.599 6.58981 30.2853 7.59985C30.6878 8.19234 31.297 8.59264 32.0007 8.72689C32.1702 8.75923 32.3401 8.77526 32.509 8.77526C33.041 8.77517 33.5608 8.61645 34.0106 8.31074C34.086 8.25955 34.1585 8.20471 34.228 8.1464C34.9757 8.34899 35.7856 8.22102 36.4389 7.77722C37.6619 6.94624 37.9808 5.27518 37.1498 4.05205ZM36.1846 5.7982C36.1208 6.13278 35.9304 6.42256 35.6486 6.61409C35.268 6.87274 34.7747 6.90564 34.3617 6.69996L33.8541 6.4475L33.4997 6.88989C33.4203 6.98899 33.3263 7.0757 33.2203 7.1478C32.9385 7.33923 32.599 7.40963 32.2644 7.3456C31.9297 7.28167 31.64 7.09136 31.4485 6.80955C31.0744 6.25906 31.1901 5.50524 31.7118 5.09331L32.1548 4.74353L31.9091 4.23542C31.6364 3.67143 31.8223 2.98004 32.3416 2.62726C32.5555 2.48195 32.8027 2.40649 33.0558 2.40649C33.136 2.40649 33.2169 2.41408 33.2976 2.42946C33.6322 2.49339 33.9219 2.6837 34.1135 2.96551C34.2454 3.15966 34.3211 3.38531 34.3325 3.6179L34.3637 4.25211L34.9977 4.28557C35.4003 4.30695 35.7609 4.50991 35.9867 4.84225C36.1782 5.12406 36.2485 5.46361 36.1846 5.7982Z" stroke="white" stroke-width="0.5"/>
<path d="M37.3213 20.7552C37.3213 20.3775 37.2334 20.0044 37.0687 19.6681C37.235 19.3317 37.3213 18.9621 37.3213 18.5774C37.3213 17.3831 36.4688 16.3846 35.3404 16.1578C35.4701 15.8554 35.5401 15.526 35.5401 15.187C35.5401 13.8259 34.4328 12.7186 33.0717 12.7186C32.7007 12.7186 32.3389 12.8018 32.01 12.9588C31.4147 12.3888 30.6178 12.0624 29.7746 12.0624C29.5581 12.0624 29.3442 12.0837 29.1349 12.126C28.944 11.9358 28.7241 11.7789 28.4838 11.6608C28.9732 11.1655 29.2591 10.4903 29.2591 9.77598C29.2591 8.2971 28.0559 7.09385 26.577 7.09385C25.9288 7.09385 25.3194 7.32165 24.8393 7.73236C24.5619 7.63777 24.2691 7.58893 23.9726 7.58893C23.4457 7.58893 22.9423 7.7408 22.5136 8.01961C21.6188 7.17484 20.2244 7.03235 19.1655 7.75177C18.26 8.36713 17.837 9.47327 18.0467 10.5104C16.9979 10.7051 16.1798 11.5654 16.0486 12.635C15.7466 12.5477 15.4031 12.5012 15.0218 12.534C14.4396 12.5835 13.9242 12.7782 13.5227 13.0941C13.2771 13.0141 13.0189 12.973 12.7574 12.973C11.3963 12.973 10.289 14.0803 10.289 15.4414C10.289 15.5254 10.2932 15.609 10.3017 15.6921C9.95347 16.127 9.75932 16.671 9.75932 17.2357C9.75932 17.6432 9.85775 18.0314 10.0356 18.3746C8.629 18.4556 7.50936 19.6252 7.50936 21.0512C7.50936 21.7217 7.76023 22.3564 8.19466 22.8415C7.5103 23.6835 7.17131 24.767 7.2599 25.854L11.0847 48.9992H33.0894L36.9072 25.9116L36.9143 25.8541C36.9817 25.0269 36.8015 24.2018 36.41 23.4836C36.4673 23.2603 36.4969 23.0336 36.4969 22.8139C36.4969 22.7433 36.4939 22.673 36.488 22.6031C37.0114 22.1395 37.3213 21.4683 37.3213 20.7552ZM12.278 47.5925L8.65965 25.7118C8.60303 24.9267 8.86534 24.1765 9.39979 23.5967C9.94044 23.0101 10.6775 22.6872 11.4753 22.6872H11.5046C13.0277 22.6872 14.2667 23.8794 14.3253 25.4013L14.3259 25.4155L14.3325 25.5004C14.3324 25.5577 14.3335 25.6151 14.3357 25.6727L16.0765 47.5925H12.278ZM17.4873 47.5925L15.7392 25.4517C15.7527 24.7397 16.0292 24.0705 16.5275 23.5526C17.0645 22.9946 17.787 22.6872 18.5615 22.6872C20.118 22.6872 21.3843 23.9535 21.3843 25.5099V47.5925H17.4873ZM22.7906 47.5925V25.51C22.7906 23.9535 24.0569 22.6872 25.6134 22.6872C26.388 22.6872 27.1104 22.9946 27.6475 23.5527C28.1458 24.0706 28.4223 24.7397 28.4357 25.4518L26.6875 47.5925H22.7906ZM35.5152 25.7118L31.8969 47.5925H28.0984L29.8375 25.7012L29.8392 25.6726C29.8415 25.6149 29.8425 25.5573 29.8424 25.5L29.8479 25.4296L29.8496 25.4013C29.9082 23.8793 31.1472 22.6871 32.6703 22.6871H32.6997C33.4974 22.6871 34.2345 23.01 34.7751 23.5966C35.3095 24.1765 35.5718 24.9267 35.5152 25.7118ZM35.3716 21.6812L34.9398 21.9242C34.2734 21.5086 33.4967 21.2811 32.6996 21.2811H32.6702C31.1942 21.2811 29.8962 22.0286 29.1399 23.1736C28.9998 22.9635 28.8398 22.7641 28.6605 22.5778C27.8559 21.7416 26.7737 21.2811 25.6131 21.2811C24.1427 21.2811 22.8452 22.0354 22.0873 23.1775C21.3292 22.0355 20.0318 21.2811 18.5613 21.2811C17.4009 21.2811 16.3187 21.7416 15.514 22.5778C15.3348 22.7641 15.1748 22.9634 15.0347 23.1736C14.2783 22.0286 12.9804 21.2811 11.5043 21.2811H11.475C10.6846 21.2811 9.91438 21.5048 9.25186 21.9135C9.03896 21.6811 8.91568 21.3748 8.91568 21.051C8.91568 20.3479 9.48801 19.776 10.1916 19.776C10.4262 19.776 10.6555 19.84 10.8543 19.9611L11.3957 20.291L11.7796 19.7864C11.8641 19.6753 11.9668 19.5785 12.0848 19.4987L13.285 18.6862L11.904 18.2465C11.4624 18.1059 11.1657 17.6996 11.1657 17.2355C11.1657 16.9321 11.2961 16.6424 11.5236 16.4406L11.8524 16.149L11.7341 15.7254C11.7084 15.6335 11.6954 15.5378 11.6954 15.4413C11.6954 14.8556 12.1719 14.3791 12.7576 14.3791C12.9534 14.3791 13.1441 14.4323 13.309 14.533L13.8511 14.8641L14.2353 14.3581C14.4674 14.0525 14.8561 13.9594 15.1413 13.935C15.765 13.8825 16.2205 14.252 16.4924 14.4733C16.5766 14.5417 16.6492 14.6008 16.7285 14.6488L17.2752 14.9796L17.6529 14.4717L17.9973 14.0187L17.6625 13.5918C17.5146 13.4032 17.4364 13.1769 17.4364 12.9373C17.4364 12.3555 17.9066 11.8814 18.487 11.8752L18.8832 11.8978L19.1095 11.6032C19.175 11.518 19.248 11.4433 19.3264 11.3813L19.7689 11.0316L19.5235 10.5238C19.2507 9.95935 19.4366 9.26777 19.9558 8.9149C20.5375 8.51938 21.3325 8.67144 21.7273 9.25268C21.7507 9.28718 21.774 9.32674 21.7967 9.37014L22.2983 10.3315L22.9713 9.48124C23.2157 9.17243 23.5807 8.99525 23.9725 8.99525C24.2071 8.99525 24.4363 9.05927 24.6352 9.1804L25.1764 9.51011L25.5603 9.00584C25.8049 8.68456 26.1754 8.50026 26.5768 8.50026C27.2803 8.50026 27.8527 9.07259 27.8527 9.77617C27.8527 10.2363 27.603 10.6623 27.2011 10.8879L26.7079 11.1647L26.8726 11.7057C26.9087 11.8247 26.9278 11.9471 26.9292 12.0699C26.9281 12.0886 26.9274 12.1077 26.9274 12.1273V12.7427L27.5375 12.8241C27.8466 12.8654 28.1211 13.0411 28.2906 13.3064L28.598 13.7876L29.1319 13.5855C29.3365 13.5081 29.5528 13.4688 29.7745 13.4688C30.3853 13.4688 30.953 13.7718 31.2933 14.2794L31.7491 14.9592L32.3525 14.4061C32.5502 14.2248 32.8057 14.125 33.0717 14.125C33.6575 14.125 34.1339 14.6016 34.1339 15.1872C34.1339 15.5701 33.9256 15.9251 33.5904 16.1138L33.0934 16.3935L33.2644 16.9375C33.2808 16.9896 33.2929 17.049 33.3005 17.1141L33.4216 18.1582L34.3403 17.6477C34.4955 17.5616 34.6727 17.516 34.8529 17.516C35.4386 17.516 35.915 17.9921 35.915 18.5772C35.915 18.8175 35.8368 19.0441 35.689 19.2327L35.3481 19.6673L35.6898 20.101C35.8372 20.2884 35.9151 20.5144 35.9151 20.7546C35.9151 21.1375 35.7068 21.4925 35.3716 21.6812Z" stroke="white" stroke-width="0.5"/>
<path d="M24.478 14.3592C24.2696 14.3592 24.066 14.3899 23.8717 14.4499C23.3821 13.9201 22.6899 13.6092 21.9468 13.6092C20.6913 13.6092 19.6389 14.4952 19.3818 15.6747C17.9934 15.7414 16.8844 16.8919 16.8844 18.2966H18.2906C18.2906 17.6246 18.8373 17.0779 19.5093 17.0779C19.6197 17.0779 19.7325 17.0941 19.8445 17.1262L20.8537 17.4146L20.7366 16.3717C20.7308 16.3206 20.728 16.2757 20.728 16.2342C20.728 15.5622 21.2748 15.0154 21.9468 15.0154C22.4013 15.0154 22.8152 15.2668 23.0267 15.6712L23.415 16.4138L24.0789 15.9024C24.16 15.8399 24.295 15.7654 24.478 15.7654C24.8398 15.7654 25.1342 16.0599 25.1342 16.4217H26.5404C26.5404 15.2844 25.6152 14.3592 24.478 14.3592Z" stroke="white" stroke-width="0.5"/>
<path d="M29.1653 16.9372C28.4774 16.9372 27.8285 17.233 27.3733 17.7263C27.123 17.6386 26.8584 17.5935 26.5872 17.5935C25.269 17.5935 24.1966 18.6658 24.1966 19.984H25.6028C25.6028 19.4412 26.0444 18.9997 26.5872 18.9997C26.8 18.9997 27.0036 19.068 27.1759 19.1975L27.8654 19.7152L28.2339 18.9357C28.4039 18.5759 28.7696 18.3434 29.1653 18.3434C29.7338 18.3434 30.1965 18.8061 30.1965 19.3747H31.6027C31.6026 18.0306 30.5093 16.9372 29.1653 16.9372Z" stroke="white" stroke-width="0.5"/>
<path d="M11.4562 25.3792L10.0689 25.6087L10.9718 31.0676L12.3592 30.8381L11.4562 25.3792Z" stroke="white" stroke-width="0.5"/>
<path d="M13.6769 38.8078L12.2895 39.0372L12.8527 42.4436L14.24 42.2143L13.6769 38.8078Z" stroke="white" stroke-width="0.5"/>
<path d="M24.3457 41.5804L24.2007 43.4047L25.6026 43.516L25.7475 41.6917L24.3457 41.5804Z" stroke="white" stroke-width="0.5"/>
<path d="M25.209 30.706L24.7845 36.05L26.1863 36.1614L26.6109 30.8173L25.209 30.706Z" stroke="white" stroke-width="0.5"/>
<path d="M25.6269 25.4423L25.3799 28.5508L26.7818 28.6621L27.0287 25.5537L25.6269 25.4423Z" stroke="white" stroke-width="0.5"/>
</svg>
