<svg width="24" height="24" viewBox="0 0 24 24" fill="none" xmlns="http://www.w3.org/2000/svg">
<path d="M10 1C8.21997 1 6.47991 1.52784 4.99987 2.51677C3.51983 3.50571 2.36628 4.91131 1.68509 6.55585C1.0039 8.20038 0.82567 10.01 1.17294 11.7558C1.5202 13.5016 2.37737 15.1053 3.63604 16.364C4.89472 17.6226 6.49836 18.4798 8.24419 18.8271C9.99002 19.1743 11.7996 18.9961 13.4442 18.3149C15.0887 17.6337 16.4943 16.4802 17.4832 15.0001C18.4722 13.5201 19 11.78 19 10C19 7.61305 18.0518 5.32387 16.364 3.63604C14.6761 1.94821 12.387 1 10 1ZM10 18C8.41775 18 6.87104 17.5308 5.55544 16.6518C4.23985 15.7727 3.21447 14.5233 2.60897 13.0615C2.00347 11.5997 1.84504 9.99113 2.15372 8.43928C2.4624 6.88743 3.22433 5.46197 4.34315 4.34315C5.46197 3.22433 6.88743 2.4624 8.43928 2.15372C9.99113 1.84504 11.5997 2.00346 13.0615 2.60896C14.5233 3.21446 15.7727 4.23984 16.6518 5.55544C17.5308 6.87103 18 8.41775 18 10C18 12.1217 17.1572 14.1566 15.6569 15.6569C14.1566 17.1571 12.1217 18 10 18ZM22.85 22.85C22.8035 22.8969 22.7482 22.9341 22.6873 22.9594C22.6264 22.9848 22.561 22.9979 22.495 22.9979C22.429 22.9979 22.3636 22.9848 22.3027 22.9594C22.2418 22.9341 22.1865 22.8969 22.14 22.85L17.14 17.85C17.0459 17.7558 16.993 17.6282 16.993 17.495C16.993 17.3619 17.0459 17.2342 17.14 17.14C17.2342 17.0458 17.3619 16.993 17.495 16.993C17.6282 16.993 17.7559 17.0458 17.85 17.14L22.85 22.14C22.8969 22.1865 22.9341 22.2418 22.9594 22.3027C22.9848 22.3636 22.9979 22.429 22.9979 22.495C22.9979 22.561 22.9848 22.6264 22.9594 22.6873C22.9341 22.7482 22.8969 22.8035 22.85 22.85Z" fill="#BABABA"/>
</svg>
