<svg width="24" height="24" viewBox="0 0 24 24" fill="none" xmlns="http://www.w3.org/2000/svg">
<path fill-rule="evenodd" clip-rule="evenodd" d="M12 20.1C11.7437 20.1 11.4967 20.0061 11.3042 19.8355C10.577 19.1923 9.87593 18.5879 9.2574 18.0547L9.25424 18.0519C7.44081 16.4886 5.87485 15.1386 4.78528 13.8087C3.56731 12.3219 3 10.9123 3 9.37231C3 7.87612 3.50716 6.49579 4.42795 5.48541C5.35973 4.46308 6.63826 3.90002 8.02844 3.90002C9.06747 3.90002 10.019 4.23233 10.8566 4.88762C11.2793 5.2184 11.6624 5.62322 12 6.09541C12.3377 5.62322 12.7207 5.2184 13.1435 4.88762C13.9811 4.23233 14.9327 3.90002 15.9717 3.90002C17.3617 3.90002 18.6404 4.46308 19.5722 5.48541C20.493 6.49579 21 7.87612 21 9.37231C21 10.9123 20.4328 12.3219 19.2149 13.8085C18.1253 15.1385 16.5596 16.4883 14.7466 18.0514L14.7463 18.0516C14.1267 18.5856 13.4245 19.1911 12.6957 19.8358C12.5033 20.0061 12.2561 20.1 12 20.1ZM8.02844 4.96669C6.93626 4.96669 5.93294 5.40763 5.20303 6.20837C4.46228 7.02121 4.05428 8.14481 4.05428 9.37233C4.05428 10.6675 4.53012 11.8258 5.59703 13.1281C6.62803 14.3866 8.16146 15.7086 9.93695 17.2393L9.938 17.2402L9.9413 17.243C10.5622 17.7782 11.2659 18.385 11.9984 19.0329C11.9984 19.033 11.9984 19.033 11.9984 19.033C11.2659 18.385 10.5621 17.7782 9.94122 17.243L9.93793 17.2402L9.93686 17.2393C8.16138 15.7086 6.62795 14.3866 5.59695 13.1281C4.53004 11.8258 4.0542 10.6675 4.0542 9.37232C4.0542 8.1448 4.4622 7.0212 5.20296 6.20836C5.93286 5.40761 6.93619 4.96667 8.02837 4.96667C8.22055 4.96667 8.40897 4.98153 8.59332 5.01113C8.40899 4.98153 8.2206 4.96669 8.02844 4.96669ZM16.7712 5.0481C17.5484 5.20964 18.2496 5.60781 18.797 6.20837C19.5377 7.02121 19.9457 8.14481 19.9457 9.37233C19.9457 10.6675 19.4699 11.8258 18.4031 13.1281C17.3728 14.3857 15.841 15.7065 14.0672 17.2358L14.0624 17.2399C13.4403 17.776 12.7354 18.3838 11.9985 19.033C11.9985 19.033 11.9985 19.033 11.9984 19.0329C12.7353 18.3838 13.4402 17.776 14.0623 17.2399L14.0671 17.2358C15.8409 15.7065 17.3728 14.3857 18.403 13.1281C19.4698 11.8258 19.9456 10.6675 19.9456 9.37232C19.9456 8.1448 19.5376 7.0212 18.7969 6.20836C18.2496 5.60782 17.5483 5.20965 16.7712 5.0481ZM16.252 4.97646C16.1592 4.96996 16.0658 4.96667 15.9716 4.96667C15.1715 4.96667 14.437 5.22396 13.7884 5.7313C13.2103 6.18363 12.8077 6.75544 12.5716 7.15553C12.4502 7.36128 12.2365 7.48408 11.9999 7.48408C11.9639 7.48408 11.9284 7.48124 11.8937 7.47568C11.7004 7.44474 11.5312 7.32993 11.4283 7.15555C11.1924 6.75545 10.7897 6.18365 10.2116 5.73132C9.71876 5.34584 9.17634 5.10473 8.59332 5.01113C9.17631 5.10473 9.71871 5.34585 10.2115 5.7313C10.7896 6.18363 11.1923 6.75544 11.4282 7.15553C11.5311 7.32995 11.7004 7.44476 11.8937 7.47568C11.9284 7.48124 11.9639 7.4841 12 7.4841C12.2366 7.4841 12.4503 7.36129 12.5717 7.15555C12.8078 6.75545 13.2104 6.18365 13.7884 5.73132C14.437 5.22397 15.1716 4.96669 15.9717 4.96669C16.0658 4.96669 16.1593 4.96996 16.252 4.97646Z" fill="#007FA4"/>
<path d="M11.3042 19.8355L11.4699 19.6484L11.4698 19.6483L11.3042 19.8355ZM9.2574 18.0547L9.09225 18.2424L9.09417 18.244L9.2574 18.0547ZM9.25424 18.0519L9.41939 17.8642L9.41748 17.8625L9.25424 18.0519ZM4.78528 13.8087L4.59189 13.9671L4.59189 13.9671L4.78528 13.8087ZM4.42795 5.48541L4.24318 5.317L4.24317 5.31701L4.42795 5.48541ZM10.8566 4.88762L11.0107 4.69074L11.0106 4.69072L10.8566 4.88762ZM12 6.09541L11.7966 6.2408L12 6.52524L12.2034 6.24084L12 6.09541ZM13.1435 4.88762L13.2976 5.08453L13.2976 5.08452L13.1435 4.88762ZM19.5722 5.48541L19.757 5.31701L19.757 5.317L19.5722 5.48541ZM19.2149 13.8085L19.0215 13.6501L19.0215 13.6501L19.2149 13.8085ZM14.7466 18.0514L14.5833 17.862L14.583 17.8623L14.7466 18.0514ZM14.7463 18.0516L14.9095 18.241L14.9099 18.2407L14.7463 18.0516ZM12.6957 19.8358L12.5301 19.6486L12.53 19.6486L12.6957 19.8358ZM5.20303 6.20837L5.01827 6.03996L5.01825 6.03998L5.20303 6.20837ZM5.59703 13.1281L5.79042 12.9697L5.79042 12.9697L5.59703 13.1281ZM9.93695 17.2393L9.77371 17.4286L9.77373 17.4286L9.93695 17.2393ZM9.938 17.2402L9.77477 17.4296L9.77685 17.4313L9.938 17.2402ZM9.9413 17.243L10.1046 17.0536L10.1025 17.0518L9.9413 17.243ZM11.9984 19.033L11.8328 19.2202L12.0007 19.3688L12.1666 19.218L11.9984 19.033ZM9.94122 17.243L10.1045 17.0536L10.1024 17.0518L9.94122 17.243ZM9.93793 17.2402L9.77459 17.4295L9.77677 17.4313L9.93793 17.2402ZM9.93686 17.2393L10.1002 17.05L10.1001 17.0499L9.93686 17.2393ZM5.59695 13.1281L5.79035 12.9697L5.79034 12.9696L5.59695 13.1281ZM5.20296 6.20836L5.0182 6.03995L5.01818 6.03997L5.20296 6.20836ZM16.7712 5.0481L16.8221 4.80333L16.7203 5.29286L16.7712 5.0481ZM18.797 6.20837L18.9817 6.03998L18.9817 6.03998L18.797 6.20837ZM18.4031 13.1281L18.5965 13.2865L18.5965 13.2865L18.4031 13.1281ZM14.0672 17.2358L14.2304 17.4251L14.2305 17.4251L14.0672 17.2358ZM14.0624 17.2399L14.2256 17.4293L14.2256 17.4293L14.0624 17.2399ZM11.9985 19.033L11.8339 19.2211L11.999 19.3657L12.1637 19.2206L11.9985 19.033ZM14.0623 17.2399L14.2255 17.4293L14.2256 17.4293L14.0623 17.2399ZM14.0671 17.2358L14.2304 17.4251L14.2304 17.4251L14.0671 17.2358ZM18.403 13.1281L18.5964 13.2865L18.5964 13.2865L18.403 13.1281ZM18.7969 6.20836L18.9817 6.03997L18.9817 6.03996L18.7969 6.20836ZM16.252 4.97646L16.2345 5.22585L16.2694 4.72707L16.252 4.97646ZM13.7884 5.7313L13.6343 5.53439L13.6343 5.53442L13.7884 5.7313ZM12.5716 7.15553L12.7869 7.28258L12.7869 7.28258L12.5716 7.15553ZM11.4283 7.15555L11.213 7.28253L11.213 7.28259L11.4283 7.15555ZM10.2116 5.73132L10.3656 5.53442L10.3656 5.5344L10.2116 5.73132ZM10.2115 5.7313L10.3655 5.5344L10.3655 5.53439L10.2115 5.7313ZM11.4282 7.15553L11.2129 7.28252L11.2129 7.28258L11.4282 7.15553ZM12.5717 7.15555L12.787 7.28259L12.787 7.28259L12.5717 7.15555ZM13.7884 5.73132L13.6344 5.5344L13.6344 5.53443L13.7884 5.73132ZM11.1384 20.0226C11.3764 20.2336 11.6824 20.35 12 20.35V19.85C11.8051 19.85 11.617 19.7787 11.4699 19.6484L11.1384 20.0226ZM9.09417 18.244C9.7128 18.7773 10.4127 19.3808 11.1385 20.0228L11.4698 19.6483C10.7413 19.0038 10.0391 18.3984 9.42063 17.8653L9.09417 18.244ZM9.0891 18.2396L9.09226 18.2424L9.42254 17.867L9.41938 17.8642L9.0891 18.2396ZM4.59189 13.9671C5.69819 15.3174 7.28317 16.6828 9.09101 18.2412L9.41748 17.8625C7.59845 16.2944 6.05151 14.9597 4.97866 13.6502L4.59189 13.9671ZM2.75 9.37231C2.75 10.9832 3.34664 12.447 4.59189 13.9671L4.97867 13.6502C3.78798 12.1968 3.25 10.8413 3.25 9.37231H2.75ZM4.24317 5.31701C3.27631 6.37794 2.75 7.8202 2.75 9.37231H3.25C3.25 7.93204 3.738 6.61363 4.61273 5.6538L4.24317 5.31701ZM8.02844 3.65002C6.56832 3.65002 5.22259 4.24241 4.24318 5.317L4.61272 5.65381C5.49686 4.68374 6.7082 4.15002 8.02844 4.15002V3.65002ZM11.0106 4.69072C10.1302 4.0019 9.12472 3.65002 8.02844 3.65002V4.15002C9.01023 4.15002 9.90784 4.46275 10.7025 5.08452L11.0106 4.69072ZM12.2034 5.95003C11.8531 5.46 11.4537 5.0374 11.0107 4.69074L10.7025 5.08451C11.1049 5.39939 11.4718 5.78644 11.7966 6.2408L12.2034 5.95003ZM12.9895 4.69071C12.5463 5.0374 12.1471 5.46001 11.7966 5.94999L12.2034 6.24084C12.5283 5.78642 12.8951 5.39939 13.2976 5.08453L12.9895 4.69071ZM15.9717 3.65002C14.8754 3.65002 13.8699 4.0019 12.9895 4.69072L13.2976 5.08452C14.0923 4.46275 14.9899 4.15002 15.9717 4.15002V3.65002ZM19.757 5.317C18.7775 4.24241 17.4317 3.65002 15.9717 3.65002V4.15002C17.2918 4.15002 18.5033 4.68374 19.3874 5.65381L19.757 5.317ZM21.25 9.37231C21.25 7.82021 20.7238 6.37795 19.757 5.31701L19.3874 5.6538C20.2621 6.61362 20.75 7.93202 20.75 9.37231H21.25ZM19.4082 13.967C20.6535 12.447 21.25 10.9832 21.25 9.37231H20.75C20.75 10.8413 20.2122 12.1968 19.0215 13.6501L19.4082 13.967ZM14.9098 18.2407C16.7173 16.6825 18.302 15.3173 19.4083 13.9669L19.0215 13.6501C17.9487 14.9596 16.402 16.2942 14.5833 17.862L14.9098 18.2407ZM14.9099 18.2407L14.9101 18.2405L14.583 17.8623L14.5827 17.8626L14.9099 18.2407ZM12.8614 20.023C13.5888 19.3795 14.2898 18.7751 14.9095 18.241L14.5831 17.8622C13.9635 18.3962 13.2602 19.0026 12.5301 19.6486L12.8614 20.023ZM12 20.35C12.3174 20.35 12.6235 20.2336 12.8614 20.023L12.53 19.6486C12.3831 19.7786 12.1948 19.85 12 19.85V20.35ZM5.38779 6.37679C6.0699 5.62848 7.00594 5.21669 8.02844 5.21669V4.71669C6.86659 4.71669 5.79598 5.18677 5.01827 6.03996L5.38779 6.37679ZM4.30428 9.37233C4.30428 8.19931 4.69399 7.1381 5.38781 6.37677L5.01825 6.03998C4.23057 6.90431 3.80428 8.09031 3.80428 9.37233H4.30428ZM5.79042 12.9697C4.74899 11.6985 4.30428 10.5943 4.30428 9.37233H3.80428C3.80428 10.7407 4.31125 11.9532 5.40365 13.2865L5.79042 12.9697ZM10.1002 17.0499C8.31871 15.5141 6.80461 14.2077 5.79042 12.9697L5.40364 13.2865C6.45145 14.5656 8.00421 15.9031 9.77371 17.4286L10.1002 17.0499ZM10.1012 17.0508L10.1002 17.0499L9.77373 17.4286L9.77478 17.4296L10.1012 17.0508ZM10.1025 17.0518L10.0992 17.0491L9.77685 17.4313L9.78015 17.4341L10.1025 17.0518ZM12.1641 18.8457C11.4302 18.1966 10.7253 17.5888 10.1045 17.0536L9.77806 17.4323C10.399 17.9677 11.1017 18.5735 11.8328 19.2202L12.1641 18.8457ZM12.1666 19.218L12.1666 19.2179L11.8303 18.848L11.8302 18.848L12.1666 19.218ZM9.77798 17.4323C10.399 17.9677 11.1016 18.5735 11.8328 19.2202L12.164 18.8457C11.4302 18.1966 10.7252 17.5888 10.1045 17.0536L9.77798 17.4323ZM9.77677 17.4313L9.78007 17.4341L10.1024 17.0518L10.0991 17.049L9.77677 17.4313ZM9.77354 17.4285L9.7746 17.4295L10.1013 17.0509L10.1002 17.05L9.77354 17.4285ZM5.40356 13.2865C6.45137 14.5656 8.00412 15.9031 9.77362 17.4286L10.1001 17.0499C8.31863 15.5141 6.80453 14.2077 5.79035 12.9697L5.40356 13.2865ZM3.8042 9.37232C3.8042 10.7407 4.31117 11.9532 5.40357 13.2865L5.79034 12.9696C4.74892 11.6985 4.3042 10.5943 4.3042 9.37232H3.8042ZM5.01818 6.03997C4.23049 6.9043 3.8042 8.0903 3.8042 9.37232H4.3042C4.3042 8.1993 4.69392 7.13809 5.38774 6.37676L5.01818 6.03997ZM8.02837 4.71667C6.86651 4.71667 5.7959 5.18676 5.0182 6.03995L5.38772 6.37678C6.06982 5.62847 7.00587 5.21667 8.02837 5.21667V4.71667ZM8.63296 4.76429C8.43515 4.73253 8.23347 4.71667 8.02837 4.71667V5.21667C8.20763 5.21667 8.38278 5.23052 8.55369 5.25796L8.63296 4.76429ZM8.02844 5.21669C8.20768 5.21669 8.38281 5.23053 8.55369 5.25797L8.63295 4.76429C8.43517 4.73254 8.23352 4.71669 8.02844 4.71669V5.21669ZM16.7203 5.29286C17.4456 5.44363 18.1001 5.81492 18.6122 6.37677L18.9817 6.03998C18.3991 5.40071 17.6511 4.97566 16.8221 4.80333L16.7203 5.29286ZM18.6122 6.37677C19.306 7.1381 19.6957 8.19931 19.6957 9.37233H20.1957C20.1957 8.09031 19.7694 6.90431 18.9817 6.03998L18.6122 6.37677ZM19.6957 9.37233C19.6957 10.5943 19.251 11.6985 18.2097 12.9697L18.5965 13.2865C19.6888 11.9532 20.1957 10.7407 20.1957 9.37233H19.6957ZM18.2097 12.9697C17.1962 14.2068 15.6837 15.512 13.904 17.0464L14.2305 17.4251C15.9982 15.901 17.5494 14.5647 18.5965 13.2865L18.2097 12.9697ZM13.904 17.0464L13.8992 17.0506L14.2256 17.4293L14.2304 17.4251L13.904 17.0464ZM13.8992 17.0505C13.2772 17.5866 12.5713 18.1952 11.8332 18.8454L12.1637 19.2206C12.8995 18.5724 13.6035 17.9654 14.2256 17.4293L13.8992 17.0505ZM12.1631 18.8448L12.1631 18.8448L11.8338 19.2211L11.8339 19.2211L12.1631 18.8448ZM12.1637 19.2205C12.8994 18.5724 13.6034 17.9654 14.2255 17.4293L13.8991 17.0505C13.2771 17.5866 12.5712 18.1952 11.8332 18.8454L12.1637 19.2205ZM14.2256 17.4293L14.2304 17.4251L13.9039 17.0464L13.8991 17.0505L14.2256 17.4293ZM14.2304 17.4251C15.9982 15.901 17.5493 14.5647 18.5964 13.2865L18.2096 12.9697C17.1962 14.2068 15.6836 15.512 13.9039 17.0464L14.2304 17.4251ZM18.5964 13.2865C19.6887 11.9531 20.1956 10.7407 20.1956 9.37232H19.6956C19.6956 10.5943 19.2509 11.6985 18.2096 12.9697L18.5964 13.2865ZM20.1956 9.37232C20.1956 8.0903 19.7694 6.9043 18.9817 6.03997L18.6121 6.37676C19.3059 7.13809 19.6956 8.1993 19.6956 9.37232H20.1956ZM18.9817 6.03996C18.3991 5.40072 17.6511 4.97567 16.8221 4.80333L16.7203 5.29286C17.4456 5.44364 18.1001 5.81492 18.6121 6.37676L18.9817 6.03996ZM16.2694 4.72707C16.1709 4.72016 16.0716 4.71667 15.9716 4.71667V5.21667C16.0599 5.21667 16.1476 5.21976 16.2345 5.22585L16.2694 4.72707ZM15.9716 4.71667C15.114 4.71667 14.3255 4.99374 13.6343 5.53439L13.9424 5.92822C14.5484 5.45418 15.2291 5.21667 15.9716 5.21667V4.71667ZM13.6343 5.53442C13.0225 6.0132 12.601 6.61382 12.3563 7.02849L12.7869 7.28258C13.0144 6.89705 13.3982 6.35407 13.9424 5.92818L13.6343 5.53442ZM12.3563 7.02849C12.2793 7.15895 12.147 7.23408 11.9999 7.23408V7.73408C12.3261 7.73408 12.6211 7.56361 12.7869 7.28258L12.3563 7.02849ZM11.9999 7.23408C11.9771 7.23408 11.9548 7.23228 11.9332 7.22882L11.8542 7.72254C11.902 7.73019 11.9507 7.73408 11.9999 7.73408V7.23408ZM11.213 7.28259C11.3532 7.52026 11.5864 7.67967 11.8541 7.72254L11.9332 7.22883C11.8144 7.20981 11.7092 7.13961 11.6436 7.0285L11.213 7.28259ZM10.0575 5.92821C10.6019 6.35409 10.9856 6.89706 11.213 7.28253L11.6436 7.02856C11.3991 6.61384 10.9776 6.0132 10.3656 5.53442L10.0575 5.92821ZM8.55369 5.25797C9.09258 5.34448 9.59608 5.56727 10.0575 5.92823L10.3656 5.5344C9.84145 5.12441 9.2601 4.86497 8.63295 4.76429L8.55369 5.25797ZM10.3655 5.53439C9.8414 5.12442 9.26007 4.86498 8.63296 4.76429L8.55369 5.25796C9.09255 5.34449 9.59602 5.56728 10.0575 5.92822L10.3655 5.53439ZM11.6436 7.02855C11.399 6.61382 10.9775 6.01319 10.3655 5.5344L10.0574 5.9282C10.6018 6.35408 10.9856 6.89705 11.2129 7.28252L11.6436 7.02855ZM11.9332 7.22882C11.8143 7.20981 11.7091 7.13961 11.6435 7.02849L11.2129 7.28258C11.3532 7.52028 11.5864 7.6797 11.8542 7.72254L11.9332 7.22882ZM11.8541 7.72254C11.902 7.7302 11.9507 7.7341 12 7.7341V7.2341C11.9771 7.2341 11.9548 7.23229 11.9332 7.22883L11.8541 7.72254ZM12 7.7341C12.3261 7.7341 12.6212 7.56362 12.787 7.28259L12.3564 7.0285C12.2794 7.15896 12.1471 7.2341 12 7.2341V7.7341ZM12.787 7.28259C13.0145 6.89706 13.3983 6.35408 13.9425 5.9282L13.6344 5.53443C13.0226 6.01321 12.6011 6.61384 12.3564 7.0285L12.787 7.28259ZM13.9425 5.92823C14.5485 5.45419 15.2292 5.21669 15.9717 5.21669V4.71669C15.114 4.71669 14.3256 4.99375 13.6344 5.5344L13.9425 5.92823ZM15.9717 5.21669C16.06 5.21669 16.1476 5.21976 16.2345 5.22585L16.2694 4.72707C16.1709 4.72016 16.0716 4.71669 15.9717 4.71669V5.21669Z" fill="#007FA4"/>
</svg>
