<svg width="16" height="18" viewBox="0 0 16 18" fill="none" xmlns="http://www.w3.org/2000/svg">
<path fill-rule="evenodd" clip-rule="evenodd" d="M10.5586 12.6076C11.1154 11.8875 11.9859 11.4215 12.9621 11.4215C14.6361 11.4215 16 12.7841 16 14.4608C16 16.1375 14.6396 17.5 12.9656 17.5C11.2916 17.5 9.93128 16.1339 9.93128 14.4608C9.93128 14.1078 9.99471 13.7654 10.1075 13.4477L5.44846 10.8391C4.89163 11.5662 4.01762 12.0357 3.03789 12.0357C1.36388 12.0357 0 10.6732 0 8.99647C0 7.31977 1.36388 5.95723 3.03436 5.95723C4.0141 5.95723 4.88811 6.42317 5.44141 7.15033L10.0969 4.54527C9.98414 4.2311 9.92423 3.89223 9.92423 3.53924C9.92423 1.86254 11.2846 0.5 12.9586 0.5C14.6326 0.5 15.993 1.86254 15.993 3.53924C15.993 5.21595 14.6291 6.57849 12.9586 6.57849C11.9789 6.57849 11.1048 6.10901 10.5515 5.38538L5.89251 7.99045C6.00529 8.30814 6.0652 8.64348 6.0652 8.99647C6.0652 9.34593 6.00529 9.6848 5.89604 9.99896L10.5586 12.6076ZM15.0449 3.54278C15.0449 2.39203 14.111 1.45661 12.9621 1.45661C11.8167 1.45661 10.8793 2.39203 10.8793 3.54278C10.8793 4.69353 11.8132 5.62895 12.9621 5.62895C14.111 5.62895 15.0449 4.69353 15.0449 3.54278ZM3.03787 11.0827C1.88897 11.0827 0.955048 10.1473 0.955048 8.99651C0.955048 7.84576 1.88897 6.91034 3.03787 6.91034C4.18677 6.91034 5.12069 7.84576 5.12069 8.99651C5.12069 10.1473 4.18324 11.0827 3.03787 11.0827ZM10.8793 14.4572C10.8793 15.608 11.8132 16.5434 12.9621 16.5434C14.111 16.5434 15.0449 15.608 15.0449 14.4572C15.0449 13.3065 14.111 12.371 12.9621 12.371C11.8132 12.371 10.8793 13.3065 10.8793 14.4572Z" fill="#007FA4"/>
</svg>
