<svg width="64" height="64" viewBox="0 0 64 64" fill="none" xmlns="http://www.w3.org/2000/svg">
<path d="M45.4759 16.9375C35.7895 16.9375 29.1376 12 24.4702 12C19.8027 12 10 14.6403 10 35.7699C10 56.8994 23.1874 60 28.3212 60C52.3616 60.0014 62.6306 16.9375 45.4759 16.9375Z" fill="#F4F4F4"/>
<g style="mix-blend-mode:luminosity">
<path d="M40.8993 15.1001C40.1713 14.3782 39.7618 13.3954 39.7618 12.3702C39.7618 11.3449 40.1713 10.3621 40.8993 9.64067L36.8025 5.53393C36.4397 5.17062 35.948 4.9668 35.4352 4.9668C34.9223 4.9668 34.4302 5.17062 34.0678 5.53393L4.56666 35.0346C4.20383 35.397 4 35.8891 4 36.402C4 36.9148 4.20383 37.4069 4.56666 37.7693L8.66396 41.8661C9.46795 41.0461 10.598 40.63 11.7417 40.7328C12.8858 40.8362 13.9234 41.4472 14.5679 42.3979L41.4311 15.5347C41.2409 15.4063 41.0631 15.2605 40.8993 15.1001Z" fill="#57A4FF"/>
<path d="M50.4655 19.1964L46.3587 15.0996C45.0414 16.4259 42.9602 16.6099 41.431 15.5351L14.5678 42.3983C15.6341 43.9332 15.451 46.0111 14.1332 47.3359L18.2301 51.4332C18.5924 51.7961 19.0845 51.9999 19.5974 51.9999C20.1103 51.9999 20.6024 51.7961 20.9648 51.4332L50.4655 21.9311C50.8283 21.5688 51.0326 21.0767 51.0326 20.5638C51.0326 20.0509 50.8283 19.5593 50.4655 19.1964Z" fill="#2488FF"/>
<path d="M50.5623 8.67387L46.4654 4.56713C46.1026 4.20383 45.611 4 45.0981 4C44.5852 4 44.0931 4.20383 43.7307 4.56713L14.2296 34.0678C13.8667 34.4302 13.6629 34.9223 13.6629 35.4352C13.6629 35.948 13.8667 36.4402 14.2296 36.8025L18.3269 40.8993C19.8381 39.3923 22.2845 39.3923 23.7962 40.8993L50.5623 14.1333C49.8342 13.4114 49.4247 12.4286 49.4247 11.4034C49.4247 10.3781 49.8342 9.39529 50.5623 8.67387Z" fill="#FFCD00"/>
<path d="M40.4281 17.4333L41.7945 16.0664L43.1608 17.4333L41.7945 18.7997L40.4281 17.4333Z" fill="#F1F2F2"/>
<path d="M60.1284 18.2296L56.0217 14.1328C55.2998 14.8608 54.3174 15.2704 53.2922 15.2704C52.2669 15.2704 51.2841 14.8608 50.5622 14.1328L23.7962 40.8988C25.3032 42.4106 25.3032 44.8565 23.7962 46.3682L27.893 50.4655C28.2554 50.8283 28.7475 51.0322 29.2603 51.0322C29.7732 51.0322 30.2653 50.8283 30.6277 50.4655L60.1284 20.9643C60.4912 20.602 60.6955 20.1099 60.6955 19.597C60.6955 19.0841 60.4912 18.5925 60.1284 18.2296Z" fill="#DDB200"/>
<path d="M43.1617 20.1691L44.5286 18.8027L45.8945 20.1701L44.5276 21.536L43.1617 20.1691Z" fill="#F1F2F2"/>
<path d="M37.6952 14.7023L39.0616 13.3359L40.428 14.7023L39.0616 16.0692L37.6952 14.7023Z" fill="#F1F2F2"/>
<path d="M48.628 25.634L49.9944 24.2676L51.3608 25.634L49.9944 27.0008L48.628 25.634Z" fill="#F1F2F2"/>
<path d="M45.8942 22.902L47.2606 21.5352L48.6275 22.9015L47.2611 24.2679L45.8942 22.902Z" fill="#F1F2F2"/>
<path d="M36.3169 25.6445L33.1042 28.8572L29.0565 26.7953L31.1183 30.8431L27.9057 34.0557L32.3941 33.3456L34.456 37.3934L35.167 32.9059L39.6546 32.1949L35.6068 30.133L36.3169 25.6445Z" fill="#ED1C24"/>
</g>
</svg>
