<svg width="16" height="16" viewBox="0 0 16 16" fill="none" xmlns="http://www.w3.org/2000/svg">
<path d="M15.9249 2.62464C15.4241 2.82286 14.8232 3.02108 14.3224 3.12019C14.6228 3.12019 14.9233 2.62464 15.1236 2.42642C15.3239 2.12909 15.5243 1.83176 15.6244 1.43532V1.33621H15.5243C15.0235 1.63354 14.3224 1.83176 13.6213 2.02998C13.5211 2.02998 13.5211 2.02998 13.5211 2.02998C13.421 1.93087 13.421 1.93087 13.3208 1.83176C13.0203 1.63354 12.7199 1.43532 12.4194 1.2371C12.0188 1.03888 11.518 0.939771 11.0172 1.03888C10.5164 1.03888 10.1158 1.2371 9.61502 1.43532C9.2144 1.63354 8.81377 1.93087 8.5133 2.32731C8.21283 2.62464 8.01252 3.12019 7.91236 3.61574C7.81221 4.1113 7.81221 4.50774 7.91236 5.00329C7.91236 5.1024 7.91236 5.1024 7.81221 5.1024C5.10798 4.60685 2.90454 3.71485 1.20188 1.73265C1.10172 1.63354 1.00156 1.63354 1.00156 1.73265C0.200313 2.92197 0.600939 4.70596 1.6025 5.69706C1.70266 5.79617 1.90297 5.89528 2.00313 6.0935C1.90297 6.0935 1.30203 5.99439 0.701095 5.69706C0.600939 5.69706 0.600939 5.69706 0.600939 5.79617C0.600939 5.89528 0.600939 5.99439 0.600939 6.19261C0.701095 7.38193 1.6025 8.47214 2.70423 8.86858C2.80438 8.96769 3.00469 8.96769 3.10485 8.96769C2.80438 9.0668 2.60407 9.0668 1.80282 8.96769C1.70266 8.96769 1.70266 8.96769 1.70266 9.0668C2.3036 10.5535 3.40532 10.9499 4.30673 11.2472C4.40689 11.2472 4.50704 11.2472 4.70736 11.2472C4.40689 11.7428 3.40532 12.0401 2.90454 12.2383C2.10329 12.5357 1.10172 12.6348 0.200313 12.5357C-1.94018e-07 12.5357 0 12.5357 0 12.5357V12.6348C0.200313 12.7339 0.400626 12.833 0.600939 12.9321C1.20188 13.2294 1.80282 13.5268 2.40376 13.6259C5.70892 14.5179 9.41471 13.8241 11.8185 11.4454C13.7214 9.56235 14.4225 6.88638 14.4225 4.30952C14.4225 4.21041 14.5227 4.1113 14.6228 4.1113C15.1236 3.71485 15.5243 3.31841 15.9249 2.82286C16.025 2.72375 16.025 2.62464 15.9249 2.62464C16.025 2.62464 16.025 2.62464 15.9249 2.62464C16.025 2.52553 16.025 2.52553 15.9249 2.62464Z" fill="white"/>
</svg>
